<?xml version="1.0" encoding="UTF-8"?>
<svg id="Layer_2" data-name="Layer 2" xmlns="http://www.w3.org/2000/svg" viewBox="0 0 300 300">
  <defs>
    <style>
      .cls-1 {
        fill: #000;
        stroke-width: 0px;
      }
    </style>
  </defs>
  <g id="Layer_1-2" data-name="Layer 1">
    <g>
      <path class="cls-1" d="m144.8,270.08c32.88,0,63.19,11.17,87.35,29.92,5.85-2.96,11.51-6.25,16.95-9.85-12.49-10.65-26.45-19.26-41.63-25.69-19.86-8.4-40.94-12.66-62.68-12.66s-42.82,4.26-62.67,12.66c-11.09,4.69-21.53,10.55-31.22,17.53,5.13,4.03,10.51,7.77,16.09,11.2,22.4-14.62,49.12-23.12,77.8-23.12Zm65.15,13.19c-.67.12-.57-.53-1.32-.33-.48-.27.84-.13,1.15-.16-.1-.44.21-1.3-.16-1.47.32-.52.55,1.5.33,1.96Zm0-2.29c.15-.59.49-.1.99-.16-.14.31-.72.44-.99.16Zm20.75,8.34c.51.22-.29.75-.49.33.02-.41.24-.63.66-.65.05.37-.48.18-.5.49.06.23.29.01.33-.16Zm14.65-.33c-.18.41-.4.79-.66,1.14-.31-.17.32-.76.49-.98-.21-.46-.34.51-.82.33.17-.35.67-.79.99-.49Zm-10.37-6.71c.14.1.3.2.33,0,.19.03.09.16,0,.16.26.27.62-.07.99.33.09.24-.64.4-.16.49,0,.46-.45-.39-.33.33-.36-.44-.55-.04-.99-.33.3-.43-.07-.49.16-.98Zm-4.28.98c.18.37.79.3.66.98.71-.53.43-.5.82.16-.17.56-.05-.46-.5-.16-.22.31.1.72-.16,1.31-.27.05-.28-.15-.49-.16-.22.41.65.51.16.66-.07.23-.41-.52-.16-1.15.19.03.14.3.16.49.66-.18-.19-1.22-.66-.82,0-.16.2-.13.33-.16-.09-.13-.17-.26-.17-.49.29.15.27.6.66.66.47-.2-.72-.47-.16-.82h-.82c.11-.17.38-.17.33-.49Zm-.33,5.23c-.06.22-.29.26-.33.49.53.2.12-.53.66-.33-.12.33-.5.67-.82.33.35.4-.26.84.33.82-.04.18-.33.11-.33.33-.08-.21-.17-.34-.33-.82.39-.16.28-.82.82-.82Zm-2.8,2.94c-.39-.36.4.02.5.16.04.48-.66.61,0,.82-.04.18-.33.11-.33.33-.25-.14.05-.25-.16-.65.15-.07.3-.14.33-.33-.07-.24-.14.02-.33,0-.25-.09-.01-.17.16-.17.03-.14-.06-.15-.16-.16Zm-5.6-.33c.51-.28.19-.44.17-.98.14.1.29.2.33,0,.15.09.25.45.33.16.19.03.09.16,0,.16-.03.14.07.16.17.16-.17.5-.65.56-.82.66-.15-.07-.29-.14-.33-.33.09-.25.17-.01.16.16Zm-11.2-13.58c-.03.13-.16.16-.16.33.58.14.28-.54,0-.49.04-.18.33-.11.33-.33.23.1-.06.88.17.98-.02.31-.64-.1-.66-.33-.13.09-.27.17-.5.16.41.28.27.42-.16.16-.05-.38.48-.18.49-.49-.04-.21-.32-.17-.33,0-.19-.03-.09-.16,0-.16.03-.14-.06-.16-.16-.16.13-.33.68.29.99.33Zm-1.98-5.23c.29-.39-.12.18.16.33.22-.05.14-.41.17-.66.19.03.29-.04.33-.16.33,0-.48.84.16.33.22.33-.1,1.03.16,1.64h-.49c0,.16.2.13.33.16-.41,1.05-.42-.39-.82.49-.62-.5.02-1.14-.33-1.64.4-.22.1-.33.33-.49Zm-2.47,2.13v.65c.16-.1.85-.73.82,0-.48-.43-.62.47-1.32.33.08-.41,0-.99.49-.98Zm-3.29-3.92c.02-.29-.2-.35-.16-.66h.66c-.07.31-.06.7-.5.66Zm-.99-6.38c.12-.38.77.42.99,0,.25-.4-.16.49-.16.49-.29.39.12-.18-.16-.33-.19.03-.14.3-.17.49-.34-.09-.35-.25-.16-.49-.14.07-.29.14-.33.33-.55.41.41-.57,0-.49Zm-8.07.65c.19-.3.87-.11.66-.82.19.05.47.93.5.16.21.18.24,1.25-.33.82.03-.19.16-.09.16,0,.54-.16-.18-.32-.16-.49-.37.15-.33,1.13-.82.66.03-.19.16-.09.16,0,.28-.11.1-.37-.16-.33Zm-17.95,1.47c.62.21-.18.63.66.33.27.31-.06.76.16.98-.01.31-.64-.1-.66-.33-.39-.33.18.07.33.16.46-.16-.24-.43.16-.65-.46.17-.7.19-.66-.49Zm-1.65,2.94c.24.07-.07.21,0,.49.24-.09.4-.26.49-.49.19.03.09.17,0,.16-.02.29.2.35.16.66-.29.05-.34-.15-.16-.16-.23-.19-.96.02-.49-.66Zm-5.44-8.83c.14.52-.26.5-.33.82-.39-.04.19-.44.16-.65-.29.15-.51.37-.66.65-.31-.22.33-.86.82-.82Zm-7.74-2.94c.14.11.45.25.5,0,.63.43-.79.18-.5.82.41-.48.29-.2.16.33-.45-.35-.27-.81-.16-1.15Zm-4.12-3.6c-.45-.26-1.03-.39-.99-1.14.56.15.89.53.99,1.14Zm-11.36,6.71c.29.04.38.28.33.65-.47.13-.43-.23-.82-.16.02-.31.54-.11.49-.49Zm-6.09,8.51c.39.33-.18-.07-.33-.16.1-.1.38-.78,0-.82-.51-.4.47.18.33-.16.63.4-.46.87,0,1.14Zm-.82-14.88c.29-.41.27-.11.66-.33-.06-.19-.29-.41-.33-.16-.25-.07.06-.21,0-.49.31.07.13.63.66.49.3.13-.1.18-.33.16.06.19.29.42.33.17.18.15.11.36,0,.65-.55-.15-.02-.36-.33-.65-.13.02-.5.54-.16.49-.04.18-.33.11-.33.33-.19-.03-.09-.16,0-.16,0-.28-.12-.42-.33-.49.03-.19.17-.09.16,0Zm-25.85,7.2c.15.55.37.02.66.33-.31.31-.02.41,0,.81-.33.27-.21-.01-.66,0,.04-.21.32-.16.33,0,.46.07-.41-.61.16-.65-.05-.35-.44.24-.66-.16-.27-.66,1.02-.43.17-.33Zm-12.02-1.8c.62-.23.32.45.82.33-.08.32-1.15.29-.82-.33Zm-.33,3.44c.29-.31.48.2.82-.16.35-.38-.29.55-.5.65-.13-.03-.16-.16-.33-.16v-.33Zm-6.75-2.78c.19.03.09.16,0,.16.11.49.35-.16.66,0,.33.34-.07.32-.16.66.31-.02.55-.11.66-.33.34.27-.61.65-.98.33.04-.18.32-.11.33-.33-.12-.37-.89.63-.82-.33.19.03.29-.04.33-.16Zm-18.28,10.63c.39.21.31-.02.82.16-.01.49-.98.44-.82-.16Zm-6.91,10.14c.97.08,1.34.34,1.32,1.31-.31-.66-.47.41-.99.49-.36-.27.03-.88-.66-.49.09-.13.17-.27.16-.49.42.02.85.03.82.49.47-.22,0-.86-.33-.82-.51-.12-.31.45-.82.33-.03-.46.5-.38.5-.82Zm-8.73-3.43c-.72,0-.83-.6-1.64-.49.36-.3,1.88-.35,1.64.49Zm2.31,7.69c-.46-.14-.55-.66-.66-1.14,1.23-.97,2.95-1.43,3.3-3.27-.31-.28-1.22.21-.33-.33-.91-.57-1.09.98-1.98.98.48-.83,1.12-1.51,2.31-1.64,1.6,3.08-3.13,2.89-2.64,5.4Z"/>
      <path class="cls-1" d="m208.79,273.78c-.03-.46.47-.41.66-.66.06-.28-.25-.42,0-.49.1,0,.19-.03.16-.16-.52-.08-.44.56-.82.16.23.37-.42.61,0,.65.05-.14.45-.71.5-.33-.11.23-1.01.51-.5.82Z"/>
      <path class="cls-1" d="m52.9,111.33c0,6.72,5.45,12.17,12.17,12.17s12.17-5.45,12.17-12.17-5.45-12.17-12.17-12.17-12.17,5.45-12.17,12.17Zm16.59,1.36c.07-.7.31-.48.33-.98-.16-.43.53.82-.33.98Zm-.66-1.64c.22-.18.67.17.98.16-.32.4-.77-.25-.82.49.05.23.29.01.33-.16.49.11-.16.35,0,.65-.22-.05-.26-.29-.49-.33-.02-.29.2-.35.16-.66.03-.14-.06-.15-.16-.16Z"/>
      <path class="cls-1" d="m42.82,171.37c.05.02.11.04.16.06-.06-.09-.08-.2,0-.35-.13.02-.15.15-.15.3Z"/>
      <path class="cls-1" d="m246.01,231.26c.07.22.16.11.27,0-.06-.03-.12-.07-.17-.1-.03.05-.07.09-.09.11Z"/>
      <path class="cls-1" d="m235.8,283.27c-.05-.32.22-.33.33-.49-.23,0-.36.08-.5.16-.22.03-.5-.66-.66-.16.39.05.31.57.82.49Z"/>
      <path class="cls-1" d="m208.63,273.95c.14.48.25-.38.66-.16.42-.65-.43.03-.66.16Z"/>
      <path class="cls-1" d="m91.31,37.62c-.11-3.02-2.69-5.38-5.71-5.38h-14.74c1.29-12.27,12.03-21.76,24.78-21.05,12.06.67,21.74,10.52,22.2,22.6.46,11.85-7.88,21.88-19.01,24.06-2.63.52-4.54,2.8-4.54,5.48,0,3.51,3.2,6.15,6.64,5.48,15.98-3.11,28.08-17.21,28.08-34.09C129.02,15.58,113.44,0,94.29,0s-33.36,14.25-34.64,32.25h-27.68c-3.36,3.58-6.57,7.3-9.62,11.16h63.38c3.15,0,5.69-2.61,5.58-5.79Zm29.39-2.79c.13-.09.23-.17.32-.24.32-.33.65-.49,0,0-.27.27-.52.67-.16.89.08.05.31-.91.5,0-.03.19-.17.09-.17,0-.21.04-.16.33,0,.33,0,.38-.45-.06-.33-.33-.29.04-.37.28-.33.65.29.47-.25-.32-.33-.49.56.16.33-.7.5-.81Zm-5.76-21.92c-.31.31-.02.41,0,.82-.82.07-.1-.49-.5-.66.03-.19.3-.14.5-.16Zm-6.59-5.56c.13.77,1.41-.12.82-1.14.19.03.29-.04.33-.16.57.64-.65,1.96-.33,2.12-.28.38-.93-.27-1.48-.16-.12-.56.6-.27.66-.66Zm-11.69-1.96c.27-.05.28.16.5.16-.11.51-.11.32,0,.82h-.5c.18-.52.02-.37,0-.98Zm-24.86,15.21c.27-.05.28.15.49.16-.12.32-.44.44-.82.49,0-.33.45-.21.33-.66Zm-32.61,15.21c.76-.1.87.45.99.98-.44-.22-.76-.55-.99-.98Zm1.98-1.31c.18.56,1.46.39,0,.49.1.51.78.43.82.98-.54-.05-.05.77-.82.82.19-.62-.16-.75.33-.98-.27-.39-.81-.51-.82-1.15,1.18-.79,2.16.32.49-.17Zm5.27,0c-.16-.18-.86.04-.17.33-.7.49-.3-.54-.98-.49,0,0,0,0,0,0,.01.15.2.12.33.16-.11.17-.38.17-.33.49-.31-.18-.12-.44,0-.65h0s0,0,0,0c.09-.17.13-.3-.17-.33.03-.13.17-.16.17-.33h.33c-.18.85.71.43.66,0,.51.2-.24.63.17.82Zm6.59,5.07c-.03.19-.17.09-.16,0-.31.41-.86-.34-.99.33-.27-.7-.23-1.12,1.16-1.14.21.4-.37.79,0,.81Zm24.37-5.4c.15-.28.58-.42.82-.16-.02.41-.61.39-.82.16Zm4.61.33c-.19.26-.55-.47-.66.33-.3.02-.34-.2-.66-.16.4-.38.57-1.25,1.32-.82.23.37-.42.61,0,.65Z"/>
      <path class="cls-1" d="m220.1,88.24c0,6.93,5.62,12.55,12.55,12.55s12.55-5.62,12.55-12.55-5.62-12.55-12.55-12.55-12.55,5.62-12.55,12.55Zm22.45,4.99c-.14.24-.25.52-.66.49-.09-.13-.17-.27-.16-.49.22-.21.61-.21.82,0Z"/>
      <path class="cls-1" d="m127.66,84.85c.57-.32-.13-.64-.05-1.28.16,0,.13-.2.16-.33.43.06.23,1.01.33,1.8-.14.03-.15-.06-.16-.16h-.27c1.64,5.18,6.48,8.93,12.2,8.93,7.07,0,12.8-5.73,12.8-12.8s-5.73-12.8-12.8-12.8-12.8,5.73-12.8,12.8c0,1.34.21,2.62.59,3.84Zm22.84-4.88c-.13.35-.87.45-1.15.16.3-.5.51-.08,1.15-.16Zm-5.43,4.74c.19.03.09.16,0,.16.07.15.14.29.33.33-.02.36-.41-.22-.82,0,.89.53-.02.05-.33.33-.56-.46.89-.3.82-.82Zm-3.62-5.07c.28-.39-.01.06,0,.33.32-.2.83-.62,1.15-.33-.03.19-.16.09-.16,0-.31.12-.12.49-.49.16,0,.07-.38.7-.17.82.2-.23.07-.02,0,.16-.42-.02-.42-.64,0-.66-.05-.23-.29-.01-.33.17-.09-.06-.26-.51,0-.65Zm-.66,9.16c.03.22.66.42.33,1.14-.48-.14-.19-.24-.16-.65-.28-.06-.31.13-.33.33-.37.38.01-.69.16-.82Zm-6.58-4.74c-.04.29-.49-.37-.82-.33.35-.15.79-.04,1.32-.33-.09.36-.95.21-.49.65Zm-.33-13.41c-.69.59.93.71-.33.81-.25-.14.04-.24-.16-.65.13-.09.27-.17.49-.16Zm-.16,2.73s.03.03.04.04c.28-.08.4-.33.79-.31.43.13-.47.27-.66.33.03.13.17.16.16.33.17-.11.17-.38.5-.33.03.14-.07.16-.16.17,0,.16.2.13.33.16-.04.21-.32.16-.33,0-.22.06-.26.29-.5.33-.12.23.17-.33-.13-.67-.01,0-.02,0-.04.01,0-.02,0-.03,0-.05-.04-.04-.1-.08-.16-.11-.45-.17.16-.17.16.11Z"/>
      <path class="cls-1" d="m247.07,165.94s-.06-.09-.09-.14c0,.08.03.13.09.14Z"/>
      <path class="cls-1" d="m227.87,242.29s0-.05.02-.07c-.06,0-.09.01-.13.02.04.02.07.03.11.05Z"/>
      <path class="cls-1" d="m165.29,128.89c-3.67-2.01-7.98-4.38-12.62-6.93,0-3.32.05-6.33.02-9.27-.22.2-.67.19-.86,0-.08.35.23.31.49.33-.4.63-.72,0-1.32.33.64-.51.03-.37-.33-.49-.31-.11.18-.25.16,0,.19-.03.14-.3.16-.49-.19-.03-.3.04-.33.16.14-.62.96-.13,1.81.16-.37-.26-.32-.34.2-.33,0-.56-.01-1.13-.03-1.69-.27-9.25-5.79-14.7-14.99-14.46-7.84.2-15.69.71-23.51,1.28-5.15.37-8.85,4.07-8.99,9.72-.26,10.5-.29,21.03.17,31.52.34,7.59,4.51,10.94,12.36,11.13,2.36.06,4.73,0,7.09,0-.18,23.09-11.13,41.18-22.41,59.3-3.83.79-7.63,1.69-11.41,2.71-.89-2.57-1.88-5.08-2.53-7.68-2.71-10.94-7.76-20.73-13.89-30.11-1.63-2.49-2.28-5.63-2.94-8.72-4.01-3.1-9.95-4.01-12.13-9.91-1.74-4.71-1.44-9.44-.87-14.52,1.1-.21,2.01-.38,2.95-.55.41.73.88,1.21.95,1.74.41,3.2.66,6.42,1.1,9.62.46,3.44,2.21,6.04,5.46,7.47,5.34,2.35,7.84,1.75,15.92,3.71,2.58,12.01,6.26,28.19,8.95,40.71.7.14.76.15,1.47.28,2.83-4.23,5.66-8.45,9.14-13.65-1.32-6.7-2.8-14.18-4.26-21.67-.93-4.76-1.7-9.55-2.77-14.27-1.33-5.92-4.27-7.74-10.06-6.56-7.55,1.55-11.12-1.37-10.95-8.96.18-7.73-2.88-11.32-10.47-11.88-2.38-.18-4.86.02-7.21.46-4.36.82-8.59,1.56-13.15,1.17-6.24-.53-11.79,4.44-12.26,10.95-.47,6.63-.34,13.34.11,19.98.31,4.52,3.99,9.99,9.01,11.79.06-.11.18-.23.25-.36.22-.03.5.67.66.16.57.05-.02.44.33.49,0,.02-.02.04-.06.05,1.04.24,2.12.34,3.24.22.76-.08,1.56.21,2.81.41,3.19,29.64-20.43,50.56-24.72,55.13.8,1.2,1.62,2.39,2.46,3.58,1.78,2.52,3.39,4.72,4.97,6.76-4.95,3.17-9.75,6.56-14.42,10.16.76,1.06,1.55,2.1,2.33,3.13.1-.04.21-.04.33.05-.01.09-.09.13-.18.14.04.06.08.11.13.17.1-.19.23-.34.55-.31-.09-.13-.17-.27-.16-.49.25-.37.37,1.19.16.65-.14.11-.3.19-.43.31,2.8,3.66,5.75,7.21,8.83,10.62,31.95-24.48,71.88-39.04,115.15-39.04,24.35,0,47.64,4.61,69.05,13.01-.12-.12-.32-.16-.28-.44.58.39.56.51,1.32.16-.03.19.04.29.17.33-.17.02-.5-.08-.85.09,4.53,1.79,8.97,3.75,13.33,5.87.12-.08.2-.2.2-.4.27-.05.29.15.5.16-.03.19-.17.09-.16,0-.34.1-.1.26,0,.5,16,7.85,30.75,17.88,43.84,29.72,2.16-2.03,4.27-4.12,6.32-6.26-.09-.03-.19-.06-.27-.07.09-.4.25-.27.52-.18,2.1-2.2,4.14-4.45,6.11-6.76-.79-.72-1.6-1.41-2.41-2.12-.21.31-.91-.05-.44.4-.07.45-.52,0-.33-.33-.71.02.28.7-.49.66.06-.45.2-.91.16-1.31-.47-.19.27-.19.33,0-.19.24-.19.41,0,.65.31-.19.34-.29.59-.23-1.82-1.61-3.67-3.18-5.54-4.71-.02.06-.02.12.02.2-.13-.11-.45-.26-.49,0-.26-.06.14-.29-.16-.33.17.07.26,0,.35-.11-4.08-3.33-8.25-6.52-12.56-9.52l.19-.44c.19-2.12.51-4.17.8-6.37-.04-.02-.09-.04-.14-.08.05-.11.11-.18.17-.22.74-5.85,1.17-12.87-1.72-25.48-3.37-14.72-7.16-28.98-14.87-41.99-.26-.43-.53-.86-.79-1.29-.25.06-.59.1-1.07-.04.11-.3.4-.42.75-.48-.38-.61-.77-1.22-1.16-1.83-.03,0-.06,0-.08.02v-.15c-1.6-2.46-3.26-4.88-4.87-7.34.63-1.88,1.2-3.55,1.88-5.58-.94-.43-1.75-1-2.64-1.17-6.65-1.3-11.36-5.92-12.12-12.4-.25-2.11-.23-4.26-.21-6.4-.92.21-.84-.58-1.46-.66.76-.53-.33-.44-.33-.82.41-.14.88-.21,1.48-.16-.04.35.04.59.31.64,0-.56,0-1.12,0-1.68-.03-2.59,0-5.19,0-8,.52-.1.96-.19,1.36-.27-.04-.09-.07-.17-.19-.18.09-.23.26-.4.49-.49-.09-.29-.64.33-.99.33-.42.34.35-.22.16-.66-.48,1-.26-1.07-.16-.16.15-.07.29-.14.33-.33.4.25.18.86.82.49-.1.43-.17.73-.04.91.54-.11,1.02-.2,1.49-.29.43.78.91,1.27.94,1.78.17,3.43.34,6.86.32,10.29-.03,4.91,2.07,8.61,6.22,11.04,2.76,1.62,5.66,3.06,8.63,4.27.54.22,1.09.42,1.64.64.21.01.4.02.56-.01,0,.09-.04.15-.09.2,3.99,1.54,8.08,2.95,12.41,4.54,2.08,6.78,3.83,13.64,5.43,20.54.15.06.41.18.37-.25-.35-.4.24.18.33.33.03.22-.84.33-.33.49-.02.04-.11.07-.22.09.18.79.36,1.57.54,2.36,0,0,0,0,.01,0,0,.01,0,.01,0,.02,2.16,9.6,4.07,19.28,6.19,28.98,1.21.57,2.87,30.52,4.75,31.4-.07.11.85.5,2.13.6-.01-.05-.02-.11-.05-.16.06.08.1.13.14.17.06,0,.12,0,.17,0,.05-.06.1-.17.17-.34.19.03.09.16,0,.16.02.08.08.13.12.19,2.88.02,6.97-1.58,6.36-10.14.23-4.87-4.76-38.02-4.96-37.55-3.95-18.2-6.5-34.86-10.26-51.58-1.62-7.18-4.88-9.31-10.68-4.8-.63.49-1.21,1.03-1.7,1.45-5.8.23-9.36-3.67-14.36-6.77,0-3.07.05-6.46-.01-9.84-.17-9.04-3.98-12.75-12.89-13.21-3.32-.17-6.49-.07-9.38,1.16.4.16.27.21.78-.08.14.52-.26.51-.33.82-.18-.03-.09-.16,0-.16-.09-.34-.78-.04-.33-.49-.27-.05-.28.15-.49.16-.05-.02-.07-.04-.09-.05-1.31.62-2.57,1.49-3.75,2.69-2.82,0-5.64-.13-8.45.02-4.58.24-8.26,2.25-10.44,5.48.04.02.09.03.17.04-1.1.76.53.81,1.32.82v.49c-.53.04-.7-.29-1.32-.17,0-.69-.34-.26-.61-.46-1.09,1.88-1.71,4.12-1.76,6.64-.15,8.28-.05,16.57.12,24.85.16,7.75,4.57,12.45,12.25,13.18,2.38.22,4.8.03,7.5.03,2.94,21.8-6.62,37.74-21.47,51.95-.61-.16-1.21-.31-1.82-.46-.41-.83-.79-1.66-.95-2.54-4.56-25.02-9.05-50.04-13.53-75.07-.74-4.13-1.56-8.09-7.65-8.91-1.72,1.06-4.07,2.5-7.36,4.53Zm-12.97-19.48c-.15.29-.37.51-.66.65-.29-.15-.89,0-.82-.49.78.29.73-.09,1.48-.17Zm-45.28,3.93c0-.16.2-.13.33-.17-.09-.29-.08-.68-.33-.81.06-.26.29.14.33-.17.45.27-.28.79.33.98-.14.25-.25-.04-.66.17Zm4.44,2.29c-.22-.07.01-1.07.66-.82.21.69-.55.44-.66.82Zm1.15.49c-.19-.03-.14-.3-.16-.49h-.49c.39-.25.61-.25.33-.82.53-.14.34.42.66.49-.07.31-.47.29-.33.81Zm6.75,1.64h-.33c.02-.45-.27-.33,0-.66h.33c.28.33-.01.21,0,.66Zm.66-13.74c-.02.27-.69-.17-1.15,0,.57-.36.4-.38.16-.98.28.57.69.52,1.15.16-.06.22-.29.26-.33.49-.03.19.04.29.16.33Zm-83.81,56.42c-.36.1-.52-.46-.49.16-.16,0-.13-.2-.16-.33,0-.16-.21-.13-.33-.16.11-.22.35-.31.66-.33-.2.53.53.13.33.66Zm2.8,5.72c-.15.12-.25.3-.33.49-.43-.04.23-.28,0-.66.53.38.86-.06.99.66-.43.05-.71-.06-.66-.49Zm7.74,4.42c.14-.13.1-.45.33-.49-.1-.47-.26.25-.5.16-.31.42.2-.64.66-.49-.04.29.16.82-.33.65.26.5.57-.28.66-.49.26.06-.14.29.16.33-.36.44-.22.58-.99.33Zm2.14-5.24c-.68.18-.91-.94-1.15-.65-.24-.07.07-.21,0-.49.35.1.68,1.06.99.66.14-.03.15.06.16.16v.33Zm11.53-.16v.49c-.24.09-.85-.19-.82.16-.34-.05.25-.44-.33-.49.31-.41.72.21,1.15-.16Zm-4.45,41.22c.16,0,.13.2.16.33.16,0,.13-.2.17-.33.32.07.13.63.66.49-.11.17-.38.17-.33.49.14.03.16-.07.17-.17.36.61-.61-.16-.83.17-.31.43.11-.6.66-.33-.1-.33-.83-.04-.66-.65Zm-5.6,9.98c.34-.07.44.11.66.16-.26.12-.25.52-.66.49v-.65Zm-.5-26.99c0,.44-.37.79-.66.49-.05-.43.23-.54.66-.49Zm-19.76,39.91c.04-.18.33-.11.33-.33.33,0,.21.45.66.33-.13.6-.68.14-.99,0Zm2.8-.65c-.53-.43-1.03-.44-1.15.33-1.24-.68,1.53-1.34,1.15-.33Zm.99,16.85c.19-.67,1.05-.08,1.15.33-.54-.17-.72.1-1.15-.33Zm0-15.54c-.26-.06.14-.29-.16-.33-.3-.09,1.01-.2,1.32,0-.21.3-.88-.19-1.15.33Zm1.81,15.86c.16,0,.13.2.16.33.12.37.92.06,1.32.16-.15.7-1.77.3-1.48-.49Zm.49-16.36c-.52-.23-.55-.04-1.15,0-.14-.13-.09-.45-.33-.49.05.7-.81-.56-1.32.16.04-.37-.04-.62-.33-.66.33-.39.55.32,1.15,0,.09.13.17.27.16.49.26-.63,1.1.08.99.33.18-.56.29-.16.33-.16,1.05-.11,2.34-2,1.15-2.94.19-.03.29.03.33.16.16,0,.13-.2.17-.33.79,1.62-.36,2.53-1.16,3.43Zm2.14,22.57h-.66c.08-.13.17-.27.16-.49h.49v.49Zm26.84-25.68c.22.05.14.41.16.66.63.24.03-.73.66-.49.46.24-.29.67.17.82-.7.63-1.74-.59-.99-.98Zm.66,4.42c-.05-.38.03-.63.17-.82.34.04.04.72.49.66-.05.22-.41.13-.66.16Zm.5-.33v-.49c.35-.07.44.11.66.16-.04.29-.28.37-.66.33Zm-2.52-9.25c-5.67,2.4-11.21,5.03-16.61,7.9,8.33-11.1,15.34-28.09,17.72-39.92,5.25,7.52,9.56,18.07,11.5,27.15-4.24,1.48-8.44,3.1-12.61,4.86Zm13.72,6.31c0-.16-.2-.13-.33-.16,0-.25.45-.54.33,0,.16,0,.13-.2.16-.33.38.39-.48.93-.99.98.28-.16.27-.61.82-.49Zm-.17.98c.07-.2.21-.34.5-.33-.03-.13-.16-.16-.16-.32,0,0,0,0-.01,0-.21.07-.26.28-.49.32-.02-.33.26-.39.49-.32,0,0,0,0,.01,0h0c.32.11.53.45-.33.65Zm7.41.66c-.63-.25,1.06-.71-.16-.66.07-.36.87-.13.99,0-.21.28-.78.2-.82.66Zm.99.49c-.47-.14-.43.23-.82.16.15-.29.31-.57.82-.49-.03.19.04.29.16.33-.03.19-.16.09-.16,0Zm.16-1.31c-.22-.44-1.27-.04-1.32-.65.44.32,1.44.1,2.14.17.03.46-1.08-.2-.82.49Zm3.62-8.99c-.31-.31-.41-.02-.82,0-.44-.18.44-.85,0-.49-.14.03-.15-.06-.16-.16v-.33c.13.08.27.17.49.16.01.28-.12.42-.33.49.11.49.35-.16.66,0-.3-.29.04-.51.33-.66-.4.59.25.13-.16.98Zm192.33,41.54c-.15-.1-.29-.2-.33,0-.29-.05.21-.57-.5-.49-.35-.35,1.1-.12.82.49Zm-6.42,3.6c-.27-.11-.27.77,0,.66-.5.39-.58-.95.17-.98-.1.15-.2.29,0,.33-.03.19-.17.09-.17,0Zm2.96-.81c-.96.1-.27-.71-.16-.98.36.18.91.19.99.65-.67.1-1.14-.51-.82.33Zm.33-2.78c.34.57,1.28.24.99.98-.46-.74-1.11.6-1.32-.49.35.08.31-.23.33-.49Zm-.66,0c.51.52-.19,1.22-.99.98-.21-.86.6-.71.99-.98Zm-1.15,4.74c-.39-.1-.75-.24-1.32-.17.08-.23,1.48-.39,1.32.17Zm-2.64-7.52c.11-.49.35.16.66,0-.05-.34-.44-.33-.66-.49.19-.54.81.69,1.15,0-.22-.4.18.26.17.33-.07.24-.21-.07-.5,0,.15.44.74.29.16.65-.37-.09.2-.26-.16-.49-.31.07-.41.35-.82.33.1-.14.2-.29,0-.33Zm.5,6.21c-.06-.25-.29.14-.33-.16-.45-.31.38.22.33-.33.28-.04.42.28.49,0,.4.25-1.21,1.06-.33,1.31-.05.39-.44-.19-.66-.16.41-.23.39-.46.5-.66Zm-10.54-12.76c-.03.19-.16.09-.16,0-.24.07.02.14,0,.33.31-.07.29-.47.82-.33-.18-.2-.14-.33.17-.33.21.7-.78.2-.66.82h-.49c-.19-.44-.1-.79.33-.49Zm20.58-31.24c.1-.15.2-.29,0-.33.08-.03.29.1.52.28.32-.59-.33-.47-.35-1.1.23.29.86.59.5.98.27.05.28-.16.49-.16-.05-.39-.57-.31-.49-.82.28.21.65.33.66.82-.29.06-.3.4-.72.34.26.22.55.48.72.64-.29.21-.43.55-.99.49.19.24.19.41,0,.66-.29-.35-.01-.48,0-.98.13.09.27.17.5.16-.36-.5-.34-.52.16-.16-.15-.92-.66.02-.99-.33.11-.12.69-.52,0-.49Zm-2.31-20.12c.23.07.56-.68.99-.33-.03.19-.17.09-.17,0-.21.04-.16.33,0,.33-.04.34-.44-.24-.66.16.13.61.57.01.82.33-.09.13-.18.26-.17.49-.37-.23-.64-.56-.99-.82-.64-.31.76.2.16-.16Zm-.82,25.68c.11-.17.38-.17.33-.49-.63-.12-.64.82-1.15.33.28-.32.94-.26,1.15-.65.09-.36.42.95-.33.82Zm-.33-4.09c-.39,0-.48-.28-.99-.16.07-.3,1.23-.66.99.16Zm-13.34-57.73c-.35-.18.46-1.14.82-.66,0,.5-.83.16-.82.66Zm2.3,3.43c.24-.25.84-.14,1.32-.16-.17.21-1.22.93-1.32.16Zm1.65-6.21v-.33h.82c.17.55-.52.26-.82.33Zm.99,1.96v-.66c.64.02,1.2.12,1.32.66-.8-.27-.44-.19-1.32,0Zm0-1.8c.34-.07.44.11.66.16-.11.15-.2.29,0,.33-.05.22-.41.13-.66.16.27-.33-.02-.21,0-.66Zm.99-.65c.03-1.04-.97-.15-1.65-.33.53-.4.15-.48-.49-.33-.1-.34-.41-.47-.33-.98.3-.05.34.15.16.16.04.21.49.22.5,0,.54.16-.18.32-.16.49.15.12.66,0,1.15.17-.07-.2-.21-.34-.5-.33.25-.35.4.12.82-.16-.46.71,1.14.55,1.15,1.31h-.66Zm3.29,50.54c.29-.31.48.07.82.16.18-.83-1.17-.15-.99-.98.45.01.33-.27.66,0-.09.37-.26-.2-.5.16-.07.27.9.27.82,0,.56.28-.46,1.94-.82.66Zm-.16-23.55c.27-.14.58-.34.38-.59-.08-.02-.1-.03-.05-.06.02.02.03.04.05.06.23.05.91.07.77.27-.03.19-.16.09-.16,0-.21.04-.17.33,0,.33-.09.37-.26-.2-.49.17-.4.35.24-.17.16-.49-.13.26-.52.24-.5.65-.38-.25-.25-.4-.16-.82-.41-.39.55.2,0,.49Zm-.82-21.1c.53.2.13-.53.66-.33-.14.24-.25.52-.66.49-.02-.47-.7-.28-.66-.82.29.44,1.01,0,.66.66Zm-2.3-8.02c.36.03.07-.58.17-.82.38.59.13-.1.82,0,.16.5-1.16.36-.5.82-.12.14-.5.2-.82,0-.13.03-.16.17-.33.16.06.22.29.26.33.49.38-.05.83-.35.49.16.62-.42,1.08.37,1.32-.33.58.04-.41.61.17.65-.05.39-.45-.18-.5-.33-.32.06-.01.75-.66.49-.12.26.78.26.66,0,.53.37-1.18.54-.99-.17.33.33.32-.07.66-.16-.06-.35-.72.03-.82.16-.1-.17-.1-.56-.82-.49-.04-.72-.48-1.05-1.15-1.14-.03-.12,1.11-.11,1.65-.49.44.36.04.54.33.98Zm-1.48-20.77c-.33.31-.76-.2-.82-.66.53-.03.71.27.82.66Zm-1.32,12.76c.13-.03.17-.16.33-.16.14.33-.55.2-.99.49.04.18.33.11.33.33.16,0,.13-.2.16-.33.19.03.14.3.16.49-.3.16-.55-.49-.66,0-.25-.27.07-.44-.16-.98.11-.13.98-.43.82.16Zm-.82-11.94c.66.21-.05.34,0,.82h-.33c-.09-.13-.17-.27-.16-.49.33.05.51-.03.49-.33Zm-.16,14.72c.22-.11-.18-.54-.16-.66.23-.47.96.38.49.66.53-.23.86-.48.99.33-.16,0-.13-.2-.16-.33-.54,0-.82.28-1.48.16v.33c-.3-.12-.03-.3,0-.49.03-.14-.07-.15-.17-.16-.39-.36.4.02.5.16Zm-1.15-.33c-.46.46.52-.06.33.49-1.27.08-1.61.4-2.8.16-.34-.57.81-.47.99,0,.26-.2.64-.52.99-.16.13-.03.17-.16.33-.16-.04-.34-.44.24-.66-.16.13-.69.66-.56.16,0,.45.12.33-.33.66-.33.19.03.09.17,0,.17Zm-.17-17.5c.33-.26-.07,1.05.17,1.14-.11.22-.44-.08-.82.16.18-.15.05-.6.49-.49-.12-.15-.3-.25-.49-.33-.44-.39.89.39.66-.49Zm-.16,15.04c-.02.42-.61.39-.82.16.02-.41.61-.38.82-.16Zm-.82,2.13c.14-.03.15.07.16.16v.33c-.45-.02-.33.27-.66,0,.09-.13.17-.27.16-.49.15.1.3.2.33,0Zm-1.15-18.32c.39,0,.49.28.99.16-.14.24-.53.24-.82.33.04.29.29.37.66.33-.11.33-.77.11-.82.49-.14.03-.15-.07-.16-.16.03-.14-.06-.16-.16-.17.04-.42.28.23.66,0-.39-.28-.67-.48,0-.65-.33-.53-.57.39-.99.33-.03-.46.47-.41.66-.66Zm-.33,3.11c.47-.14.43.23.82.16-.46.15-.81.39-1.32.49-.24-.62.74-.03.49-.65Zm-3.13-1.47c.45,0,.39.77.16.98-.41-.23-.29-.56-.16-.98Zm-14-6.21c-.03.19-.16.09-.16,0-.55.27.52.51,0,.82-.03.14.07.16.16.17-.53.34-.19-.81-.66-.82.16-.26.44-.38.66-.16Zm-12.84-4.91v-.49c.34-.07.44.11.66.16-.04.29-.28.37-.66.33Zm.99.65c.24.43,1.31-.08,1.32.16.08.59-1.34.24-1.32-.16Zm1.16,15.38c-.12-.11-.53-.69-.5,0-.22-.05-.13-.41-.16-.66.13.03.16.17.33.17.19-.03.14-.3.16-.49.53.05.15.55.17.98Zm2.63-8.67c-.39-.21-.32-.88-.49-1.31.28-.04.43.28.49,0,.28.37.02.63,0,1.31Zm.5,10.63c.71.22.2-.78.82-.65v.98c-.52-.03-.98-.11-.99-.65.14.03.16-.06.17-.16.31-.41.02.27,0,.49Zm0-27.8c.13.65-1.02,1.2-.99.33.23-.02.46-.03.49.16.39.06-.09-.75.5-.49Zm-.99-4.09c.24.07-.02.14,0,.33.66-.4.28-.17.66.33-.09.29-.64-.33-.99-.33.04-.18.33-.11.33-.33Zm-.5.49c.03-.14-.06-.16-.16-.16.41-.56.77,1.29,0,.65,0-.16.2-.13.33-.16-.09-.15-.46-.25-.16-.33Zm-.33,19.79c.22.11.31.35.33.65-.91-.18-1.62-.31-2.14-.49.3-.93,1.27.52,1.81-.16Zm-1.81-7.36h.66c.19.57-.92.76-.66,0Zm-.5-15.05c.36.03.52-.13.5-.49.22.11.3.35.33.65-.58.17-.3.28-.49.66-.36-.03-.35-.41-.33-.82Zm-.66-3.27c.25.08.01.17-.16.16.03.13.16.16.16.33-.11.41-.47-.86-.66,0,.58.33-.58-.07,0-.16.03-.14-.06-.15-.16-.16.2-.29.48.13.82-.16Zm.16.82c.07.31.47.29.33.82-.97-.16-.16-.92-1.32-.49.15-.29.51-.36.99-.33Zm-1.15,24.04c.18.24.14.79,0,1.14-.12.31-.26-.18,0-.16-.07-.14-.14-.28-.32-.32-.05.03-.08.03-.01,0,0,0,0,0,.01,0,.13-.06.43-.28.32-.66Zm-2.14-5.72c.29.02.35-.2.66-.16v.49c-.29-.04-.82.16-.66-.33Zm.33,5.89c-.26.25-.12.67.16.82.19-.15,0-.36.33-.65-.28-.06-.31.13-.33.33-.63-.48.69-.39.66-.82.31-.41.02.27,0,.49.22-.17.5-.27.66-.49.13.47-.59.48-.49,1.31-.12-.69-.3.13-.5.66-.36.39.08-.33,0-.66-.45.73-.47.02-.82.17-.4.62.27-1.07-.17-.49-.36-.11,0-.86.5-.66Zm-34.41-7.52c-.34-.43.05-.56.16-1.15-.05-.1.47.63-.16,1.15Zm.99-.98c.14-.52.66-.55,1.15-.33-.02.47-.69.3-1.15.33Zm3.78,26.99v-.82c.67-.16.67.98,0,.82Zm.83-20.45c.2-.21.06-.26,0-.49-.65.05.19.57-.5.49-.23-.37.42-.61,0-.65.02-.31.64.1.66.33.55-.05-.5-.78.33-.65-.05.28-.22.74,0,.98-.07.24-.21-.06-.49,0Zm1.48,13.74c.03-.13.16-.16.16-.33-.5-.12-.31.45-.82.33-.1-.17-.38-.17-.33-.49.13.09.27.17.49.16.16,0,.13-.2.16-.33.39-.11,1.05.69.33.66Zm0-22.57c-.2-.53.53-.12.33-.65.7.1,0,1.12-.33.65Zm1.65,1.64c-.26-.16-.66-.15-.33-.49h-.33c.04-.29.28-.37.66-.33v.82Zm-.17-2.29c.29.62.79.06.99-.33.65-.09-1.6,1.81-.99.33Zm-1.48,110.23c-.08-.35.24-.31.5-.33-.17-.22-.16-.61-.5-.66.11-.51.44-.21.82-.16-.43-.03-.32,1.13-.16.33.33.18-.14.94-.66.82Zm10.04,6.87c-.45.05.5-.77,0-.33-.45-.57.44-.16.66,0-.02.61-.64,0-.66.33Zm7.25-5.07c-.16,0-.13-.2-.17-.33-.16,0-.13.2-.16.33-.14-.1-.29-.2-.33,0-.29-.12-.02-.3,0-.49-.15.07-.29.14-.33.33-.14-.23-.15-.68.16-.98.47.02.29.7.82.65v.49Zm12.02,12.27c-.66-.21.04-.34,0-.82.73-.03.1.66,0,.82Zm7.24-9.81c-.35-.44.38-.41,0-.98.38-.11.49.69,0,.65.25.5,1.02-.7.99.33-.48-.15-.51-.15-.99,0Zm.99,5.07c.23-.05.14-.41.17-.66h.49c0,.16-.2.13-.33.16v.65c-.94.1-.56-.55-.5-1.14.18.15.11.36,0,.65.03.13.17.16.16.33Zm-.16,5.23c-.25-.14.04-.24-.16-.65.25.23.35.52.33-.16-.49-.23.38-.13.17.33.46-.49.17-.54.66.16-.21.72-.84.17-.99.33Zm18.28,5.89c.1-.3.69.28.66.66-.15.13-.37.18-.66.16-.21-.4.37-.79,0-.82Zm-1.65-14.88v.49c-.52.19-.4-.26-.66-.33.05-.22.41-.13.66-.16Zm-2.3-19.3c.36.03.35.41.33.82-.21.23-.71.16-1.15.16.04-.56,1.18-.03.82-.98Zm-6.59,33.86c-.35.2-.48.62-.99.65-.08.35.24.31.5.33-.2-.22-.07-.26,0-.49.19.03.09.16,0,.16.1.17.38.17.33.49-.22-.11-.87-.09-.99,0-.4-.15.37-.48.17-.98-.16,0-.13.2-.17.33-.29-.12-.02-.3,0-.49.15.1.3.2.33,0,.24.07-.02.14,0,.33.51.12.2-.56.82-.33Zm-1.48-48.41c.29.15.21.67.82.49.12.44-.77-.12-.66.33-.36.03-.07-.58-.16-.82Zm-4.78-3.6c.19.03.09.17,0,.17.05.22.41.13.66.16-.3-.65.43.04-.16.33-.44,0-.79-.38-.49-.66Zm-1.81-12.1c.06.28-.13.31-.33.33,0,.33.45.21.33.66-.52-.03-.98-.11-.99-.66.65.21.33-.54.99-.33Zm-1.32,1.31c.18.03.09.17,0,.16-.03.14.06.16.16.17-.31.17-.7-.06-1.16.49-.43.59.51-.83,0-.33-.26-.06.14-.29-.16-.33.73-.23.51.34,1.16-.16Zm-5.93-8.99c-.36.14-.37.62-.82.66-.24-.62.45-.32.33-.82.13.08.27.17.5.16Zm-1.48-19.14c.29.02.35-.2.66-.16v.33c.14.03.15-.06.16-.16.39.05-.19.44-.16.66-.25-.14.04-.24-.17-.66-.19.03-.14.3-.16.49-.13-.03-.16-.17-.33-.16v-.33Zm0,18.64c.31.07.3.47.82.33-.19.25-.47.4-.66.66-.28-.11-.1-.38.16-.33.2-.53-.53-.12-.33-.66Zm-1.98-10.46v-.66c.49.44.19.81,0,1.31-.38.05-.18-.47-.5-.49.03-.19.3-.14.5-.16Zm-4.45-8.02c.15.83.13.45.82.66.22.41-.65.51-.16.66-.33.63-.52-.62,0-.49-.15-.45-.37.5-.66,0,.39.87-.31-.06-.33.82-.45-.53.28-.81.33-1.64Zm-1.98-17.83c-.07.34.12.43.17.65.04.11-.91-.18-.82-.65h.66Zm-.16-14.56c-.83-.12-.04-1.01.16-1.14.27.06,0,.96-.16,1.14Zm.5-14.39c-.06.21-.95-.13-1.48,0,.06-.53,1.41-.43,1.48,0Zm-1.48,49.23c.02-.29-.2-.35-.16-.65.24.08.41.24.66.33-.02.47-.21.78-.82.65-.06-.28.13-.31.33-.33Zm-.16,7.2c.09.13.17.27.16.49-.17-.11-.17-.37-.49-.33-.03.14.06.15.16.16.05.18-.77-.01-.33.33-.07.24-.21-.07-.5,0,.2-.22.06-.26,0-.49-.27-.14.5.24.99-.17Zm-2.14,6.54h.66c.07.34-.11.43-.16.66-.43.05-.54-.23-.49-.66Zm-.82-57.41h.5c0,.16-.2.13-.33.16.03.22.69.31,0,.33-.03.14.07.16.16.17-.16.5-.44-.19-.66-.17.11-.17.38-.17.33-.49Zm.16,15.21c.52.63-.32,1.31-.99,1.31.44-.33,1.14-.39.99-1.31Zm-.16-8.67c.73.24-.09.73-.16,1.14-.13-.03-.16-.16-.33-.16-.3.45.04-.5.33,0-.07-.37-.29-.58-.66-.66.19-.38.64.23.82-.33Zm-.66,8.67c.33.33-.07.32-.16.65.7-.08.75-.79.5.16-.75.15-1.1-.75-.33-.81Zm-1.32,62.47c.19-.08.55-.11.66-.65.13.03.16.17.33.17.31-.45-.04.49-.33,0-.01.28.12.42.33.49.41.31-.27.02-.49,0,.1.22.35.31.66.33-.33.48-.86-.22-1.15-.33Zm1.15,5.07c-.14-.08-.8-.17-1.15.33-.27-.27,1.06-1.25,1.15-.33Zm-2.63-81.45c-.12.82-.99.02-1.32,0,.07-.27,1.24-.27,1.32,0Zm-.66,5.56c-.61.12.07.49-.33.82-.3-.19-.13-.86-.33-1.14.45-.35.41.37.99,0v.82c.68-.32.41-.75.33-1.31.33.05.32.44.66.49.14-.46-.23-.42-.16-.82.19-.14.44-.22.82-.16.07.34-.12.43-.16.65.07.15.14.29.33.33.32-.06.01-.75.66-.49,0,.38-.29.48-.16.98-.39.05-.68.2-.99.33-.18.47-.18-.25.17-.17-.04-.42-.29.23-.66,0,.09.13.17.27.16.49-.17-.11-.17-.38-.49-.33,0-.16.2-.13.33-.17-.12-.29-.3-.02-.49,0,.07.15.15.29.33.33-.49-.24-.94,1.15-1.65.65.39-.24.99-.86.66-1.31Zm-3.62-5.72c.53.1.23-.59.66-.16.03-.52-.44-.55-.33-1.14.16,0,.12.2.16.33.13-.08.27-.17.49-.16.02-.02.04-.02.05-.03-.14.12-.65.63-.21,1.02-.24.09-.41.24-.66.33.19.24.19.41,0,.66-.36.03-.08-.58-.16-.82Zm-2.8,0c-.02.36-.41.35-.82.33-.12-.56.57-.58.82-.33Zm-.82,36.96v-.65c.29-.02.34.2.66.16.05.43-.34.42-.66.49Zm0-30.58c.09-.24.26-.4.49-.49-.06-.23-.29-.01-.33.16-.51-.16.18-.44.33-.49,0-.16-.2-.13-.33-.16-.53-.23.67-.07.49-.49.28.11.1.38-.16.33.14.13.1.45.33.49-.21.28-.34.64-.82.66Zm.66-5.4c-.15.07-.29.14-.33.33-.42-.11.59-.54-.16-.65.43-.28.56.26,1.15.16-.02-.13-.54-.5-.5-.16-.27-.51,1.25-.12,1.32.16.51-.07-.34-.93-.33-.49-.19.47-.19-.26,0-.33.71.41.86.03,1.48,0,.14-.03.15.07.16.16v.33c-.44-.22-.63-.11-.99,0-.07.34.11.43.16.65.29-.12.02-.3,0-.49.19-.49.2.53.49.49-.37.03-1.5-.01-1.98.49-.43.05-.54-.23-.49-.66Zm1.48,1.31c.26-.58.97.13.98-.82h.49c-.19.52.26.4.33.65-.14,1.02-1.34.54-1.81.16Zm1.64,30.58c-.27.05-.28-.15-.49-.16.31,1.08-.08,1.08-.17,0,.22-.16.5-.27.66-.49.22-.3.11.5,0,.65Zm1.15-12.59c-.3.16-.55-.49-.66,0-.22-.11-.31-.35-.33-.66.03.21.72.49.33.17.14-.25.25.04.66-.17v.66Zm0-20.28c-.34-.05-.04-.72-.49-.65.11-.22.35-.3.66-.33-.2-.22-.06-.26,0-.49.27.22.07.56-.33.81.09.37.26-.2.5.17-.06.22-.29.26-.33.49Zm1.65,35.66c.33-.58,1.32-1.05.66-1.96.24-.09.4.64.49.16.12.21.15.67,0,1.15-.65-.1-.73.36-.82.82.29-.2.48-.51.82-.66.44-.04-.16.33,0,.45.05,0,.1.02.16.04-.09,0-.14-.02-.16-.04-.63-.08-.37,1.13-1.16.04Zm4.35,52.8c-.14.13.12-.94-.4-.63.07-.26.52-.14.33-.65.19.6.58.52.5-.33.64.59-.52.78-.33,1.47-.03.06-.05.09-.07.12,6.34-8.98,11.03-18.32,11.46-29.82,2.82,2.24,6.35,10.44,9.42,20.22h.44c.09.26-.09.43-.29.48.7,2.26,1.38,4.6,2.01,6.97.07-.05.14-.08.25-.09.04.28-.28.42,0,.49-.04.03-.08.06-.12.09,2.74,10.29,4.71,21.02,4.75,27.84-1.09-.64-2.21-1.25-3.32-1.87-.03.92-.33.89-.17-.1-.03-.02-.07-.04-.1-.06-.25.13-.18.58-.38.76-.13-.09-.27-.17-.5-.16-.06.28.13.31.33.33-.12.29-.3.02-.5,0,0-.39.29-.48.17-.98.16.12.25.3.33.49.31-.02-.1-.64-.33-.66.03-.15.17-.1.32-.09-6.49-3.61-13.18-6.9-20.08-9.82-3.67-1.55-7.36-2.99-11.09-4.32,2.6-3.23,5.09-6.43,7.38-9.67Zm-7.15,27.83c.08.51-.44.43-.49.82-.25-.14.05-.24-.17-.65-.19-.03-.29.04-.33.16-.13-.64.88.31.99-.33Zm-1.98-3.11c.12-.02.12-.64,0-.65-.44-.51.73.39.66,0,.26.06-.14.29.16.33-.09.47-.26-.25-.49-.17-.49.14.38.25.16.66-.19-.03-.29.04-.33.16-.33,0-.21-.45-.66-.33.18-.77.05-.67.49,0Zm-.66-8.18c-.21-.39.18.26.17.33-.22-.07-1.17.19-1.32-.49.34.29.79.36,1.15.16Zm-2.63,9.98c-.1.67-.45.33-.99.33.2-.24.56-.31.99-.33Zm-1.15-4.74c-.53-.02-.18-.1-.82.33.21.23.34.05.82,0,0,.16-.2.13-.33.16-.03.14.06.16.16.17.49.45-.88-.38-.98.16-.1-.22.45-1.18,1.15-1.15-.1.15-.2.29,0,.33Zm-.5-.66c-.55-.47-.98-.48-1.65-.16.23-.68,1.48-.51,1.65.16Zm-42.15-88.15c-.48.6.25.32.33.49.34.16-.43.14-.82,0,.06-.22.29-.26.33-.49-.56.25-1.1-.26-1.32-.82.63-.42.78.79,1.48.82Zm-1.48-.16c.56-.13-.04.94.49.16.52.07.32.71,0,.82-.48-.09.25-.26.16-.49-.15.17-.61.05-.49.49-.36-.02-.07-.7-.16-.98Zm-.99.16c-.07.31-.47.3-.33.82-.23-.01-.47-.03-.49.16-.35-.57.44-.9.82-.98Zm-24.7-40.39c.82.07-.06.51,0,.82-.66-.21.05-.34,0-.82Zm-11.69,42.69c.05.38-.03.63-.16.81-.19-.03-.09-.16,0-.16-.11-.49-.35.16-.66,0,.11-.38.3-.68.82-.65Zm-1.48,55.44c-.39.05-.63-.03-.82-.16-.01-.46.84-.3.82.16Zm-4.12-5.89c-.96-1.62,1.75-1.7,2.8-1.31-1.24.28-3.15-.19-2.8,1.31Zm4.28,22.9c-.26-.06.14-.29-.16-.33.14-.25.25.05.66-.16-.04.43-.34.53.33.49-.19-.34-.18-.35.16-.16-.12.81-.95-.16-.99.16Zm26.16-9.95c-2.33-.08-4.66-.12-7-.12-7.18,0-14.3.36-21.36,1.08,7.67-11.45,12.73-23.13,15.63-35.93,6.42,10.61,9.47,22.14,12.54,34.22.02-.01.04-.04.05-.1.18.03.09.17,0,.16-.03.14.06.16.16.16-.05.05-.09.08-.13.1.04.14.07.28.11.42Zm-10.68-39.12c.28.54-.16.53,0,.98-.06.27-.15-.27-.5-.49-.57.23.74.58-.33.49.07-.32-.11-.59-.16-.33-.22.08-.07-.81.33-.65.03.14-.06.15-.16.16.14.11.58-.08.82-.16Zm2.63-13.41h-.66c-.13-.63.79-.63.66,0Zm4.61,13.25c.02.5-.56-.47-.16-.33-.21-.31-.34.39-.82,0-.03-.79.67-.35.99-.16-.2.22-.06.26,0,.49Zm.16-.17c.22-.24-.39-1.28,0-.98.16,0,.13-.2.17-.33.4.02.03.54-.17.49.03.13.17.16.17.33.18-.15-.01-.36.33-.65.13.13.12.57,0,.82,1.04.01,2.36-.44,3.29,0,0,.16-.2.13-.33.16.03.12.06.17.1.18-1.04-.02-2.35-.46-3.56-.02Zm5.76,0c-.29-.27-1.2-.24-1.15.33-.69-.25.09-.29.16-.66-.32.27-.73.35-1.18.34.12-.02.31-.29.52-.18-.53-.2-.26-.82.33-.82-.63.42-.05.61.16,0,.24.07-.02.14,0,.33.15-.07.3-.14.33-.33.18.51.2.95.33,0,.37.51.05.4.66.17-.19.51.05.43-.16.82Zm6.42,47.43c-.12-.61.28-.7.16-1.31.16.35.65,1.39-.16,1.31Zm1.65,0c-.26-.25-.73-.73-.33-1.14.63-.13.21.77.33,1.14Zm.49-2.78c.13-.79,1.06.64.66-.49.24.14.52.25.49.66-.16,0-.13.2-.16.33-.66.17-.73-.25-.99-.49Zm.99-1.31c-.11.31-.77-.2-.99-.33-.03-.36.58-.08.82-.16-.02.23-.03.46.16.49Zm-.16,2.78c.54.17,1.01.42,1.32.82-.65-.06-1.29-.14-1.32-.82Zm2.3-3.11c.76-.5.93.51.66.82-.46-.03-.7-.29-.66-.82Zm.33,2.45c.1-.49.35.16.66,0,.05-.43-.64-.13-.49-.65.33.05.32.44.66.49.08-.52-.51-.37-.33-.98.13-.28.33.75.5.98-.25.24-.7.29-.82.65-.23-.06-.01-.29.16-.33,0-.16-.2-.13-.33-.16Zm1.64-.33c.52.14-.29.22-.49.16.5.23-.04.46.49.65-.36.39-1.07.89-1.48.33.09-.47.26.25.49.16.71-.02-.28-.7.5-.65-.12-.29-.3-.03-.5,0-.27.37.34-.87.99-.66Zm-.66-2.78c-.05-.53.19-.79.66-.82-.18.31-.23.75-.66.82Zm0,5.4c.05.38.41.77-.33.65.03-.13.17-.16.16-.33-.1-.33-.83-.05-.66-.65.14-.03.15.06.16.16-.05.29.92.29.66-.16.25,0,.54.45,0,.33Zm1.32-.98c-.48-.14.21-.41,0-.82-.45.1-.25.84-.82.82.07.55.64-.44.5.33-.89.05-.87.14-1.48-.16.03-.23.49-.06.5-.33-.04.94.65-.14.82-.81.29.31.48-.2.82.16.14.52-.26.51-.33.82Zm.99-4.42c-.31.02-.12.54-.5.49-.44.35.78-.73,0-.82-.5-.51.73.62.5-.16.24.29.04.5.16,1.15-.83.52-.07.17-.16-.66Zm18.28,12.76c.36-.58-.14.8.16.16.19.03.14.3.16.49.2-.18.34-.14.33.16-.54-.2-.97-.52-.99,0-.27.27-.04-.54.33-.82Zm-3.29-36.14c.39.6-.2-.07-.49.33-.03.36.13.52.49.49-.23.42-.85-.12-1.15-.16.21-.39.54-.67,1.15-.66Zm-5.93,36.31c0-.53.21-.92.5-1.8.16,0,.13.2.16.33.27.28.89.2,1.15.49-.27.36-.97-.23-1.32-.33,0,.5.58.41.99.49-.05.22-.41.13-.66.16.17.46.7-.04.99,0-.19.24-.19.41,0,.65.39,0,.49-.28.99-.16.25-.74-1.08.09-.82-.65.53.42,1.22-.26,1.81.16-.11.49-.35-.16-.66,0,.16.33.63.35,1.16.33-.2-.22-.07-.26,0-.49-.79.18-.7-.51-1.48-.33-.17-.55.51-.25.82-.33-.18.24-.18.4.16.49h.33c0-.16-.2-.13-.33-.16v-.82c.17-.26.26.93.5,1.15.52.21.08.34.33.81-.16,0-.13-.2-.16-.33-.86-.03-1.82.69-2.31.49-.04.22-.08.73-.33,1.14-.41-.03-.05-.55,0-.66-.24.14-.52.24-.49.66-.31-.31-.41-.02-.82,0v-.66c-.13.02-.5.54-.16.49-.02.58-.55-.35-.5.16-.41-.31.56-.63.5-1.14-.13.25-.53.24-.5.65-.33-.6-.78-1.08-.99-1.8,1.09-.13.59-.3,1.15-.65.45,0-.51,1.27,0,1.63Zm-.15-13.24c-2.82-.46-5.65-.85-8.49-1.19-.03.01-.05.03-.09.04.11.17.38.17.33.49-.13-.09-.27-.17-.5-.16.1-.12.14-.25.17-.38-.61-.07-1.22-.16-1.83-.23-1.07-4.66-2.11-9.14-3.12-13.64-3.01-13.47-7.85-26.19-14.93-38.09-1.69-2.84-2.51-6.21-4.25-10.65-3.58-3-10.31-5.43-11.62-12.13-1.08-5.52-1.01-11.26-1.31-16.92,0,.04,0,.08,0,.12-.14-.1-.29-.2-.33,0-.42-.02-.39-.61-.16-.82.27.6.25.34.46.05-.02-.3-.03-.61-.05-.91,1.71-.8,2.72-1.27,3.82-1.78.46.84.92,1.31.98,1.84.37,3.4.91,6.81.92,10.22.03,6.11,2.94,10.45,8.02,13.26,4.21,2.33,8.69,4.17,13.12,6.08,2.37,1.03,4.87,1.75,7.63,2.72,3.73,20.59,7.42,41.02,11.23,62.08Z"/>
      <path class="cls-1" d="m208.87,49.06c0-5.1,4.14-9.24,9.24-9.24-5.1,0-9.24-4.13-9.24-9.23,0,1.2-.24,2.34-.65,3.39.01.06.03.13.08.2-.08.02-.12-.01-.14-.06-1.39,3.34-4.68,5.69-8.53,5.69,5.1,0,9.23,4.14,9.23,9.24Z"/>
    </g>
  </g>
</svg>