<?xml version="1.0" encoding="UTF-8"?>
<svg id="Layer_2" data-name="Layer 2" xmlns="http://www.w3.org/2000/svg" viewBox="0 0 300 300">
  <defs>
    <style>
      .cls-1 {
        fill: #000;
        stroke-width: 0px;
      }
    </style>
  </defs>
  <g id="Layer_1-2" data-name="Layer 1">
    <g>
      <path class="cls-1" d="m169.9,12.83c1.96,2.47,3.03,5.39,3.17,8.43.21,4.65-.14,9.31-.12,13.97,0,1.59.4,3.17.66,5.13,3.57,0,7.02,0,10.47,0,18.42,0,36.83,0,55.25-.05,2.85,0,5.38.72,7.57,2.53,2.5,2.07,4.94,4.22,7.48,6.25.82.66,1.96.91,2.81,1.55,4.02,3,7.97,6.07,11.97,9.09,1.38,1.04,2.83,1.98,4.21,3.01,6.89,5.17,13.76,10.35,20.64,15.52,2.69,2.02,4.15,4.64,4.19,8.08.03,3.3-1.17,6.01-3.77,7.95-6.62,4.95-13.38,9.73-19.99,14.7-6,4.51-11.88,9.19-17.83,13.77-3.11,2.39-6.3,4.67-9.39,7.1-2.42,1.9-5.08,2.75-8.17,2.73-10.9-.07-21.8-.03-32.7-.03-15.67,0-31.34.02-47.01-.02-1.5,0-3.07-.12-4.5-.55-4.51-1.37-7.27-5.67-6.81-10.3.47-4.77,3.86-8.27,8.6-8.85,1.08-.13,2.17-.16,3.26-.16,13.08-.02,26.16-.02,39.23-.02,7.4,0,14.8-.27,22.18.1,4.53.23,9.01-.26,13.51-.16,1.2.03,2.63-.41,3.59-1.12,10.76-7.98,21.46-16.06,32.17-24.11.26-.2.57-.34.87-.52-1.76-3.33-6.62-3.53-6.9-7.78q-2.82,0-5.87-2.68v-3.12c-.89.56-1.46.93-2.25,1.43-.8-.54-1.71-1.1-2.56-1.74-5.07-3.78-10.08-7.62-15.2-11.32-.98-.71-2.34-1.22-3.54-1.25-5.77-.13-11.54-.04-17.31-.1-1.54-.01-3.35.5-4.08-1.71-.11-.34-1.31-.71-1.6-.5-.56.4-.82,1.21-1.36,2.1-.79.04-1.87.13-2.95.14-5,.02-10,.04-14.99-.02-1.29-.01-2.57-.32-3.85-.49-.41-.06-.84-.25-1.23-.18-7.79,1.33-15.62.59-23.44.49-2.28-.03-4.56.07-6.84.05-4.7-.05-8.01-3.61-9-6.88-1.32-4.34.09-8.32,3.89-11.23.34-.26.7-.5.69-.49.63-2.83,1.19-5.31,1.74-7.78,1.1-.29,2.63-.08,2.44-2.33-1.19.69-2.39.9-2.37,2.4-.41-1.2-1.03-2.36-1.19-3.59-.21-1.61.01-3.27-.08-4.9-.19-3.27-2.35-5.4-5.38-5.4-3,0-5.22,2.18-5.26,5.46-.08,6.1-.03,12.21-.03,18.31,0,21.12,0,42.25,0,63.37,0,14.6-.02,29.21-.03,43.81,0,.87.02,1.75-.06,2.61-.25,2.59-1.73,3.36-4.04,2.13-2.67-1.42-3.77-1.21-6.21,1.25,1.8.28,3.64.29,5.24.9,1.67.64,3.12,1.88,5.09,3.12v9.35c0,22.57,0,45.13,0,67.7,0,16.56.01,33.13-.02,49.69,0,1.62-.11,3.28-.48,4.85-1.04,4.44-4.99,7.41-9.57,7.39-4.57-.02-8.48-3.02-9.51-7.47-.34-1.47-.46-3.02-.46-4.53-.03-23.66-.04-47.31,0-70.97,0-3.8.27-7.6.52-11.4.05-.8.53-1.58.7-2.04-.44-1.42-1.12-2.63-1.16-3.87-.15-4.14-.17-8.29-.05-12.42.06-2.24.36-4.5.87-6.68.17-.74,1.24-1.42,2.05-1.83,1.65-.83,2.68-2.04,3.28-3.91-2.82-1.59-3.54,1.87-5.67,2.11-1-1.31-.49-2.75-.3-4.33h3.84c-.3-2.57-.39-2.61-3.67-1.16-.82-3.15-.35-6.24-.39-9.47,3.36,0,6.34-.34,8.37-3.86-1.59.37-2.78.7-4,.92-3.79.68-4.43.16-4.43-3.68,0-18.21,0-36.41,0-54.62v-3.72c-2.76.18-5.08-.39-7.6-.24-7.17.4-14.37.11-21.57.08-.19,0-.39-.18-1.01-.48-.21-2.08-.4-4.42-.68-6.75-.28-2.26.91-4.57-.25-6.82-1,4.57-.04,9.27-.96,14.18-1.15,0-2.21,0-3.27,0-7.09,0-14.17.07-21.26-.04-2.1-.03-3.77.57-5.38,1.83-3.26,2.55-6.6,5.01-9.91,7.49-.86.65-1.77,1.24-2.62,1.83-1.59-.46-2.57-1.19-2.99-2.77-.15-.57-1.14-.91-1.88-1.45q-.82,3.44,2.02,5.28c.32,1.56-1.05,1.99-1.93,2.66-4.06,3.11-8.17,6.15-12.26,9.23-.86.65-1.71,1.33-2.72,2.12.76.66,1.38,1.26,2.06,1.77,10.18,7.68,20.39,15.32,30.53,23.04,1.48,1.13,2.97,1.57,4.8,1.56,13.4-.05,26.8-.03,40.2-.03,2.45,0,4.64.39,6.56,2.26,1.54,1.5,1.59,3.2,1.58,4.98,2.4,1.12,2.76,1.76,2.46,4.17-.56,4.49-4.34,8.1-9.14,8.32-4.46.21-8.93.1-13.4.1-10.9,0-21.8-.06-32.7.04-3.44.03-6.32-.96-9.05-3.04-12.91-9.85-25.89-19.61-38.85-29.39-2.52-1.9-5.13-3.69-7.61-5.65-5.62-4.46-5.59-11.82.11-16.2,4.04-3.11,8.19-6.09,12.35-9.04.58-.41,1.52-.31,2.54-.48-.39-1.31.48-2.14,1.58-2.9,3.37-2.36,6.71-4.76,10.01-7.11,1.73.46.63,3.24,2.91,3.17,1.9-2.05-.62-2.89-1.29-4.07.72-2.26,2.49-1.22,4.05-1.4-.63-1.92.59-2.83,1.82-3.75,4.54-3.39,9.09-6.78,13.6-10.2,2-1.51,4.23-2.19,6.7-2.2,9.05,0,18.1-.05,27.14.05,1.38.01,2.76.69,4.56,1.17,1.88-2.17,4.97-1.1,7.79-1.09.84,0,1.67,1.08,2.83,1.89-.27,0,.05.09.14-.01,1.75-2.01,4.03-2.1,6.47-2.03,4.34.12,8.69.03,13.39.03.05-1.33.13-2.49.13-3.64,0-14.61-.03-29.22.04-43.82,0-2.02.51-4.05.78-6.06.07.72.15,1.44.25,2.46,2.16-1.69-.26-1.66-.27-2.42-.03-1.35-.36-2.77-.03-4.03,2.42-9.34,8.15-15.82,17.47-18.46,9.36-2.65,17.88-.6,24.92,6.3,1.59,1.56,2.66,3.64,3.96,5.49-.78.25-1.57.49-2.77.87,2.09,1.19,2.38.11,2.69-.94ZM50.41,102.15c-1.98-1.02-2.27.23-2.55,1.75q1.69.07,2.47-1.86c.64-.87,2.36-1.08,1.84-3-1.5.72-2.11,1.63-1.76,3.1Zm45.02,58.06c2.55-.2,3.56-1.4,4.14-3.12.59-1.74,1.19-3.48,1.75-5.23.05-.17-.09-.4-.18-.76h-1.11c-1.57,3.11-2.95,5.85-4.6,9.11ZM24.64,116.58c.18-.23.36-.46.54-.69-1.09-1.11-2.26-2.15-3.24-3.35-1.27-1.56-2.64-1.62-4.42-.67,1.88,2.65,4.2,4.19,7.11,4.71Zm111.07,64.54c.84-2.07.29-3.52-.54-4.74-.36-.52-1.46-.73-2.21-.71-.38,0-1.14.97-1.04,1.27.39,1.17.93,2.34,1.67,3.32.35.47,1.26.53,2.12.86Zm.77-110.97c.73-2.25.8-4.32.39-6.6-2.95,2.03-3.01,3.11-.39,6.6Zm-5.99,40.17l-.73-.25c-.77,1.15-2.07,2.11-1.68,3.76.19.81.91,1.48,2.11.84.1-1.42.2-2.88.3-4.35Zm-84.23-11.95c.66-1.09,1.35-1.89,1.61-2.81.15-.53-.3-1.32-.66-1.88-.14-.23-1-.34-1.1-.2-.32.46-.65,1.07-.6,1.59.1,1.03.45,2.04.76,3.29Zm94.76-23.25c-.57-.97-.93-1.56-1.48-2.49-1.17,1.86-2.21,2.75-2.09,4.95,1.43-.99,2.44-1.69,3.57-2.47Zm-3.47,49.79c.75-.56,1.46-.83,1.65-1.3.23-.6.13-1.39-.03-2.05-.06-.24-.96-.55-1.06-.44-.46.51-.96,1.12-1.1,1.76-.11.51.28,1.13.54,2.03Zm-40.02,40.59c-.26-1.22-.46-2.44-2.06-2.37-.25.01-.73.85-.65,1.21.32,1.42,1.17,2,2.71,1.16ZM23.45,119.79c-.28.06-.55.12-.83.18.04.73-.21,1.74.18,2.12.78.78,1.71.51,2.41-.7-.59-.54-1.18-1.07-1.76-1.6Zm240.19-58.85c-.16,0-.33.02-.49.03v2.87c.16,0,.33,0,.49-.01v-2.89Zm-112.44-4.67q1.34-1.8-.47-2.81c.19,1.11.33,1.96.47,2.81Zm-16.26,137.82c-.65-.43-1.14-.98-1.42-.88-.51.17-.89.72-1.33,1.11.45.39.87,1.04,1.35,1.09.35.04.79-.71,1.39-1.32ZM28.77,109.73q-1.33,1.42.17,3.11c.8-1.14.6-2.09-.17-3.11Zm12.85-11.37c-.74-.29-1.21-.67-1.56-.57-.36.1-.59.65-.87,1.01.37.26.78.76,1.11.72.38-.05.71-.58,1.32-1.15Zm85.27,94.37c.15-.25.3-.5.45-.75-.41-.14-.86-.45-1.22-.36-.51.13-.99.51-1.4.88-.05.05.45.95.58.92.55-.12,1.06-.44,1.58-.68Zm2.95,48.15c.41-.57.83-.92.78-1.14-.11-.44-.49-.81-.76-1.2-.32.31-.9.6-.91.92,0,.38.46.78.89,1.43Zm-20.23-151.01c.81,1.55,1.49,1.33,2.54,0h-2.54Zm-21.26,65.64h.84c-.05-.53-.1-1.08-.17-1.62,0-.01-.52,0-.53.05-.08.52-.1,1.05-.14,1.57Zm121.16-34.28c.38,0,.76,0,1.14,0-.03-.59-.05-1.18-.13-1.76,0-.03-.79-.03-.8.05-.12.56-.15,1.13-.2,1.71Zm-74.06,63.67c.19-.33.33-.56.47-.8-.26-.14-.53-.41-.76-.38-.2.02-.35.39-.53.61.23.16.47.33.82.57Zm-7.76-.96c-.17-.21-.35-.43-.53-.65-.11.13-.35.3-.32.39.07.25.25.47.39.7.13-.13.27-.25.46-.44ZM35.17,105.11c-.13-.12-.26-.33-.4-.34-.15-.01-.32.16-.48.25.18.16.36.33.54.49.11-.13.23-.27.34-.4Zm95.6,81.67c.37-.26.67-.42.66-.47-.1-.28-.27-.53-.42-.79-.07.36-.14.72-.24,1.26Z"/>
      <path class="cls-1" d="m173.42,221.2c0,22.88,0,45.77,0,68.65,0,5.61-4.04,9.87-9.47,10.06-5.42.19-9.85-3.78-10.32-9.27-.06-.65-.02-1.31-.02-1.96,0-30.52-.01-61.03.03-91.55,0-2.47-.46-5.02.86-7.38.22-.4.24-1.21-.02-1.54-1.19-1.56-.84-3.34-.84-5.04-.03-10.14-.03-20.27-.01-30.41,0-4.44,1.89-7.8,6.03-9.63,6.18-2.73,13.1,1.37,13.74,8.09.1,1.08.06,2.18.06,3.27,0,22.23,0,44.47,0,66.7h-.01Zm-4.03,22.25q-.66,3.07,2,2.12c-.75-.79-1.38-1.46-2-2.12Zm-9.29-43.81c-.61-1.31-1.38-1.36-2.3-.8-.11.07-.08.37-.16.8h2.46Z"/>
      <path class="cls-1" d="m118.14,288.32c.08,5.98-2.52,9.5-6.79,11.15-4.42,1.71-12.27-1.8-12.86-7.8-.23-2.37-.64-4.75-1.22-7.07-1.29-5.22-3.79-9.67-8.28-12.9-3.63-2.61-5.53-6.08-4.36-10.73,1.62-6.44,8.76-9.73,14.42-6.23,3.1,1.91,5.99,4.42,8.41,7.15,6.91,7.81,9.76,17.32,10.67,26.44Z"/>
      <path class="cls-1" d="m196.03,263.29c1.92.13,4.45.24,5.61,3.08,4.39,1.77,3.87,5.5,3.51,9.07-.19,1.91-1.28,3.44-2.77,4.66-3.57,2.93-5.14,6.86-5.73,11.32-.63,4.73-4.23,8.12-8.94,8.54-4.59.41-8.98-2.47-10.27-6.91-.39-1.33-.58-2.82-.4-4.18,1.08-8.05,3.84-15.41,9.49-21.43,2.38-2.54,5.27-4.21,9.5-4.15Z"/>
    </g>
  </g>
</svg>