<?xml version="1.0" encoding="UTF-8"?>
<svg id="Layer_2" data-name="Layer 2" xmlns="http://www.w3.org/2000/svg" viewBox="0 0 300.25 300">
  <defs>
    <style>
      .cls-1 {
        fill: #000;
n        stroke-width: 0px;
      }
    </style>
  </defs>
  <g id="Layer_1-2" data-name="Layer 1">
    <g>
      <path class="cls-1" d="m185.42,1.01c2.57.44,5.17.78,7.72,1.32,8.74,1.84,16.4,5.81,22.92,11.92,1.14,1.07,2.67,2.09,1.86,4.39,2.16-.73,3.05.76,4.03,2.1,6.2,8.44,9.49,17.9,9.76,28.35.15,5.6-1.33,10.96-3.42,16.1-1.18,2.9-1.97,5.98-4.36,8.41-1.23,1.25-1.16,3.68-2.16,5.28-4.57,7.29-9.05,14.66-14.07,21.63-5.16,7.16-10.97,13.85-16.4,20.82-3.99,5.13-12.3,5.28-16.76-.09-10.1-12.16-19.93-24.51-27.9-38.2-2.88-4.95-5.62-10.04-7.84-15.31-2.48-5.87-4.7-11.93-4.47-18.5.23-6.57,1.66-12.76,4.29-18.88,4.05-9.44,10.52-16.49,18.99-21.9,1.54-.98,3.41-1.43,5.14-2.11.4-.16.94-.12,1.24-.38,4.16-3.48,9.28-3.75,14.3-4.39.84-.11,1.66-.37,2.49-.56,1.55,0,3.1,0,4.64,0Zm-2.53,97.64c3.94-5.39,7.47-10.05,10.83-14.84,5.21-7.42,10.15-15.03,13.92-23.3,1.27-2.79,2.41-5.75,2.91-8.75.96-5.77-.75-11.16-3.8-16.02-7.21-11.51-19.6-14.71-29.03-12.97-14.94,2.76-27.96,20.61-19.68,36.76,3.17,6.18,6.47,12.33,10.21,18.18,4.44,6.94,9.43,13.53,14.64,20.94Zm25.56-67.66c-.61,1.46-1.32,2.93.29,4.26-.1-1.42-.19-2.84-.29-4.26Zm-59.2-1.7c.99.84,1.83,1.52,2.91.54.2-.18.22-.95.02-1.13-.96-.92-1.91-.78-2.93.6Zm49.71-10.39c.27-.36.58-.6.59-.84,0-.19-.42-.59-.55-.55-.26.07-.57.36-.62.62-.04.18.32.44.59.77Z"/>
      <path class="cls-1" d="m201.81,144.67c2.16-2.38,4.17-4.56,6.16-6.76,8.2-9.13,16.42-18.24,24.57-27.4,2.69-3.02,5.86-4.59,9.96-4.09,2.66.32,4.94,1.44,6.53,3.54,4.87,6.43,9.62,12.96,14.4,19.46.18.25.21.62.33,1.02-.85.47-1.71.94-3.11,1.71,1.4,1.19,2.44,2.06,3.58,3.02,0,1.34,0,2.77,0,4.19,0,.99.29,1.86,1.5,1.63,1.08-.21,1.2-.93.95-2.02-.35-1.53-.37-3.15.05-4.9.76.9,1.56,1.75,2.26,2.69,9.47,12.78,18.93,25.56,28.37,38.36.78,1.06,1.57,2.17,2.07,3.37,1.57,3.78.81,7.31-1.32,10.71-5.69,9.09-11.31,18.22-16.95,27.33-9.07,14.66-18.14,29.32-27.22,43.98-1.8,2.91-3.72,5.75-5.38,8.74-3.19,5.76-8.04,7.85-15.15,5.65-22.04-6.82-44.14-13.44-66.22-20.15-2.96-.9-5.91-1.81-8.83-2.83-1.89-.66-3.47-.52-5.28.56-24,14.34-48.04,28.59-72.08,42.87-.85.51-1.71,1.02-2.57,1.52-6.03,3.47-10.62,2.72-15.29-2.56-5.13-5.79-10.23-11.61-15.33-17.43-10.28-11.71-20.57-23.41-30.82-35.15-3.91-4.48-7.71-9.07-11.58-13.59-.43-.5-.99-.87-1.47-1.32-4.36-4.16-5.12-9.21-2.13-14.42,5.55-9.68,11.12-19.36,16.68-29.03,7.43-12.93,14.87-25.86,22.31-38.79.49-.85,1.04-1.67,1.7-2.72,1.18.69,2.21,1.42,3.34,1.9,1.11.47,2.32.7,3.49,1.02,4.54,1.27,7.3.3,9.75-3.44-11.22,2.39-12.06.17-14.42-2.93.33-.75.67-1.66,1.13-2.5,1.56-2.8,3.13-5.59,4.77-8.35,4.02-6.75,11.27-7.96,17.06-2.67,5.22,4.77,10.24,9.75,15.34,14.64,6.54,6.27,13.09,12.54,19.64,18.8.47.45.99.85,1.06.9,4.07-3.79,8.15-7.35,11.94-11.2,7.68-7.79,15.19-15.75,22.8-23.61,2.69-2.78,5.32-5.61,8.18-8.21,3.89-3.55,9.69-3.25,13.52.26,1.24,1.14,2.98,1.71,4.4,2.68,9.22,6.29,18.42,12.62,27.63,18.92,3.17,2.17,6.36,4.32,9.7,6.6Zm-161.68,23.54c1.95-1.64.93-3.96,1.34-5.95,0,0-.07.08-.07.08.29-.33.65-.61.86-.99,1.3-2.33.45-3.81-2.19-3.77-1.61.03-3.22.16-5.33.27.48,1.27.56,2.65,1.24,3.08,2.79,1.75,3.63,4.45,4.24,7.36-.49.19-1.37.33-1.39.56-.14,1.26-.24,2.58,0,3.82.17.9.88,1.7,1.52,2.85,1.34-1.84.63-3.2.41-4.52-.15-.94-.41-1.86-.63-2.79Zm52.12,9.57c-9.7-9.31-19.62-18.83-29.8-28.6-1.67,2.91-3.05,5.42-4.53,7.86-.44.72-1.11,1.8-1.71,1.83-1.95.09-2.76,1.65-4.03,2.61-.75.57-1.43,1.23-2.1,1.82-1.26-1.01-2.8-1.21-2.84-3.15-.03-1.71,1.04-2.45,2.13-3.17-.98-1.93-2.06-2.59-3.23-1.92-1.2.69-1.21,1.47-.74,2.97,1.24,4,1.88,8.18-2.19,11.13,1.01,2.93,3.3,2.91,6.26,2.55-1.89,3.28-3.46,6.03-5.06,8.77-.33.57-.69,1.51-1.13,1.56-2.06.25-1.82,1.83-2.14,3.16-.12.51-.45.97-.79,1.66-1.07-.33-2.06-.64-3.28-1.02.04.62-.13,1.31.14,1.62,1.78,2.08,1.22,3.99-.16,5.96-.63.9-1.1,1.91-1.65,2.87-3.96,6.89-7.92,13.77-11.99,20.84,14.52,16.49,28.84,33.03,43.66,49.65.44-1.27.73-1.98.94-2.71,2.86-9.95,5.71-19.9,8.55-29.85,4.03-14.11,8.07-28.23,12.04-42.36.53-1.88,1.32-3.38,3.33-3.95-2.87-3.47.53-6.34.31-10.14Zm71.6-33.07c.18,29.26.35,58.05.52,87.04,1.06.36,2.08.72,3.11,1.04,6.75,2.08,13.52,4.1,20.25,6.24,1.25.4,3.01.17,3.41,2.09.03.13.58.32.73.23,1.67-1.06,3.19-.07,4.7.38,7.73,2.29,15.43,4.65,23.15,6.96.66.2,1.36.21,2.08.32,0-.41.03-.53,0-.63-8.85-27.07-17.69-54.15-26.61-81.2-.38-1.14-1.35-2.3-2.36-3-8.9-6.17-17.86-12.24-26.81-18.33-.51-.34-1.09-.58-2.16-1.14Zm76.41-11.25c-8.46,9.44-16.68,18.63-24.85,27.76,8.67,26.38,17.24,52.47,26.06,79.32,12.08-19.53,23.79-38.44,35.53-57.43-12.27-16.58-24.42-32.99-36.75-49.65Zm-97.42,17.12c-1.02.81-1.48,1.1-1.85,1.48-8.75,9.07-17.5,18.14-26.19,27.26-.72.76-1.23,1.84-1.53,2.86-7.73,26.97-15.42,53.95-23.1,80.93-.17.6-.18,1.25-.33,2.41,18.16-10.77,35.89-21.28,53.51-31.73-.17-27.67-.34-55.05-.51-83.21Zm-81.96-10.4c3.41-.83,6.13.26,8.48,2.51.08.08.15.17.24.22,1.71,1,2.99.54,3.4-1.4.22-1.01.04-2.1.04-3.36-2.26.9-4.01,1.65-6.01-.18-1.47-1.35-4.67-.13-6.15,2.21Zm-9.82,16.97c1.63.62,2.83,1.08,4.23-.41-.92-.74-1.69-1.35-2.61-2.08-.63.97-1.03,1.58-1.63,2.49Zm191.77-24.14c.37-.75.7-1.11.66-1.41-.05-.34-.42-.63-.66-.94-.28.23-.81.48-.79.68.04.43.37.83.79,1.66Zm-169.05,2.81c.37-.01.73-.03,1.1-.04-.06-.81-.12-1.61-.19-2.42-.25,0-.5,0-.74,0-.06.82-.11,1.63-.17,2.45Zm6.6,108.92c-.44-.42-.67-.8-.86-.78-.35.03-.68.3-1.01.47.18.23.34.64.54.66.35.03.72-.17,1.34-.34Zm-50.16-56.77c-.24-.34-.39-.56-.55-.78-.19.19-.44.35-.56.58-.05.09.17.47.27.47.24,0,.47-.14.83-.27Zm207.88-63.77c-.3-.04-.58-.13-.84-.1-.09.01-.14.33-.21.51.26.08.53.18.79.2.06,0,.14-.33.25-.61Z"/>
      <path class="cls-1" d="m182.96,64.06c-6.61.24-14.21-5.63-14.14-14.12.07-7.81,6.27-14.17,14.07-14.27,7.77-.11,14.47,6.6,14.35,14.37-.12,7.82-6.45,14.04-14.28,14.02Z"/>
      <path class="cls-1" d="m51,168.66q-.2-3.05,2.08-3.42c-.73,1.2-1.29,2.11-2.08,3.42Z"/>
      <path class="cls-1" d="m41.47,162.26c-.63-.12-1.27-.23-2.07-.38q1.18-.68,2,.46s.07-.08.07-.08Z"/>
    </g>
  </g>
</svg>