<?xml version="1.0" encoding="UTF-8"?>
<svg id="Layer_2" data-name="Layer 2" xmlns="http://www.w3.org/2000/svg" xmlns:xlink="http://www.w3.org/1999/xlink" viewBox="0 0 449.18 449.18">
  <defs>
    <style>
      .cls-1, .cls-2 {
        fill: #fff;
      }

      .cls-2 {
        fill-rule: evenodd;
      }

      .cls-3 {
        fill: none;
      }

      .cls-4 {
        fill: #6b3e0a;
      }

      .cls-5 {
        clip-path: url(#clippath);
      }
    </style>
    <clipPath id="clippath">
      <path class="cls-3" d="M416.4,341.24c-31.15,51.24-80.4,87.27-138.66,101.47-17.77,4.33-35.73,6.47-53.56,6.47-40.64,0-80.63-11.12-116.24-32.78-51.24-31.16-87.27-80.4-101.47-138.66-14.19-58.27-4.85-118.57,26.31-169.8C63.94,56.7,113.18,20.67,171.44,6.47c58.27-14.2,118.57-4.85,169.8,26.31,51.24,31.15,87.27,80.4,101.47,138.66,14.2,58.26,4.85,118.57-26.31,169.8Z"/>
    </clipPath>
  </defs>
  <g id="Layer_1-2" data-name="Layer 1">
    <path class="cls-4" d="M172.42,237.68c20.49-7.26,39.78-1.68,57.43,9.45,3.54-4.21,6.01-8.9,9.59-13.15,18.54-22.04,41.14-26.75,68.08-17.95,28.77,9.4,54.95,34.98,84.87,13.17,4.72-3.44,7.05-8.38,12.15-10.89,2.89,0,3.01,5.82,3.03,7.83.24,17.38-8.8,43.99-18.71,58.25-27.54,39.65-87.46,49.83-129.19,28.09l-16.63-10.8c-19.63,49.58-87.18,76.44-135.13,52.41-16.21-8.13-35.55-26.94-44.27-42.82-1.21-2.2-4.16-6.95-1.99-9.15,5.59-1,10.39,2.83,16.23,3.73,46.07,7.05,54.72-54.05,94.56-68.16Z"/>
    <path class="cls-4" d="M224.18,449.18c-40.64,0-80.63-11.12-116.24-32.77-51.23-31.16-87.27-80.41-101.47-138.67-14.2-58.26-4.85-118.56,26.31-169.8S113.18,20.67,171.44,6.47c58.26-14.2,118.56-4.85,169.8,26.31,51.24,31.16,87.27,80.41,101.47,138.67s4.85,118.56-26.31,169.8-80.41,87.27-138.67,101.47c-17.77,4.33-35.73,6.47-53.56,6.47ZM224.58,21.07c-15.9,0-32.05,1.88-48.17,5.81C67.39,53.44.31,163.74,26.87,272.76c22.64,92.9,106.08,155.35,197.72,155.35,15.9,0,32.05-1.88,48.17-5.81,52.81-12.87,97.45-45.53,125.7-91.97,28.24-46.44,36.71-101.1,23.84-153.92h0c-22.64-92.9-106.08-155.35-197.72-155.35Z"/>
    <g class="cls-5">
      <path class="cls-1" d="M39.17,333.58c-.27-.91-.17-3.85-.64-3.5.49,1.54-1.26,3.38.64,3.5Z"/>
      <path class="cls-1" d="M44.87,241.89c-.47-.06-1.17.11-1.27-.32.28-.55,1.39.23.64-.32-.32-.44-.52.13-.95-.63-.97.68-2.2-.57-3.17.63,1.7.78-1.07.8.95,1.59.07-.25,0-.63.32-.64.42-.8-1.25-1-.32-1.27.27.45,1.57,2.08.32,1.27v.95c1.17-.51,2.53.11,3.17-.32-.99-1.24.65.33.63-.32-.25-.07-.37-.27-.32-.63ZM43.6,242.52c-.14-.48-.4.13-.95,0-.47-.38-.37-1.33-1.27-1.28.61-.99,1.14.74,1.59.96.75-.1-.35-.86-.63-.96.08-.82.54.44,1.26,0-.78.75.47.59.32,1.59-.27.06-.3-.13-.32-.32Z"/>
      <path class="cls-1" d="M37.9,350.14c-1.34.39-.75-.2-.95.95-.29-.87-2.38-.53-1.58-.32.06.39.35.2.63,0,.14.61.68.8.63,1.59-.17,0-.36.25,0,.32-.05-.43,1.62-.63.64-.95-.17.91-.47-.52-.64-.64.56.6,2.37-.31,1.58,0-1.12-.03.68-1.06-.31-.95Z"/>
      <path class="cls-1" d="M26.81,242.84c-.33.72-1.99.12-2.85.32-.07-.6.21-3.15-.31-2.23.38,1.45-.87,1.25-.64,2.54.89.43,4.81,0,3.8-.63Z"/>
      <path class="cls-1" d="M17.62,284.55c.28.94.47-.73,1.27-.32-.02.41-.4.44-.31.95,1.13.51,1.93-.1,2.53.32.57.86-1.4.62-.32.96,1.3-.75,1.35-.23.32-1.59,1.31.26,1.19-.93,1.9-1.28-.62.09-.63-.42-.95-.63v1.59c-.66-1.07-1.19,1.23-1.58.32.1-.75.98-.71,1.27-1.28-.44-.01-.7.15-.96.32-.07-.25,0-.63-.31-.64.78.92-1.23,2.56-1.59,1.28.37-.05.9.06.96-.32-1.21-.47-2.68.18-2.23.32Z"/>
      <path class="cls-1" d="M12.87,282.95c0-1.06-1.28-.84-1.59-1.59-.93.31-1.17.48-1.58.64.42,0,.29.56.63.64-.04-1.14.81.03,1.58-.64-.65.63,0,1.36.64,1.59.39-1.03-1.03-.24-.64-1.27.46.07.54.52.95.63Z"/>
      <path class="cls-1" d="M109.5,38.1c-.32.43-.52.97-.95,1.28.09-.65-.92.06-.95.32,1.85.16,2.15-1.64,3.49-.32.31-1.26-.92-.99-1.59-1.28Z"/>
      <path class="cls-1" d="M108.87,135.53c.42,0,.29.56.63.64.01-.44-.14-.7-.32-.95.91-.06,1.89-1.68,1.59-1.91-.09.3-.86.3-.95,0,.29-.34,1.17-.1.95-.96-.25-.07-.63,0-.63-.32.17,0,.36-.25,0-.32-.32.99-.52-.69-.95-.63.34,1.69.68,1.42.63,3.5-.46.18-.77.5-.95.96Z"/>
      <path class="cls-1" d="M56.25,378.51c.43.2.1,1.17.66,1.24.03-1.31,1.72-.95,2.54-.63.12-.34.38-.76,0-.32-1.96-1-2.17-.21-3.2-.29Z"/>
      <path class="cls-1" d="M54.06,324.03c.07.25,0,.63.31.64-.42-1.52.32-1.21,1.21-1.14-.29-1.15-1.17-.49-1.84-.13-.1-.56,1.49-.98.63-1.27-.07.38-.35.2-.63,0-.57,1.54-.86,4-.64,5.73.88-.71-.4-3.59.96-3.82Z"/>
      <path class="cls-1" d="M60.08,379.11c-1.18.64-2.13.92-2.86.63.09.66.85.63,1.27.96,0-.82,2.58-1.83,1.59-1.59Z"/>
      <path class="cls-1" d="M373.74,262.89c.84-.74-.84-.85,0-1.59-.73.1-1.6.68-.95-.32-.47.05-1.17-.12-1.26.32.93.04.12,1.29-.31,1.59-.04-.39-.1-.75-.64-.63-.39,1.58,2.55.73,1.59,0,.6.07.7-.35,1.27-.32.7.46-.4.78.32.95Z"/>
      <path class="cls-1" d="M360.44,136.81c.59.61-.19.58,0,1.59.73.28.85.28,1.58,0,.19,2.61,2.49,1.12,3.8,2.55.88-.76.52-.71,0-.96.63-.6,1.35-.3,1.59-.64.13-2.01-2.1-5.65-4.44-5.73-2.56-.09-2.51,2.06-3.48,4.14,1.13.49.2-1.08.95-.95ZM364.55,135.22c.11.54-.25.6-.63.63.94.56,2.21-.16,1.26,1.28.28-.14.57-.28.64-.63.84.96,1.11,1.79.63,2.86-.8-.25-.81-1.31-1.27-1.91-.45,1.14-1.12-.58-2.85,0v-.63c-1.02,1.36,2.35,1.02,2.53,2.23,1.48-.17-.61.14-1.59.32-.2-.32-.72-.33-.63-.95.25.17.51.33.96.32-.61-.56-1.49-.84-2.23-1.28.28-.88-.23-1.04-.63-2.23,1.24-.63,2.65-.86,3.8,0Z"/>
      <path class="cls-1" d="M364.55,142.86c.53-.74,1.41-1.13,2.22-1.59.13.77-.58.69-.32,1.59,1.56.02-.12-2,.63-2.23-1.43.25-2.12,1.27-3.8,1.27-.52-1.28-1.17-2.43-2.22-3.18.12.83-2.19-.61-1.26.32.8-.34,1.52,1.19.32.95,0-.32.25-.37.32-.64-1.03-.39-.25,1.03-1.27.64.73,1.92.7.56,1.58.96-.86-.97.73.87.63,0-.35-.29-.09-.59-.31-1.59h.63c-.92.98.97.98-.32,1.59.42.32,1.18.3,1.27.95-.69-.06-1.01.27-.95.96h.64c.19-.02.37-.04.31-.32-.24-.07-.63-.01-.63-.32,1.38-.05,2.77-.11,2.53.64Z"/>
      <path class="cls-1" d="M396.87,337.4c.03.55-.07.99-.31,1.28,2.15-1.56-2.14-1.8,0-3.5-.92-.05-1.45,1.91-.95,2.23.18-1.69.6,1.96,1.27,0Z"/>
      <path class="cls-1" d="M331.28,263.85c.07-.35.35-.49.64-.63.42.1.6.45,1.26.32.1-.74-.05-1.23-.32-1.6-.76-.13-.69.58-1.58.32.09-.65.86-.62.95-1.27-1.09.16-1.91.67-2.54-.64h1.59c-.72-1.12.67-1.05,0-1.91-.56.39-1.84.06-2.22.63.63.77,1.35-.53,1.59.64-.87.64-2.06-.52-2.53-1.28-.97,1.38,1.72,2.25,1.26,3.19.07-.35.35-.5.64-.64.04.37.56.72,0,.95-.44.72.81,1.2,0,1.28.16-.66-1.24-.68-.32-.32.26.6.53,1.17.64,1.92.97-.24,1.16.32,1.9.32.5-1.25-.83-.66-.95-1.28Z"/>
      <path class="cls-1" d="M338.57,247.93c.97.92.9,3.11.95,3.82-.09-.56,1.89-.58.95-.95-.37.04-.72.57-.95,0,.42-.1.6-.45,1.26-.32.21.7.42,1.06,0,1.91h.64c.19-.02.37-.04.32-.32-.06-1.21-.8-1.49,0-2.87-.13-.37-1.54-.37-.63,0,.85-.02-.83,1.63-.95.64.55-.13,1.31-3.08.32-2.55.64-.1-.06.92-.32.96-.18-1.13.86-1.4.32-2.23-.21,1.47-1.06-.49-1.26.32.35.06.49.35.63.63-.83-.09-1.36.12-1.27.95Z"/>
      <path class="cls-1" d="M318.29,277.86c.75,0,.93.55,1.9.32-.1-.84.44-1.04,1.27-.95.1-1.16-.05-2.07-.32-2.87-.73,0-.55,2.12-1.59.64-.16,1.22-1.71,1.04-1.27,2.86Z"/>
      <path class="cls-1" d="M317.03,297.92c-.36,1.01-.61,2.37-.95,4.14.6-.04,1.06-.21,1.27-.64-1.33-1.05,1.48-2.91-.31-3.5Z"/>
      <path class="cls-1" d="M315.44,291.23c1.02.39,2.61.73,1.27.96,1.6-.2,1.62,1.19,2.53.95-.43-.31-.63-.84-.95-1.27.42.03,1.75.6.95,0-.83.06-.66-2.49-1.58-1.28.39.04.75.1.63.63-.56-.65-.98-.27-1.26-.63.28-.55,1.11-.82,1.58-.32.39-.96-1.05-1.65-1.27-.96,1.12.85-2.15-.45-.95.32.28.67-1.1.71.32,1.59-.63.16-2.03-.69-1.27,0Z"/>
      <path class="cls-1" d="M322.1,329.76c-.53-.53-.59-1.54-1.26-1.91.63,1.06-.47,3.78,1.26,2.86-1.33.06-.22-.71,0-.95Z"/>
      <path class="cls-1" d="M337.62,253.35c.49-.14.26-1,1.26-.64v-.96c-1.83-.03-.45-1.41-1.58-1.9-.72.91-1.67,3.23.32,3.5Z"/>
      <path class="cls-1" d="M340.16,253.02c.47.37.8.37,1.27,0,.16.47.47.81.63,1.28.76-.84,1.74.14,1.97.41-.02-.02-.04-.05-.07-.09.01-.44-.15-.7-.32-.95.25-.08.63-.01.63-.32-1.16-.22-1.21.69-2.22.63.82-.84-.51-.25-.32-1.28-.46.17-1.64-.37-1.59.32Z"/>
      <path class="cls-1" d="M340.79,281.04c-.18-.46-.49-.78-.95-.95,0,.42-.56.29-.63.63.59.08-.18.52.32.63.33-.38.96-.22,1.9,0-.72-1.24.47-.81.95-1.59-.35-.06-.49-.35-.63-.63,1.76-.18-2.25-.61-.32.32-.84.36-1.93-1.12-1.27-.32-.01.68,1.19,1.73.63,1.91Z"/>
      <path class="cls-1" d="M353.94,128.93c.14.1.2.28.15.56-.37-.05-.9.05-.95-.32.49.03.22-.93,0-.32-.24.7.03,1.87-.95.64.66,1.15-.59,1.76.64,2.54.03-.5-.04-1.11.63-.95-.52.51-.38,2,.63,1.91.07-1.28-.07-1.43-.63-.64.53-1.55,1.38-3.03.48-3.42Z"/>
      <path class="cls-1" d="M350.93,225.32c.1-1.1.85.03.95-.63-.59-.07.18-.52-.32-.63-.5,1.14-1.13-.15-1.9,0-.54.55.47,1.25-.95,1.27.24,1.21-.39,1.52-.32,2.55h.95c.01-1.52.12-4.69,1.58-2.55Z"/>
      <path class="cls-1" d="M346.81,374.66c-.42-.32-.96-.53-1.27-.96.18,0,.36-.26,0-.32,0,.42-.56.29-.63.64.08,0-.68.58-.32,1.28-1.23-.63-.81-1.68-1.58-2.23.32,1.94-.93,1.07-1.27.32v1.59c.79-.42.99,1.26,1.27.32-.46-.18-.78-.5-.95-.95,2.05.25.81.86,3.17,1.27-.12-1.52.81-.82,1.59-.95Z"/>
      <path class="cls-1" d="M160.51,163.55c.61.13.57.91,1.59.63.69-.66-.28-1.03.31-1.59-1.31-.32-3.4-1.67-1.58-1.59-.53,0-.18-.89-.64-.96-.58,1.18-.41,1.15-.32,2.87,1.48.28-.44-.83.63-.96-.04,1.1,1.39.72,1.59,1.59-.79.41-1.31-.93-1.59,0Z"/>
      <path class="cls-1" d="M161.15,160.37c-.17-.46,1.23-.77.32-.95-1.1.79-.12,2.17.63,2.86.37-1.03.83.01,1.27-.95-.1.39.05,1.96.32.95.42-1.24-1.98-2.42-1.27-1.91.05.38.57.72,0,.96.09-1.49-1.22.41-1.26-.96Z"/>
      <path class="cls-1" d="M141.5,388.98c.47.37.8.37,1.27,0-.12,1.08.55,1.36.95,1.91.31-.34.82-.89,1.24-1.4-.12.81.54.83.66,1.4.94-.02,1.18-.73,1.58-1.27-.99-.15-.83.86-1.58.95-.01-.41-.4-.44-.31-.95.75.71,1.34-.52,1.9-.96-1.21.04-.99,1.3-2.13.68.35-.44.61-.83.54-1-.06.39-.35.2-.63,0,.06,1.34-.71.22-.95,0-.68.64,1.14,1.62-.64,1.91.69-.98.65-1.01-.32-.32-.01-.44.15-.7.32-.96-.98-.02-1.23-.56-1.9,0Z"/>
      <path class="cls-1" d="M163.36,161.01c.46-.31,2.44-.7,1.9-.96-1.19-.34-.9.79-1.9.63.1-.65.86-.62.95-1.27-1.02-.28-.43,1.05-1.26.95-.31-.59.95-1.07,0-1.27-.07.24-.01.62-.32.64-.08-.34-.52-.77-.64-.32.7.25.8,1.11,1.27,1.59Z"/>
      <path class="cls-1" d="M175.4,166.42c-1.92-.44-.79,2.18-2.22,2.23.61-.82-.42-2,.63-1.28-.3-1.79-1.47-.78-2.53-1.59.01.44-.15.7-.32.96.63.1.63-.43.95-.64.18.66.5.67.95.32-.41.79.93,1.33,0,1.59.44.73-.81,1.2,0,1.28.08-.5.7-.22.95,0,.07-1.94.82.29,1.27-.63-.39.1-1.09-.92-.32-.96.47.37.78.92,1.59.96,0-.42.56-.29.63-.64-.6-.6-.79-.03-1.58,0,.19-1.01-.59-.98,0-1.59Z"/>
      <path class="cls-1" d="M118.69,352.69c-.79-1.34-1.03-3.4-1.9-1.59-.71-.73.64-1.62-.63-2.23-.85,1.02.76,1.12,0,2.23,1.45-.14,1.52.69,2.53,1.59Z"/>
      <path class="cls-1" d="M106.33,392.17c-1.26-.07-.61-.15-1.9.63-.07-.6.36-.71.32-1.27-.73-.1-1.19.08-1.27.64.39.04.75.09.63.63-.17,0-.36.26,0,.32.18-.93.5.48.95.32-.06-.7.26-1.02.95-.96-1.09,1.75,1.04,0,.32-.32Z"/>
      <path class="cls-1" d="M141.82,183.62c-.09-.65.92.06.95.32h-1.27c.04.8.59.99,0,1.59.8-.06.99.49,1.27.95-.2-.09-1.22-.79-1.27,0,.8.49,1.8.55,2.22.63-.39.94,1.02,2.79.95,4.46-.25.07-.63,0-.63.32.93-.48,1.17.36,1.58-.63-.45-.13-.53-.39-.95,0-.05-1.01-.01-1.92.63-2.24.3.6-.95,1.07,0,1.28.83-1.14-.51-2.47.31-3.5-1.43-.49.17,2.08-1.26,1.59.23-.97-.32-1.16-.32-1.91.47-.37.79-.37,1.26,0,.09-.56-.89-1.59,0-1.91.06.48-.11,1.18.31,1.28.16-.79,0-1.92.96-1.91-.19.67-1.33,2.03-.63,2.55.56-.5.41-1.71.95-2.23.25-.07.63-.01.63-.32-1.69-.55-2.46-.96-3.48-.96.7-.98,3.17.86,3.16,0-.67-1.08-1.02-.11-1.26-2.23-1.4.4-2.33,1.27-3.49,1.91.8-.06.77.71,1.26.96-1,.13-1.61-1.75-2.22-.96.99-.1-.8.92.32.96Z"/>
      <path class="cls-1" d="M186.81,358.73c.02-.54-.24-.82-.63-.95-.23.34-.95.04-1.59.64-.17,1.13,1.13.78.96,1.91-.42,0-.29-.56-.64-.64-.07.6.36.7.32,1.27.71-.13,1-.68,1.58-.95-.47-.37-1.3-.39-1.58-.96.52,0,.18-.88.63-.95-.09.72.08,1.2.63,1.28.3-.6-.95-1.07,0-1.28-.42.88,1.26,1.09.32.63Z"/>
      <path class="cls-1" d="M83.52,380.71c-.09-.39.92-1.1.96-.32.83-.1.24,1.23,1.27.95v.96c-.84-.77-1.07-.18-1.9-.96.11-.42.56-.5.63-.95-1.13.22-.89,1.47-.96,1.59.46-.36.78-.34.96.32-1.32.05-.06.21,0,.64-.18,0-.36.26,0,.32.22-.33.95-.04,1.58-.63.32-1.38-.66-1.47-.95-2.23,1.7-.44-.88-1.83.64-1.6-.2-.02-.38-.05-.32-.32.18,0,.36-.26,0-.32-.08.6-.52-.18-.63.32.33.23.04.96.63,1.58-.31,0-.37.26-.63.33.12-1.6-1.36-.43-2.53-1.6.18,0,.36-.26,0-.32,0,.42-.56.29-.64.63,1.16.23,2,.96,1.9,1.59Z"/>
      <path class="cls-1" d="M123.76,313.2c.18.28,1.71,1.01.95.32-.92-.29-.09-1.17-.63-1.28-.03.44-1.24,1.24-1.27.64.38-.15.72-.34.95-.64-.97.23-1.15-.32-1.9-.32-.04.38-.56.73,0,.96.03-.39.1-.76.63-.64.01.44-.15.7-.32.96.4.44,1.55.14,1.58.96-2.31-.42-2.31.34,0,.32.96-.56-.86-.99,0-1.28Z"/>
      <path class="cls-1" d="M127.25,131.08c-.48.78-2.3-.37-1.59.32.08.6.52-.18.63.32-.02.2-.04.37-.32.32-.47-.09-1.33-1.37-1.59-.63.45.18.78.49.95.95.55.03.99-.07,1.26-.32.63.73-.08.35-.32.96.44-.01.7.15.95.32-.06-1.26.49.1.95-.64-.04.37-.56.72,0,.95.44-.2.05-1.22.64-1.28-.23,1.05.63.49.63,0-.87.03-.64-.52-1.27,0,0-.32-.25-.37-.32-.63.62-.36,1.62.09.95-.32-.46-.48-1.74.91-1.58-.32Z"/>
      <path class="cls-1" d="M129.78,236.46c.62,1.28.6,2.13-.32,3.19,1.31-.32,1.64-2.75.32-3.19Z"/>
      <path class="cls-1" d="M251.13,135.85c.75.41.59-.04,1.58.32-.46-1.17-.68-.55.32-1.27-1.83-.25-.98-.29,0-.64-.36-.06-.5-.35-.64-.63.36-.03.49.46.64,0-1.18-.41-.82-1.54,0-.32.01-1.14-1.19-1.66-1.58-.64.21-.41-.31-.76-.35-1,0,.87.15,1.65.66,2.27-.7-.14-.79-1.66-1.27-.32,1.09-.1,1.16,1.66.64,2.23Z"/>
      <path class="cls-1" d="M249.86,402.67c-.35-.46-.34-.77.32-.95-.02.55.24.82.63.95-.43-.73.82-1.19,0-1.27-.01.19-.04.37-.32.32-.85-.88-.69.38-1.58.32.41-.05.41-1.94,0-.95.23,1.39-.63-.26-.63.64.92.18-.49.5-.32.95.99-.53.89,1.59,1.27.64,0-.63-.87-.41-.64-1.28.66-.19,1.08,1.4,1.27.64Z"/>
      <path class="cls-1" d="M251.13,124.71c.85,2.34,0,4.86-.03,6.88.03-.08.12-.14.35-.19.07.25,0,.63.31.63.85-1.8-.03-4.35,0-6.37.47.23,1.33.24,1.58,0-.56-.66-.98-.28-1.27-.63.31,0,.38-.26.63-.32-.1.39.92,1.1.95.32-.25-.08-.63-.01-.63-.32.58-.75-1.44.42-1.9,0Z"/>
      <path class="cls-1" d="M249.86,313.52c-.64,2.09.54,2.9,0,3.19.02.2.04.37.32.32,1.01-.48-.67-2.18.63-1.91-.1-.74-.32-1.37-.95-1.59Z"/>
      <path class="cls-1" d="M273.94,353c-.46,2.3.16,2.96.32,5.42,1.07.37.06-1.53.95-.64,0,.18.26.36.32,0,0-.63-.86-.41-.64-1.27,1.09.95,1.34-.06,0-.32-.78.42.35,1.19-.32,1.27,0-.32-.25-.37-.32-.63.69-.67.06-1.42-.32-1.91.91-.35,1.1-2.57,0-1.91Z"/>
      <path class="cls-1" d="M275.84,359.69c-.22-.04-1.06.74-1.27.32.28-.18,1.01-1.71.32-.96-.02.2-.04.38-.32.32-.37-.05-.72-.57-.95,0h.63c-.22,1.27.3,1.82.32,2.86-.25.07-.63,0-.63.32,1.55-.24,1.07-.88.63-1.91.53.9,2.17-.5,1.27-.95Z"/>
      <path class="cls-1" d="M263.17,362.87c.02.33.4.25.31-.32-1-.15-1.24.46-1.9.64.3,1.24.15,1.98-.63.95-.35,1.31,1.38,3.25-.64,3.18v1.27c1.47-.02,1.16-3.12,2.54-2.23-.54-.81.36-1.11-.32-1.59.01.55-.25.82-.64.96.31-.94.08-1.94.32-2.23.32-.04.64,1.37.95.32-.42,0-.4-.88,0-.96Z"/>
      <path class="cls-1" d="M262.22,395.99c1.51-.08,1.73-.39,3.16,0v-.96c-1.26.32-2.4.55-2.85-.63.13.77-.58.69-.32,1.59Z"/>
      <path class="cls-1" d="M260.95,279.13c1.69.04-.11,1.38,1.59.63-.97.56.87.99,0,1.28.24-1.01-2.17-.63-.95,0,.28-.94.47.73,1.27.32.4-1.33-.35-1.3,1.27-1.59-1.6-.1-2.15-1.5-3.17-.63Z"/>
      <path class="cls-1" d="M258.41,440.57c.18-.64-1.16-.37-.63-1.27,0,.32.56.4.63,0-.76-4.21-.44.83-1.9,1.27.25.07.38.27.32.64.93-.48,1.17.36,1.58-.64Z"/>
      <path class="cls-1" d="M308.47,401.08c-.05.43.5,1.75.63.95-.35-1.41-.13-.99-1.26-2.23,0,.95-.57,1.34-1.27,1.59-.32,1.2.79,2.56,1.27,1.91-1.11-1.12.93.05.95-.64-.49-1.3-1.14-.35-1.58-.64-.1-.84.66-.82,1.27-.95Z"/>
      <path class="cls-1" d="M300.24,157.82c-.46-.07-.54-.53-.95-.64-.28.77-.31,2.25,0,1.59.33-.16-.21-1.56.95-.64.06-1.35,2.41-1.64,1.58-2.86-1.08.43-2.06,1.46-1.58,2.55Z"/>
      <path class="cls-1" d="M309.74,354.91c-.09-.72.07-1.2.63-1.28.18.57.16,1.33.64,1.59-.23-.97.32-1.16.32-1.91-.47-.37-.37-1.32-1.27-1.27-.13.8,1.65,1.27.63,1.91-.33-1.29-.71-.76-1.26,0-.44-.73.81-1.2,0-1.28-.02.2-.05.38-.32.32-.19.02-.38.05-.32.32.75.11.31,1.39.95,1.59Z"/>
      <path class="cls-1" d="M272.75,260.67c.24-.31.95.84.87,0-.28-.66-.88-1.03-1.27-1.59.88.18,1.77.34,1.59,1.59.92.29,1.82.23,2.22,0-.92-.18.48-.49.31-.95-1.76,1.27-2.67-.64-3.8-1.28-2.1,1.52.25,1.01.08,2.23Z"/>
      <path class="cls-1" d="M279.33,207.49c-.43.63-.61,1.52-.95,2.23.56.22.98.35,1.27,0-1.36-.7.88-2.43.32-3.5-.46-.7-.77.41-.96-.32.73-.26,1.23-.09,1.9-.95-1.39-.02-1.69,1.05-2.85,1.27.72-.95-1.38-.03-2.22,0,1.64.63,2.85,0,3.49,1.28Z"/>
      <path class="cls-1" d="M202.34,77.58c.76-2.03.6-7.26-2.54-5.41,2.91-.69,2,3.01,2.54,5.41Z"/>
      <path class="cls-1" d="M170.65,267.04c1.33-.37,1.71,1.87,2.85.63-1.64.16-1.8-.58-.63-.96-1,.37-.77-.5-1.27-.63.68,1.16-2.15.32-.95.96Z"/>
      <path class="cls-1" d="M244.79,399.17c-.25-.07-.37-.27-.31-.64-1.3-.11-2.07-.42-2.85,0,.86-.23.64.63,1.26.64-.12-1.64,1.71.99,1.9,0Z"/>
      <path class="cls-1" d="M228.95,251.11c-.46.18-.78.49-.96.96,1.01.05,1.06-.84,2.22-.64-.63-1.68-.75-1.76-.32-3.18-.09.86-1.33.57-1.58,1.28.28.09,1.38.86.63.95-.22-.63-.97-.73-1.27-1.28.21,2.46.17.9,1.27,1.91Z"/>
      <path class="cls-1" d="M230.85,351.41c.12,1.68,1.14,2.32,1.27,3.18.28-.87,1.16.62,1.26-.63-1.56-.08.95-1.56-.95-.64-.05-1.11.77-1.35.95-2.23-1.69.57-2.02.84-2.53.32Z"/>
      <path class="cls-1" d="M419.36,159.73c-.56.66-.61.82-.17,1.38-.5-.41-.99.99-.46.21.92.14.74,1.37,1.59,1.59-.41-.79.71-1.55,0-1.59-1.4.87.2-3.29-.32-1.91-.32.51-1.25-.81-1.58,0,1.23.28-1.45.77-.32.95.56.09.98-1.5,1.27-.63Z"/>
      <path class="cls-1" d="M377.86,351.73c-1.45.02-.64-.94-.32-1.59-.79-.06-.77.71-1.27.95.46.18.78.5.96.96-.42-.78-1.18.35-1.27-.32.95-.22-.3-.68,0-1.27-.54.13-.81-.48-.95,0,.13.89.36-.05.95.95-.62.36-1.62-.09-.95.32.09.66.85-.47.95.64-.85,1,.83-1.07.95,0-.18,0-.36.25,0,.32-.1-.74.92-.35.95-.95Z"/>
      <path class="cls-1" d="M44.24,347.59c.1-.47,1.33.35,1.58-.63-1.49.93-1.3-1.07-2.53-1.28.09.63-.43.64-.63.96,1.4-.59,1.29.23,1.58.95Z"/>
      <path class="cls-1" d="M285.66,316.07c-.36,1.52-.97-1.63-1.9-1.59-.24,1.56,1.35,2.47.63,3.5,1.13.49.2-1.09.95-.96.09.97-.35,2.48.63,2.55-.2-1.07.41-2.96-.32-3.5Z"/>
      <path class="cls-1" d="M278.69,149.54c.02-.19.05-.38.31-.32-.18.56.39,1.87-.31,1.91,0-.17-.25-.36-.32,0,.72.24,1.23.45,1.9-.32-.42,0-.29-.56-.63-.63-.05.37.05.9-.32.95.18-.56-.39-1.87.32-1.91.63.86.48,1.37,1.59.32-.02.41-.41.44-.32.96h.96c-.25-1.74-3.58-1.71-3.17-.96Z"/>
      <path class="cls-1" d="M267.28,318.3v-.96c-1.73-.36-1.2,1.55-1.9,2.23-.25-.07-.63,0-.63-.32,1.11-.25.37-1.11,0-1.59.44-.01.7.15.95.32.31-1.16-1.42-.27-1.26-1.28.59-.31,1.05.95,1.26,0-1.55.42.86-1.75-.32-.96-.35,1.09-1.23-.1-1.58.64,1.81.04-1.4,1.29-.32,1.59.45-.61,1.28.83,1.59.63-.36,1.23-1.23-1.23-1.59,0,.99.18.83,1.5,1.9,1.59,1.35-1.19,1.48-.13.64-1.91h1.26Z"/>
      <path class="cls-1" d="M188.71,289c-1.38-.25-1.52.93-.63,1.28-.32,0-.38.26-.63.32-.21-1.35-.91-.23-1.27-1.27.18,0,.36-.25,0-.32-.66,1.81,2.05,1.4,2.53,2.55.04-1.13,1.05.67.95-.32.13-.26-.98-1.11-.31-1.59-.1.52.43.86.63.32-.54-.9-1.25.12-1.27-.96ZM189.35,290.59c-.08.35-.63.22-.64.63-.36-.06-.17-.32,0-.32-.96-.44.08-.9-.95-1.27.89-1.27.62,1.26,1.59.95Z"/>
      <path class="cls-1" d="M194.73,362.87c0-.42.56-.29.63-.63-1.3.24-1.44-.68-1.9-1.28.05,1.2-1.61,1.07-.96,1.28.34.15,1.73-.69,2.22.63Z"/>
      <path class="cls-1" d="M265.38,363.51c-.18,1.29-.81,2.15-2.22,2.23.14,1.4-.62,1.39-.95,1.59.26.2.99,1.49.32,1.59-.18-.65-.95-.63-.32-1.28-1.37-.38-1.04,2.93-.32,1.91-.51.23-.51-1.5,0-1.27-.5,1.25.83.66.95,1.27-.28.09-1.39.86-.63.96.08-1.12,1.18.8,1.26-.32-1.34-.45.18-1.35-.63-2.55.99.66.41-.22.32-.95.45-.07.54-.53.95-.64,0,.33.25.38.32.64-.39.63-.27,1.36,0,1.59.88-1.28.61,1.26,1.58.96.19-1.35-1.15-.86,0-1.59-.46-.18-1.64.37-1.58-.32.85-.55,1.2.22,1.9-.63-.74-1.04-.71-3.25-.96-3.18Z"/>
      <path class="cls-2" d="M414.29,158.46c-.01-.06-.03-.09-.06-.14-.08.39-.19.59.06.14Z"/>
      <path class="cls-2" d="M347.44,205.58c.09-.17.17-.27.22-.32-.17,0-.21.15-.22.32Z"/>
      <path class="cls-2" d="M332.24,338.04s.03-.02.04-.04c-.02-.02-.03-.04-.04-.06,0,.03,0,.06,0,.09Z"/>
      <path class="cls-2" d="M317.65,293.16s0,0,0-.02c-.07-.14-.06-.09,0,.02Z"/>
      <path class="cls-2" d="M272.75,260.67c-.04.05-.08.14-.08.32.04-.12.07-.23.08-.32Z"/>
      <path class="cls-2" d="M250.23,403.32s-.04,0-.06,0c-.13.15-.08.12.06,0Z"/>
      <path class="cls-2" d="M209.19,374.11s.08-.05.11-.09c-.05-.11-.08-.05-.11.09Z"/>
      <path class="cls-2" d="M57.4,322.34s.11.05.14.09c.09-.2,0-.2-.14-.09Z"/>
      <path class="cls-2" d="M55.9,323.53c-.1,0-.21,0-.31,0,.02.06.04.11.06.19.13-.04.21-.11.25-.18Z"/>
    </g>
  </g>
</svg>