<?xml version="1.0" encoding="UTF-8"?>
<svg id="Layer_2" data-name="Layer 2" xmlns="http://www.w3.org/2000/svg" viewBox="0 0 300 300">
  <defs>
    <style>
      .cls-1 {
        fill: none;
      }

      .cls-1, .cls-2 {
        stroke-width: 0px;
      }

      .cls-2 {
        fill: #000;
      }
    </style>
  </defs>
  <g id="Layer_1-2" data-name="Layer 1">
    <g>
      <path class="cls-2" d="m76.58,167.96c.4-1.49.79-2.98,1.26-4.75-2.28-.19-4.35-.53-6.41-.5-16.71.23-31.6,5.24-43.84,17.01-1.13,1.08-2.13,2.3-3.27,3.37-3.73,3.5-9.18,3.5-12.71.04-3.35-3.29-3.59-8.85-.32-12.51,7.98-8.95,17.51-15.75,28.72-20.1.61-.24,1.36-.15,2.06-.22.48.51.93,1.02,1.46,1.62q.47-1.97-1.52-1.56c3.47-1.97,7.2-3.12,11.34-3.67,1.12,3.94-2.47,6.01-3.19,9.22,1.7,1.14,2.68-.59,3.1-1.35,1.1-2.06,1.76-4.36,2.47-6.61.1-.3-.48-.82-1.01-1.65,3.07-.43,5.9-.92,8.75-1.15.75-.06,1.77.55,2.31,1.16,1.68,1.88,2.94,4.01,2.42,6.89,1.28.38,2.29.98,3.31,1.8,3.59,2.89,9.83,4.45,12.94,0,.27-.38.29-.93.44-1.4,3.16-.3,6.23-.78,8.85,1.97,1.25,1.3,2.83.45,3.1-1.38.11-.76-.08-1.56-.14-2.37-1.83.47-3.45,1.54-4.95-.42-.35-.45-1.54-.35-2.34-.33-1.92.06-3.09,1.48-4.43,2.58-2.36,1.26-4.85,1.7-7.54,1.53-2.58-.16-4.11-1.64-5.4-3.6-1.86-2.82-3.74-5.64-5.59-8.46-1.25-1.9-2.62-3.74-3.67-5.74-.68-1.31-.63-2.82.26-4.19.41-.63.62-1.38,1.1-2.46-1.93.33-3.31.57-4.9.85.65,3.22-.02,6.71,3.52,8.86-.19.16-.39.32-.58.48-.78-.49-1.59-.94-2.33-1.47-11.23-8.13-23.47-14.01-37.12-16.78-2.14-.43-4.33-.72-6.5-.95-5.46-.59-8.7-4.48-8.34-10.12.3-4.63,4.51-8.35,9.56-7.92,9.21.79,18.08,3.13,26.67,6.58,1.47.59,1.73,1.63,1.71,2.97-.07,3.76-.13,7.53-.18,11.29-.02,1.1,0,2.21,0,3.32.25.04.51.08.76.11.51-2.52,1.34-5.04,1.43-7.58.09-2.6-.54-5.22-.85-7.79,1.74-.95,2.63.48,3.77,1.01q-1.24.83-.4,2.16c.12-.91.22-1.57.31-2.24,4.51,1.24,8.28,3.91,12.21,6.29,8.27,5.03,15.65,11.17,22.75,18.39.53-1.22.98-2.2,1.37-3.2,2.44-6.28,5.4-12.25,9.99-17.29,4.02-4.42,8.8-7.63,14.47-9.62,4.53-1.59,8.99-3.4,13.41-5.28,4.14-1.76,7.6-4.4,9.71-8.52.28-.54.47-1.13.66-1.62-1.97-1.92-3.99-3.61-5.69-5.57-5.09-5.87-7.91-12.78-8.57-20.5-.14-1.66.33-3.37.56-5.44-.14-.93-.66-2.35-.49-3.67,1.3-10.33,5.66-19.02,14.32-25.12,10.51-7.4,24.02-6.55,33.59,2.06,7.26,6.54,11.02,14.81,11.8,24.54.77,9.55-1.27,18.34-7.02,26.05-2.1,2.82-4.8,5.2-7.51,8.08.75,2.89,2.88,5.31,5.59,7.09,2.43,1.59,5.13,2.81,7.8,3.98,2.48,1.09,5.06,1.98,7.65,2.82,13.16,4.26,21.29,13.53,26.15,26.09.48,1.24,1,2.47,1.67,4.14,1.56-1.44,2.83-2.61,4.11-3.79,13.94-12.85,29.91-22.13,48.29-26.96,4.83-1.27,9.87-1.71,14.78-2.66,4.17-.81,9.27,2.65,9.84,7.57.57,4.9-2.38,9.33-7.23,10.17-4.62.81-9.29,1.34-13.93,2.07-.96.15-1.88.62-2.87.97-.4-1.2,2.13-1.9.21-3.43-.99.93-2.69,1.76-2.9,2.88-.41,2.19-1.93,2.52-3.44,3.14-6.62,2.68-12.74,6.26-18.81,9.99-3.32,2.04-5.99,4.7-9.31,7.43,1.06.19,1.69.34,2.33.42,7.96.98,15.84,2.28,23.34,5.29q2.33.94,3.04,3.39c.19.08.45.29.55.23,2.28-1.36,4.11-.16,6.02.93,7.22,4.14,13.69,9.22,19.25,15.41,3.53,3.93,3.48,9.23,0,12.73-3.44,3.46-8.87,3.63-12.47.33-2.08-1.91-3.96-4.04-6.1-5.88-10.71-9.21-23.21-13.89-37.27-14.51-2.99-.13-5.99-.02-9.35-.02,1.45,4.72,3.39,8.63,5.56,12.43,8.57,14.99,21.92,22.2,38.77,23.62,3.23.27,6.49.18,9.71.55,6.68.76,10.11,8.09,6.51,13.73-1.55,2.43-3.76,3.99-6.71,4.05-15.14.34-29.62-2.17-42.69-10.33-8.21-5.13-14.59-12.04-19.77-20.25-6.35-10.06-10-21.12-13.11-32.45-1.71-6.26-3.63-12.45-6.53-18.29-2.88-5.81-7.2-9.88-13.49-11.87-3.88-1.23-7.79-2.53-11.42-4.35-5.52-2.76-11.2-5.46-15.02-10.67-1.29-1.76-2.52-3.57-3.83-5.33-1.11-1.5-1.16-1.48-3.82-1.18,1.06.35,1.71.56,2.77.91-.77,1.27-1.41,2.52-2.22,3.65-4.41,6.15-10.47,10.16-17.36,12.99-3.48,1.43-7,2.81-10.59,3.92-7.03,2.18-11.74,6.86-14.34,13.51-2.47,6.32-4.38,12.85-6.57,19.28-2.18,6.4-4.31,12.83-6.64,19.18-1.13,3.09-1.31,3.03-4.73,3.98.81.25,1.61.5,2.37.73-2.5,5.21-5.44,9.22-8.59,13.13-2.11,2.62-5.03,4.37-6.98,7.21-1.19,1.74-3.23,2.95-5.01,4.21-9.08,6.44-19.33,9.88-30.28,11.22-4.66.57-9.39.62-14.09.79-1.18.04-2.37-.36-3.64-.57,0-1.77,2.46-3.52-.64-4.77-.29,1.16-.54,2.19-.8,3.24-4.92-2.68-5.26-9.92-.69-13.71,2.16-1.79,4.69-2.11,7.36-2.14,6.51-.08,12.92-.82,19.21-2.62,7.53-2.16,13.96-6.07,19.41-11.65,1.02-1.04,1.85-2.4,3.64-1.51.6-1.65-.16-3.52,1.75-4.53.59.41,1.21.94,1.92,1.33,2.26,1.25,4.84-.12,4.82-2.74-.01-1.76.79-2.62,2.12-3.43,1.04-.64,2.03-1.42,2.86-2.31.27-.29.2-1.35-.1-1.63-.33-.31-1.22-.33-1.69-.11-.62.29-1.07.95-1.59,1.45q-1.8,1.74-4.38.08c.65-1.22,1.32-2.48,2-3.74,1.52-.3,2.95,1.84,4.81-.04-.65-.66-1.23-1.26-1.71-1.76-1.22.71-2.18,1.27-3.13,1.83Zm86.14-111.3c-1.65-2.73-2.84-5.33-4.59-7.47-4.03-4.9-10.11-4.99-14.42-.33-7.57,8.18-5.87,20.77-.07,26.95,4.4,4.68,10.17,4.62,14.47-.14,2.45-2.71,3.9-5.94,4.37-9.53.34-2.54.37-5.12.53-7.59.95-.23,1.79-.44,2.63-.65-.52-2.33-2.06-1.04-2.93-1.25Zm-73.55,119.98c.29-.26.58-.53.87-.79-.47-1.29-.77-2.68-1.46-3.85-.62-1.06-1.89-.97-2.74-.3-1,.79-.47,1.53.42,2.21.43.33.42,1.19.84,1.56.58.51,1.37.79,2.07,1.16Zm-25.9-55.18c-1.48,3.23-1.43,3.68.39,5.56.42-1.82,1.6-3.54-.39-5.56Zm6.23,73.46c3.12-.75,3.14-1.52,0-5.06v5.06Zm-17.63-33.31c-.05-1.67-.61-2.54-2.12-2.64q-.64,2.38,2.12,2.64Zm13.83,31.89c.51.98,1.02,1.96,1.67,3.22q.96-2.29-1.67-3.22ZM127.5,61.4q-2.26.51-1.57,2.63c.64-1.07,1.1-1.85,1.57-2.63Zm-46.68,126.37c-.1-.26-.2-.52-.31-.78-.62.11-1.23.22-1.85.33.1.55.2,1.09.35,1.97.79-.67,1.29-1.09,1.8-1.52Zm-10.03,12.63c-.2-1.17-.32-1.89-.44-2.61-.27.06-.71.04-.78.19-.4.84-.43,1.63,1.23,2.41Zm26.7-50.79c.26,0,.52,0,.78-.01-.08-.61-.16-1.22-.24-1.83-.18.03-.36.05-.54.08v1.77Zm-61.41-37.83c.24.33.38.7.57.73.2.03.59-.24.63-.44.04-.2-.19-.6-.38-.68-.18-.06-.47.21-.82.38Zm44.67,67.01c-.12.14-.32.27-.33.41,0,.16.16.33.25.49.16-.18.33-.37.49-.55-.14-.12-.28-.24-.42-.35ZM11.45,115.74c.25-.32.54-.54.56-.78.02-.22-.26-.46-.41-.7-.25.23-.58.42-.7.71-.06.13.3.44.55.77Zm264.79,45.75c-.15.27-.39.51-.39.75,0,.15.34.31.53.46.08-.27.2-.54.22-.81,0-.11-.2-.23-.37-.4Z"/>
      <path class="cls-2" d="m178,162.55c-1.33,2.97-1.48,6.16-1.74,9.35-.81,10.13,2.75,19.1,7.28,27.82,2.41,4.64,4.92,9.23,7.22,13.92,4.28,8.72,5.57,17.9,4.76,27.61-1.55,18.64-7.36,35.96-15.06,52.82-3.17,6.95-11.73,7.79-15.83,2.23-2.27-3.08-2.1-6.4-.7-9.82,2.8-6.87,5.71-13.71,8.21-20.68,2.91-8.1,4.3-16.57,5.29-25.12.93-7.98-.59-15.32-4.46-22.36-3.47-6.32-6.81-12.74-9.69-19.34-5.61-12.87-6.69-26.26-3.28-39.92,1.34-5.36,3.84-10.16,7.85-14.08,4.22-4.12,9.34-6.28,15.14-6.84,4.58-.45,8.43,2.2,9.68,6.74,1.77,6.45,3.31,12.97,5.01,19.44,2.3,8.71,4.76,17.37,9.04,25.36,1.38,2.57,2.84,5.16,4.64,7.44,7.79,9.87,15.99,19.42,25.83,27.32,5.29,4.24,11,7.98,16.6,11.82,3.62,2.48,5.34,6.03,4.44,9.89-1.38,5.98-7.85,8.94-13.32,5.87-3.73-2.09-7.32-4.48-10.82-6.95-10.22-7.24-18.87-16.15-27.49-25.19-13.4-14.05-21.59-30.65-26.01-49.35-.62-2.64-1.42-5.23-2.15-7.84-.01-.05-.16-.05-.47-.14Z"/>
      <path class="cls-2" d="m123.81,161.92c-2.98,11.09-5.53,21.76-10.26,31.9-.96-.13-1.82-.24-2.6-.34-.84,1.79.83,1.4,1.56,2.2-.44.98-.82,2.15-1.44,3.18-1.84,3.04-3.77,6.03-5.66,9.03-.11.18-.27.32-.37.51-1.06,2.08-3.61,2.66-4.57,5.11-.83,2.13-2.87,3.81-4.44,5.63-1.57,1.82-3.19,3.6-4.84,5.35-1.65,1.75-3.33,3.47-5.04,5.17-8.49,8.41-17.72,15.88-28.07,21.91-4.61,2.68-9.39,2-12.44-1.76-2.77-3.42-2.63-8.29.42-11.45.93-.97,1.99-1.89,3.14-2.57,14.21-8.47,25.9-19.75,36.46-32.34,4.18-4.99,8.36-10,10.86-16.06,2.31-5.59,4.5-11.26,6.22-17.06,2.43-8.22,4.39-16.57,6.53-24.88,1.05-4.07,3.58-6.57,7.72-7.25,1.21-.2,2.51-.05,3.73.15,11.15,1.84,17.79,8.8,20.95,19.21,3.73,12.29,3.26,24.65-1.08,36.68-2.19,6.07-5.24,11.84-7.99,17.7-2,4.25-4.24,8.4-6.24,12.66-1.68,3.58-2.05,7.41-1.88,11.34.67,15.25,4.61,29.7,10.66,43.63,1.04,2.4,2.14,4.77,3.18,7.17,2.2,5.11.35,10.33-4.39,12.43-4.65,2.06-9.75.11-12.03-4.8-6.78-14.57-12.4-29.54-14.32-45.61-.72-6.01-.93-12.09-1.04-18.15-.08-4.33,1.15-8.53,2.94-12.44,2.6-5.7,5.46-11.29,8.32-16.87,3.01-5.88,5.91-11.78,7.28-18.31,1.31-6.24,1.27-12.46-.24-18.66-.16-.67-.52-1.29-.99-2.42Zm-17.07,26.88c-.91-.36-1.44-.78-1.79-.66-.71.24-1.36.73-1.94,1.22-.12.1.21,1.01.27,1,.74-.08,1.48-.21,2.19-.44.33-.11.57-.49,1.27-1.12Zm17.14,51.22c-.49-1.38-.9-2.34-2.31-2.4-.28,2.49-.28,2.5,2.31,2.4Z"/>
      <path class="cls-2" d="m169.72,4.67c.98.06,2.12-.15,2.99.24,4.18,1.93,8.08,4.3,11.62,7.33,3.75,3.2,7.33,6.51,10.33,10.44,4.56,5.96,7.96,12.53,10.32,19.63.48,1.44.47,3.04.68,4.56.04.3-.12.75.03.91,2.27,2.33,1.98,5.43,2.3,8.24.62,5.49,1.14,11.03-.17,16.53-.26,1.08.32,2.49-.18,3.35-1.34,2.34-.66,4.94-1.35,7.31-.8,2.7-1.62,5.42-2.67,8.03-2.1,5.23-7.07,7.45-11.96,5.51-4.85-1.92-6.72-6.89-4.78-12.26,5.98-16.53,4.91-32.51-4.37-47.58-5.4-8.76-12.98-15.11-23.13-17.64-14.75-3.68-26.78,1.48-36.5,12.49-6.76,7.67-10.23,16.9-11.44,27.04-1.06,8.82.18,17.29,3.27,25.56,1.93,5.16.34,10.01-4.12,12.04-1.46.66-3.22.72-4.86.89-.78.08-1.66,0-1.93-1.14-.08-.32-.78-.74-1.17-.71-2.7.19-3.71-1.75-4.41-3.71-1.33-3.73-2.56-7.52-3.51-11.36-.54-2.19-.42-4.54-.69-6.8-.17-1.44-.65-2.85-.77-4.29-.58-6.93.32-13.7,1.75-20.51,1.89-8.98,5.54-17.08,10.79-24.49,6.23-8.81,14.23-15.61,24.18-19.85,11.84-5.04,24.01-5.89,36.35-1.93,1.28.41,2.35,1.48,3.41,2.18Zm-62.08,27.7q2.37,0,2.71-2.18c-1.01.87-1.82,1.56-2.62,2.26-.29.08-.7.08-.85.28-.21.27-.25.68-.29,1.04,0,.07.42.3.49.24.29-.21.62-.46.75-.77.09-.22-.12-.57-.19-.86Zm22.94-17.5q2.22.44,3.71-1.55c-2.21-1.35-2.5-1.24-3.71,1.55Zm36.07-8.95c-2.02-2.55-2.96-2.75-5.49-1.53,1.98.55,3.73,1.04,5.49,1.53Zm-65,64.75c1.63,1.02,2.47.53,3.05-.42.23-.38.11-.97.16-1.47-.19-.12-.39-.24-.58-.36-.81.69-1.62,1.38-2.63,2.25Zm2.73-15.6q1.5-1.94-.5-2.97c.18,1.05.31,1.86.5,2.97Zm-7.43-6.75c-1.35.96-1.34,1.91,0,3.29v-3.29Zm23.33-35.31c.06.35.13.71.19,1.06.55-.16,1.1-.31,1.64-.51.04-.02-.03-.52-.06-.53-.59-.03-1.18-.02-1.77-.02Z"/>
    </g>
    <rect class="cls-1" y="0" width="300" height="300"/>
  </g>
</svg>