<?xml version="1.0" encoding="UTF-8"?>
<svg id="Layer_2" data-name="Layer 2" xmlns="http://www.w3.org/2000/svg" viewBox="0 0 449.18 449.18">
  <defs>
    <style>
      .cls-1 {
        fill: #000;
      }
    </style>
  </defs>
  <g id="Layer_1-2" data-name="Layer 1">
    <path class="cls-1" d="M187.76,289.64c1.03.37-.01.83.95,1.27-.17,0-.36.26,0,.32.01-.42.56-.29.64-.64-.97.31-.7-2.22-1.59-.95ZM187.76,289.64c1.03.37-.01.83.95,1.27-.17,0-.36.26,0,.32.01-.42.56-.29.64-.64-.97.31-.7-2.22-1.59-.95ZM187.76,289.64c1.03.37-.01.83.95,1.27-.17,0-.36.26,0,.32.01-.42.56-.29.64-.64-.97.31-.7-2.22-1.59-.95ZM187.76,289.64c1.03.37-.01.83.95,1.27-.17,0-.36.26,0,.32.01-.42.56-.29.64-.64-.97.31-.7-2.22-1.59-.95ZM187.76,289.64c1.03.37-.01.83.95,1.27-.17,0-.36.26,0,.32.01-.42.56-.29.64-.64-.97.31-.7-2.22-1.59-.95ZM187.76,289.64c1.03.37-.01.83.95,1.27-.17,0-.36.26,0,.32.01-.42.56-.29.64-.64-.97.31-.7-2.22-1.59-.95ZM187.76,289.64c1.03.37-.01.83.95,1.27-.17,0-.36.26,0,.32.01-.42.56-.29.64-.64-.97.31-.7-2.22-1.59-.95ZM187.76,289.64c1.03.37-.01.83.95,1.27-.17,0-.36.26,0,.32.01-.42.56-.29.64-.64-.97.31-.7-2.22-1.59-.95ZM187.76,289.64c1.03.37-.01.83.95,1.27-.17,0-.36.26,0,.32.01-.42.56-.29.64-.64-.97.31-.7-2.22-1.59-.95ZM187.76,289.64c1.03.37-.01.83.95,1.27-.17,0-.36.26,0,.32.01-.42.56-.29.64-.64-.97.31-.7-2.22-1.59-.95ZM187.76,289.64c1.03.37-.01.83.95,1.27-.17,0-.36.26,0,.32.01-.42.56-.29.64-.64-.97.31-.7-2.22-1.59-.95ZM187.76,289.64c1.03.37-.01.83.95,1.27-.17,0-.36.26,0,.32.01-.42.56-.29.64-.64-.97.31-.7-2.22-1.59-.95ZM187.76,289.64c1.03.37-.01.83.95,1.27-.17,0-.36.26,0,.32.01-.42.56-.29.64-.64-.97.31-.7-2.22-1.59-.95ZM187.76,289.64c1.03.37-.01.83.95,1.27-.17,0-.36.26,0,.32.01-.42.56-.29.64-.64-.97.31-.7-2.22-1.59-.95ZM187.76,289.64c1.03.37-.01.83.95,1.27-.17,0-.36.26,0,.32.01-.42.56-.29.64-.64-.97.31-.7-2.22-1.59-.95ZM187.76,289.64c1.03.37-.01.83.95,1.27-.17,0-.36.26,0,.32.01-.42.56-.29.64-.64-.97.31-.7-2.22-1.59-.95ZM404.53,218.32c-5.1,2.51-7.43,7.44-12.15,10.89-29.92,21.81-56.1-3.78-84.87-13.17-26.93-8.8-49.54-4.09-68.08,17.94-3.57,4.26-6.04,8.94-9.59,13.15-17.64-11.13-36.93-16.71-57.42-9.45-39.84,14.11-48.49,75.21-94.56,68.16-5.84-.89-10.64-4.73-16.23-3.73-2.16,2.21.79,6.95,2,9.15,8.72,15.89,28.06,34.7,44.27,42.82,47.95,24.04,115.5-2.83,135.13-52.4l16.63,10.8c41.74,21.74,101.66,11.56,129.2-28.09,9.9-14.26,18.95-40.87,18.71-58.25-.03-2.01-.15-7.83-3.04-7.82ZM116.16,351.09c.76-1.1-.85-1.2,0-2.23,1.27.61-.08,1.5.63,2.23.87-1.81,1.11.26,1.9,1.59-1.02-.9-1.08-1.73-2.53-1.59ZM123.76,314.48c-2.31.02-2.31-.74,0-.32-.03-.82-1.18-.51-1.58-.96.17-.25.33-.51.31-.96-.53-.11-.6.26-.63.65-.56-.24-.04-.58,0-.96.75,0,.93.55,1.9.31-.23.31-.57.49-.95.65.03.6,1.24-.2,1.27-.65.54.11-.29.99.63,1.28.76.69-.76-.04-.95-.32-.86.29.96.72,0,1.28ZM170.66,267.04c-1.21-.64,1.62.19.94-.96.47.13.3.89,1.09.69-.97.4-.74,1.05.81.9-1.14,1.24-1.51-1-2.84-.63ZM189.35,289.64c-.66.48.45,1.33.31,1.59.1,1-.91-.81-.95.32-.48-1.15-3.2-.73-2.53-2.55.36.07.18.32,0,.32.36,1.04,1.06-.08,1.27,1.27.25-.05.31-.31.63-.31-.89-.35-.75-1.53.63-1.28.02,1.08.73.06,1.27.96-.2.54-.73.2-.63-.32ZM228,252.07c.17-.46.5-.78.95-.96-1.1-1.01-1.05.55-1.27-1.91.31.55,1.06.64,1.27,1.28.75-.1-.35-.86-.63-.95.22-.64,1.23-.47,1.51-1.05-.35,1.2-.21,1.37.39,2.95-1.16-.2-1.22.69-2.22.64ZM262.85,281.36c-.79.42-.99-1.26-1.27-.32-1.21-.62,1.2-1,.96,0,.86-.28-.97-.71,0-1.27-1.7.75.1-.6-1.59-.64,1.02-.86,1.57.54,3.17.64-1.61.29-.87.26-1.27,1.59ZM276.16,260.66c-.4.24-1.3.3-2.22,0,.19-1.25-.7-1.4-1.58-1.59.38.57.98.93,1.27,1.59.08.85-.63-.3-.88.01.17-1.22-2.18-.71-.08-2.23,1.13.63,2.04,2.55,3.8,1.27.17.46-1.23.78-.31.95ZM285.98,319.57c-.98-.07-.54-1.58-.63-2.55-.76-.12.18,1.46-.96.96.72-1.03-.87-1.95-.63-3.5.94-.04,1.54,3.11,1.9,1.59.73.54.12,2.43.32,3.5ZM339.84,246.97c-.13-.28-.28-.57-.63-.63.21-.81,1.05,1.15,1.26-.32.55.83-.49,1.1-.31,2.23.25-.04.96-1.05.31-.96,1-.53.24,2.43-.31,2.55.13.99,1.8-.66.95-.64-.91-.37.51-.37.63,0-.8,1.39-.06,1.66,0,2.87.06.27-.12.3-.31.32h-.64c.42-.85.21-1.21,0-1.91-.66-.14-.84.21-1.26.31.23.57.57.05.94,0,.93.37-.94.4-.94.92-.06-.74,0-2.89-.96-3.78-.09-.84.45-1.04,1.27-.96ZM317.35,301.42c-.21.43-.68.59-1.27.64.34-1.77.59-3.13.95-4.14,1.79.59-1.01,2.46.32,3.5ZM318.29,291.87c.33.43.53.96.96,1.27-.92.24-.94-1.15-2.53-.95,1.34-.23-.25-.57-1.27-.96-.76-.69.64.16,1.27,0-1.42-.87-.05-.92-.33-1.59-1.19-.76,2.08.53.96-.32.21-.69,1.66-.01,1.27.96-.48-.5-1.3-.24-1.59.31.29.37.71-.01,1.26.64.12-.54-.24-.6-.63-.64.93-1.21.76,1.34,1.59,1.28.79.6-.53.03-.96,0ZM321.47,277.22c-.83-.09-1.37.12-1.27.96-.97.23-1.15-.33-1.91-.32-.44-1.82,1.12-1.64,1.27-2.87,1.04,1.48.86-.64,1.59-.63.27.79.42,1.7.32,2.86ZM333.19,263.53c-.67.14-.84-.22-1.27-.31-.28.14-.56.28-.63.63.12.62,1.45.03.95,1.28-.75,0-.93-.56-1.9-.32-.11-.75-.38-1.32-.64-1.92-.91-.35.49-.34.32.33.82-.09-.43-.56,0-1.28.56-.23.05-.58,0-.95-.24.12-.48.24-.59.48.15-.88-2.22-1.73-1.31-3.03.47.75,1.66,1.91,2.53,1.27-.23-1.17-.95.14-1.58-.64.37-.58,1.65-.25,2.22-.63.67.86-.72.79,0,1.91h-1.59c.63,1.31,1.45.8,2.54.64-.1.65-.86.62-.95,1.27.89.26.82-.45,1.58-.32.27.37.42.85.32,1.59ZM338.89,252.7c-1-.36-.77.51-1.26.65-1.99-.28-1.04-2.59-.32-3.51,1.13.5-.25,1.88,1.58,1.91v.95ZM341.43,281.36c-.94-.22-1.57-.38-1.9,0-.5-.11.27-.56-.32-.63.08-.35.63-.22.63-.64.46.18.77.5.95.95.56-.17-.64-1.23-.63-1.91-.07-.09-.12-.15-.15-.18.19.16.86.74,1.42.5-1.93-.92,2.08-.5.31-.32.14.29.28.57.64.64-.48.78-1.67.35-.95,1.59ZM343.65,253.67c.16.25.32.51.31.95.01.02.03.03.04.05-.29-.31-1.21-1.17-1.94-.37-.16-.47-.47-.8-.63-1.28-.47.37-.8.37-1.27,0-.05-.69,1.12-.14,1.58-.32-.19,1.03,1.14.44.32,1.28,1.01.05,1.06-.85,2.22-.63-.01.3-.39.24-.63.32ZM373.74,262.89c-.71-.17.39-.49-.31-.95-.57-.04-.67.39-1.27.32.96.73-1.97,1.58-1.59,0,.54-.12.6.25.64.63.44-.3,1.25-1.55.32-1.59.09-.43.79-.26,1.26-.31-.65.99.22.41.95.31-.84.74.84.86,0,1.59ZM187.76,289.64c1.03.37-.01.83.95,1.27-.17,0-.36.26,0,.32.01-.42.56-.29.64-.64-.97.31-.7-2.22-1.59-.95ZM187.76,289.64c1.03.37-.01.83.95,1.27-.17,0-.36.26,0,.32.01-.42.56-.29.64-.64-.97.31-.7-2.22-1.59-.95ZM187.76,289.64c1.03.37-.01.83.95,1.27-.17,0-.36.26,0,.32.01-.42.56-.29.64-.64-.97.31-.7-2.22-1.59-.95ZM187.76,289.64c1.03.37-.01.83.95,1.27-.17,0-.36.26,0,.32.01-.42.56-.29.64-.64-.97.31-.7-2.22-1.59-.95ZM187.76,289.64c1.03.37-.01.83.95,1.27-.17,0-.36.26,0,.32.01-.42.56-.29.64-.64-.97.31-.7-2.22-1.59-.95ZM187.76,289.64c1.03.37-.01.83.95,1.27-.17,0-.36.26,0,.32.01-.42.56-.29.64-.64-.97.31-.7-2.22-1.59-.95ZM187.76,289.64c1.03.37-.01.83.95,1.27-.17,0-.36.26,0,.32.01-.42.56-.29.64-.64-.97.31-.7-2.22-1.59-.95ZM187.76,289.64c1.03.37-.01.83.95,1.27-.17,0-.36.26,0,.32.01-.42.56-.29.64-.64-.97.31-.7-2.22-1.59-.95ZM187.76,289.64c1.03.37-.01.83.95,1.27-.17,0-.36.26,0,.32.01-.42.56-.29.64-.64-.97.31-.7-2.22-1.59-.95ZM187.76,289.64c1.03.37-.01.83.95,1.27-.17,0-.36.26,0,.32.01-.42.56-.29.64-.64-.97.31-.7-2.22-1.59-.95ZM187.76,289.64c1.03.37-.01.83.95,1.27-.17,0-.36.26,0,.32.01-.42.56-.29.64-.64-.97.31-.7-2.22-1.59-.95ZM187.76,289.64c1.03.37-.01.83.95,1.27-.17,0-.36.26,0,.32.01-.42.56-.29.64-.64-.97.31-.7-2.22-1.59-.95ZM187.76,289.64c1.03.37-.01.83.95,1.27-.17,0-.36.26,0,.32.01-.42.56-.29.64-.64-.97.31-.7-2.22-1.59-.95ZM187.76,289.64c1.03.37-.01.83.95,1.27-.17,0-.36.26,0,.32.01-.42.56-.29.64-.64-.97.31-.7-2.22-1.59-.95ZM187.76,289.64c1.03.37-.01.83.95,1.27-.17,0-.36.26,0,.32.01-.42.56-.29.64-.64-.97.31-.7-2.22-1.59-.95Z"/>
    <path class="cls-1" d="M84.48,380.39c-.08.45-.53.53-.64.95.84.77,1.07.18,1.91.96v-.96c-1.03.28-.44-1.05-1.27-.95ZM84.48,380.39c-.08.45-.53.53-.64.95.84.77,1.07.18,1.91.96v-.96c-1.03.28-.44-1.05-1.27-.95ZM84.48,380.39c-.08.45-.53.53-.64.95.84.77,1.07.18,1.91.96v-.96c-1.03.28-.44-1.05-1.27-.95ZM84.48,380.39c-.08.45-.53.53-.64.95.84.77,1.07.18,1.91.96v-.96c-1.03.28-.44-1.05-1.27-.95ZM84.48,380.39c-.08.45-.53.53-.64.95.84.77,1.07.18,1.91.96v-.96c-1.03.28-.44-1.05-1.27-.95ZM84.48,380.39c-.08.45-.53.53-.64.95.84.77,1.07.18,1.91.96v-.96c-1.03.28-.44-1.05-1.27-.95ZM84.48,380.39c-.08.45-.53.53-.64.95.84.77,1.07.18,1.91.96v-.96c-1.03.28-.44-1.05-1.27-.95ZM84.48,380.39c-.08.45-.53.53-.64.95.84.77,1.07.18,1.91.96v-.96c-1.03.28-.44-1.05-1.27-.95ZM84.48,380.39c-.08.45-.53.53-.64.95.84.77,1.07.18,1.91.96v-.96c-1.03.28-.44-1.05-1.27-.95ZM84.48,380.39c-.08.45-.53.53-.64.95.84.77,1.07.18,1.91.96v-.96c-1.03.28-.44-1.05-1.27-.95ZM84.48,380.39c-.08.45-.53.53-.64.95.84.77,1.07.18,1.91.96v-.96c-1.03.28-.44-1.05-1.27-.95ZM84.48,380.39c-.08.45-.53.53-.64.95.84.77,1.07.18,1.91.96v-.96c-1.03.28-.44-1.05-1.27-.95ZM84.48,380.39c-.08.45-.53.53-.64.95.84.77,1.07.18,1.91.96v-.96c-1.03.28-.44-1.05-1.27-.95ZM84.48,380.39c-.08.45-.53.53-.64.95.84.77,1.07.18,1.91.96v-.96c-1.03.28-.44-1.05-1.27-.95ZM84.48,380.39c-.08.45-.53.53-.64.95.84.77,1.07.18,1.91.96v-.96c-1.03.28-.44-1.05-1.27-.95ZM84.48,380.39c-.08.45-.53.53-.64.95.84.77,1.07.18,1.91.96v-.96c-1.03.28-.44-1.05-1.27-.95ZM84.48,380.39c-.08.45-.53.53-.64.95.84.77,1.07.18,1.91.96v-.96c-1.03.28-.44-1.05-1.27-.95ZM84.48,380.39c-.08.45-.53.53-.64.95.84.77,1.07.18,1.91.96v-.96c-1.03.28-.44-1.05-1.27-.95ZM84.48,380.39c-.08.45-.53.53-.64.95.84.77,1.07.18,1.91.96v-.96c-1.03.28-.44-1.05-1.27-.95ZM84.48,380.39c-.08.45-.53.53-.64.95.84.77,1.07.18,1.91.96v-.96c-1.03.28-.44-1.05-1.27-.95ZM84.48,380.39c-.08.45-.53.53-.64.95.84.77,1.07.18,1.91.96v-.96c-1.03.28-.44-1.05-1.27-.95ZM84.48,380.39c-.08.45-.53.53-.64.95.84.77,1.07.18,1.91.96v-.96c-1.03.28-.44-1.05-1.27-.95ZM84.48,380.39c-.08.45-.53.53-.64.95.84.77,1.07.18,1.91.96v-.96c-1.03.28-.44-1.05-1.27-.95ZM84.48,380.39c-.08.45-.53.53-.64.95.84.77,1.07.18,1.91.96v-.96c-1.03.28-.44-1.05-1.27-.95ZM84.48,380.39c-.08.45-.53.53-.64.95.84.77,1.07.18,1.91.96v-.96c-1.03.28-.44-1.05-1.27-.95ZM84.48,380.39c-.08.45-.53.53-.64.95.84.77,1.07.18,1.91.96v-.96c-1.03.28-.44-1.05-1.27-.95ZM442.71,171.44c-14.2-58.26-50.23-107.51-101.47-138.66C290.01,1.62,229.71-7.73,171.44,6.47,113.18,20.67,63.94,56.7,32.78,107.94,1.62,159.17-7.72,219.47,6.47,277.74c14.2,58.26,50.23,107.5,101.47,138.66,35.61,21.66,75.6,32.78,116.24,32.78,17.83,0,35.79-2.14,53.56-6.47,58.26-14.2,107.51-50.23,138.66-101.47,31.16-51.23,40.51-111.54,26.31-169.8ZM418.42,159.42c.33-.81,1.26.51,1.58,0,.03-.07.05-.13.07-.17-.16.54-.8,2.73.25,2.08.71.04-.41.8,0,1.59-.84-.22-.67-1.45-1.59-1.59-.52.78-.04-.62.47-.21-.45-.56-.39-.73.17-1.39-.29-.86-.71.73-1.27.64-1.13-.19,1.55-.67.32-.95ZM108.56,39.38c.43-.32.63-.86.94-1.28.67.29,1.9.01,1.59,1.28-1.34-1.32-1.64.48-3.49.31.04-.25,1.05-.96.96-.31ZM12.56,283.59c-.65-.23-1.3-.96-.64-1.59-.77.67-1.63-.51-1.59.64-.34-.08-.21-.64-.63-.64.41-.16.66-.33,1.59-.64.31.75,1.58.54,1.58,1.59-.42-.11-.5-.55-.95-.63-.39,1.03,1.03.24.64,1.27ZM21.11,284.87c1.03,1.36.98.83-.32,1.59-1.08-.34.88-.1.32-.96-.61-.42-1.41.2-2.53-.32-.09-.51.29-.54.31-.95-.8-.42-.99,1.26-1.27.32-.45-.14,1.02-.79,2.23-.32-.06.37-.59.27-.96.32.36,1.28,2.37-.36,1.59-1.28.3.01.24.39.31.64.25-.17.51-.33.96-.32-.3.56-1.17.53-1.27,1.28.39.9.92-1.39,1.58-.32v-1.6c.32.21.33.73.95.64-.71.35-.59,1.53-1.9,1.28ZM38.53,330.08c.47-.35.37,2.59.64,3.5-1.9-.13-.15-1.96-.64-3.5ZM44.24,347.59c-.3-.72-.18-1.54-1.59-.95.21-.33.73-.33.64-.96,1.23.21,1.04,2.21,2.53,1.27-.25.99-1.48.17-1.58.64ZM86.06,382.62c-.63.59-1.36.3-1.58.63-.37-.06-.18-.32,0-.32-.07-.42-1.32-.59,0-.63-.18-.66-.5-.68-.96-.32.06-.12-.17-1.37.96-1.59-.04-.7-.85-.2-.95.19-.03-.6-.83-1.25-1.91-1.47.08-.34.63-.21.64-.63.36.05.17.32,0,.32,1.17,1.16,2.65-.01,2.53,1.59.26-.06.32-.33.63-.33-.59-.62-.3-1.35-.63-1.58.11-.5.56.28.63-.32.36.06.18.32,0,.32-.04.2.06.27.2.3-1.24-.13,1.14,1.18-.51,1.61.29.76,1.27.84.95,2.23ZM106.02,392.49c-.69-.06-1.01.26-.95.95-.45.17-.78-1.24-.95-.31-.36-.07-.17-.33,0-.33.11-.54-.25-.59-.64-.63.08-.56.55-.73,1.27-.64.04.57-.39.67-.31,1.27,1.29-.78.64-.7,1.9-.63.72.31-1.42,2.06-.32.32ZM258.41,440.57c-.4.99-.65.16-1.58.63.06-.37-.07-.56-.32-.63,1.47-.45,1.15-5.49,1.9-1.28-.07.4-.62.32-.63,0-.52.9.81.64.63,1.28ZM396.56,338.68c.24-.29.34-.72.31-1.28-.67,1.96-1.09-1.69-1.27,0-.5-.32.04-2.28.96-2.23-2.15,1.71,2.14,1.95,0,3.51ZM398.46,330.33c-28.24,46.44-72.88,79.11-125.69,91.97-16.13,3.93-32.27,5.81-48.17,5.81-91.64,0-175.09-62.45-197.72-155.35C.31,163.74,67.4,53.44,176.42,26.87c16.12-3.92,32.26-5.8,48.17-5.8,45.82,0,89.58,15.61,124.73,42.84,35.15,27.22,61.67,66.05,72.99,112.5,12.86,52.82,4.4,107.48-23.85,153.92ZM85.75,382.3v-.96c-1.03.28-.44-1.05-1.27-.95-.08.45-.53.53-.64.95.84.77,1.07.18,1.91.96ZM84.48,380.39c-.08.45-.53.53-.64.95.84.77,1.07.18,1.91.96v-.96c-1.03.28-.44-1.05-1.27-.95ZM84.48,380.39c-.08.45-.53.53-.64.95.84.77,1.07.18,1.91.96v-.96c-1.03.28-.44-1.05-1.27-.95ZM84.48,380.39c-.08.45-.53.53-.64.95.84.77,1.07.18,1.91.96v-.96c-1.03.28-.44-1.05-1.27-.95ZM84.48,380.39c-.08.45-.53.53-.64.95.84.77,1.07.18,1.91.96v-.96c-1.03.28-.44-1.05-1.27-.95ZM84.48,380.39c-.08.45-.53.53-.64.95.84.77,1.07.18,1.91.96v-.96c-1.03.28-.44-1.05-1.27-.95ZM84.48,380.39c-.08.45-.53.53-.64.95.84.77,1.07.18,1.91.96v-.96c-1.03.28-.44-1.05-1.27-.95ZM84.48,380.39c-.08.45-.53.53-.64.95.84.77,1.07.18,1.91.96v-.96c-1.03.28-.44-1.05-1.27-.95ZM84.48,380.39c-.08.45-.53.53-.64.95.84.77,1.07.18,1.91.96v-.96c-1.03.28-.44-1.05-1.27-.95ZM84.48,380.39c-.08.45-.53.53-.64.95.84.77,1.07.18,1.91.96v-.96c-1.03.28-.44-1.05-1.27-.95ZM84.48,380.39c-.08.45-.53.53-.64.95.84.77,1.07.18,1.91.96v-.96c-1.03.28-.44-1.05-1.27-.95ZM84.48,380.39c-.08.45-.53.53-.64.95.84.77,1.07.18,1.91.96v-.96c-1.03.28-.44-1.05-1.27-.95ZM84.48,380.39c-.08.45-.53.53-.64.95.84.77,1.07.18,1.91.96v-.96c-1.03.28-.44-1.05-1.27-.95ZM84.48,380.39c-.08.45-.53.53-.64.95.84.77,1.07.18,1.91.96v-.96c-1.03.28-.44-1.05-1.27-.95ZM84.48,380.39c-.08.45-.53.53-.64.95.84.77,1.07.18,1.91.96v-.96c-1.03.28-.44-1.05-1.27-.95ZM84.48,380.39c-.08.45-.53.53-.64.95.84.77,1.07.18,1.91.96v-.96c-1.03.28-.44-1.05-1.27-.95ZM84.48,380.39c-.08.45-.53.53-.64.95.84.77,1.07.18,1.91.96v-.96c-1.03.28-.44-1.05-1.27-.95ZM84.48,380.39c-.08.45-.53.53-.64.95.84.77,1.07.18,1.91.96v-.96c-1.03.28-.44-1.05-1.27-.95ZM84.48,380.39c-.08.45-.53.53-.64.95.84.77,1.07.18,1.91.96v-.96c-1.03.28-.44-1.05-1.27-.95ZM84.48,380.39c-.08.45-.53.53-.64.95.84.77,1.07.18,1.91.96v-.96c-1.03.28-.44-1.05-1.27-.95ZM84.48,380.39c-.08.45-.53.53-.64.95.84.77,1.07.18,1.91.96v-.96c-1.03.28-.44-1.05-1.27-.95ZM84.48,380.39c-.08.45-.53.53-.64.95.84.77,1.07.18,1.91.96v-.96c-1.03.28-.44-1.05-1.27-.95ZM84.48,380.39c-.08.45-.53.53-.64.95.84.77,1.07.18,1.91.96v-.96c-1.03.28-.44-1.05-1.27-.95ZM84.48,380.39c-.08.45-.53.53-.64.95.84.77,1.07.18,1.91.96v-.96c-1.03.28-.44-1.05-1.27-.95ZM84.48,380.39c-.08.45-.53.53-.64.95.84.77,1.07.18,1.91.96v-.96c-1.03.28-.44-1.05-1.27-.95Z"/>
  </g>
</svg>