<?xml version="1.0" encoding="UTF-8"?>
<svg id="Layer_2" data-name="Layer 2" xmlns="http://www.w3.org/2000/svg" viewBox="0 0 300 300">
  <defs>
    <style>
      .cls-1 {
        fill: none;
      }

      .cls-1, .cls-2 {
        stroke-width: 0px;
      }

      .cls-2 {
        fill: #000;
      }
    </style>
  </defs>
  <g id="Layer_1-2" data-name="Layer 1">
    <g>
      <path class="cls-2" d="m300,93.35c-.45.55-.82,1.22-1.38,1.63-.47.35-1.15.48-1.75.6-.28.06-.72-.29-.9-.17-2.65,1.76-5.6.72-8.39.85-5.18.24-10.39.07-15.78.07-.43,1.52-.85,2.99-1.31,4.61.64.42,1.23.85,1.85,1.21,4.56,2.65,9.12,5.31,13.7,7.91,1.42.81,2.61,1.79,2.98,3.43.45,1.99.03,3.8-1.62,5.13-1.72,1.38-3.67,1.5-5.56.5-2.69-1.42-5.3-3.01-7.94-4.52-2.78-1.6-5.55-3.2-8.44-4.86-1.19,1.09-2.32,2.13-3.5,3.2,1.15,2.04,2.11,3.76,3.09,5.46,1.97,3.43,3.98,6.84,5.91,10.3.47.84.87,1.8,1,2.74.29,2.14-.88,4.17-2.6,4.91-2.43,1.03-4.74.52-6.24-1.43-.45-.58-.8-1.25-1.17-1.89-2.82-4.93-5.63-9.86-8.53-14.94-1.53.44-3.08.88-4.86,1.38,0,2.85,0,5.63,0,8.42,0,4.95-.11,9.9.06,14.84.1,2.98-2.47,5.09-4.6,5.15-2.85.07-5.11-1.79-5.3-4.72-.13-1.97-.03-3.96-.03-5.94,0-5.12,0-10.23,0-15.35,0-.81,0-1.62,0-2.47-1.62-.44-3.03-.82-4.58-1.24-.45.7-.9,1.37-1.31,2.07-2.69,4.63-5.37,9.26-8.07,13.89-1.56,2.68-4.5,3.56-6.98,2.1-2.45-1.44-3.14-4.48-1.61-7.13,2.75-4.78,5.51-9.56,8.27-14.34.28-.49.54-1,.86-1.59-1.26-1.01-2.46-1.98-3.9-3.13-4.06,2.34-8.62,4.96-13.18,7.6-.5.29-.99.59-1.49.88-3.26,1.87-6.37,1.36-7.79-1.24-1.44-2.64-.24-5.94,2.67-7.43,4.24-2.18,8.31-4.71,12.44-7.1.92-.53,1.82-1.1,2.85-1.72-.4-1.54-.79-3.03-1.23-4.71-.85,0-1.66,0-2.47,0-6.76,0-13.53.04-20.29,0-.97,0-2.01-.11-2.88-.49-2.33-.99-3.4-3.63-2.59-5.99.85-2.48,3.07-3.74,5.64-3.2.44.09.91.15,1.36.12.97-.07,1.94-.3,2.91-.31,5.28-.03,10.56-.02,15.84-.02.82,0,1.63,0,2.47,0,.44-1.59.84-3,1.3-4.67-.62-.42-1.25-.92-1.94-1.31-4.65-2.66-9.33-5.27-13.97-7.95-2.07-1.19-3.21-3.62-2.75-5.58.8-3.34,4.22-4.91,7.38-3.24,2.62,1.38,5.15,2.95,7.72,4.42,2.85,1.63,5.69,3.26,8.5,4.87,1.18-1.19,2.21-2.24,3.39-3.43-1.56-2.72-3.14-5.5-4.74-8.28-1.43-2.49-2.86-4.97-4.31-7.44-.83-1.42-1.21-2.91-.69-4.5.62-1.87,1.96-3.05,3.9-3.41,1.85-.34,3.47.26,4.62,1.74.85,1.1,1.52,2.35,2.22,3.56,2.57,4.41,5.11,8.83,7.72,13.35,1.52-.39,2.94-.75,4.68-1.19,0-.82,0-1.7,0-2.59,0-6.6,0-13.2.01-19.8,0-.82.02-1.66.23-2.44.65-2.5,2.85-3.94,5.42-3.64,2.4.28,4.18,2.16,4.21,4.7.06,4.87.03,9.73,0,14.6,0,.57-.06,1.2-.31,1.68-.29.56-.35.87.02,1.49.33.56.21,1.42.23,2.15.03,1.22,0,2.44,0,3.42.4.34.51.5.65.54,1.32.39,2.68,1.16,3.95,1.04,1.64-.16,1.51-2.16,2.2-3.31,2.5-4.17,4.9-8.4,7.32-12.62.93-1.62,2.29-2.59,4.15-2.74,3.37-.26,6,2.91,5.11,6.18-.23.86-.68,1.67-1.13,2.46-2.5,4.37-5.02,8.71-7.53,13.07-.36.63-.69,1.29-1.02,1.9,1.18,1.16,2.28,2.23,3.5,3.43,4.95-2.86,10.01-5.77,15.06-8.71,1.16-.67,2.32-1.2,3.72-1.12,1.91.11,3.45.88,4.1,2.66.69,1.87.98,3.9-.65,5.55-.63.63-1.4,1.14-2.18,1.59-4.27,2.49-8.56,4.95-12.84,7.43-.78.45-1.53.93-2.41,1.46.42,1.56.82,3.05,1.26,4.69,2.15,0,4.2,0,6.25,0,5.61.03,11.22.13,16.83.06,2.58-.03,4.2,1.08,5.15,3.38v3.47Zm-8.44-.04h3.32c-.7-.88-1.09-1.37-1.69-2.11-.46,1.06-1.85.87-1.57,2.17-1.06.22-1.15.9-.91,1.97.82-.13,1.53-.23,2.15-.33-.51-.66-.91-1.18-1.31-1.7Zm-65.66,5.84c.47.18.77.21.91.37.52.63,1.01,1.29,1.47,1.96,3.09,4.53,7.35,7.31,12.75,8.14,9.36,1.43,18.14-4.56,20.54-13.86,2.25-8.73-2.66-18.26-11.3-21.65-9.27-3.63-19.15,1.33-22.95,8.85-2.22,4.39-2.67,8.93-1.31,13.67.22.77,1,1.64-.11,2.52Zm53.2-9.29c1.46,1.1,3,.33,4.44.25.55-.03,1.07-.7,1.85-1.26-2.35-.59-4.86-.13-6.28,1.01Zm10.27,1.88c-.22-.05-.44-.1-.66-.15-.06.53-.12,1.07-.18,1.6.2.03.4.05.61.08.08-.51.15-1.02.23-1.54Zm-35.37-24.49c-.03-.16-.07-.32-.1-.48-.44.07-.89.14-1.33.21.04.19.08.38.12.57.44-.1.88-.2,1.31-.3Zm35.65,21.73c-.23-.2-.38-.44-.56-.46-.16-.02-.36.19-.54.3.18.22.36.44.54.66.16-.14.33-.29.56-.5Zm-23.36,37.63c.09-.11.25-.21.26-.32,0-.11-.16-.21-.25-.32-.09.11-.24.21-.24.32,0,.11.15.22.23.32Z"/>
      <path class="cls-2" d="m0,265.13c.75-.59,1.41-1.4,2.26-1.74,4.07-1.6,8.25-2.8,12.65-3.09,1.03-.07,2.03-.58,3.07-.72,5.87-.82,11.74-1.73,17.63-2.36,9.84-1.05,19.69-1.94,29.54-2.81,3.94-.35,7.9-.45,11.85-.7,2.05-.13,4.09-.41,6.14-.52,15.71-.88,31.43-1.66,47.13-2.64,12.46-.77,24.88-.08,37.31.56,10.37.54,20.75.97,31.11,1.71,15.54,1.12,31.07,2.42,46.59,3.77,9.94.86,19.84,2.08,29.62,4.11,3.06.63,6.07,1.53,9.03,2.51,1,.33,1.8,1.26,2.7,1.92h-54.95c.42-.91.4-1.83-.52-2.31-.94-.49-1.44.48-1.95,1.03-.29.31-.34.85-.5,1.28H80.69c.75-1.02.33-1.78-.49-2.56-1.42.72-.72,1.68-.5,2.56H0Zm81.32-5.2c-1.33-.27-2.48-.07-3.47,1.07.91.79,1.63.92,2.34.18.4-.41.74-.88,1.09-1.34.37-.39.74-.78,1.1-1.16-.11-.07-.23-.14-.34-.21-.24.48-.48.97-.72,1.45Zm9.71-.43l-.38-.54q-1.39-.2-.86,1.84c.55-.58.89-.94,1.23-1.3Zm22.06,1.25c1.29.63,1.85.36,1.53-1.19-.64.5-1.08.85-1.53,1.19Zm-4.79,3.46c.2-1.35.2-1.39-.49-1.44-.22-.01-.46.24-.84.44.5.37.81.61,1.33.99Zm-39.3-5.06h.42v-1.27c-.14,0-.28,0-.42,0v1.27Z"/>
      <path class="cls-2" d="m117.03,116.77c.16,6.42.31,12.84.47,19.42.28-.26.57-.4.59-.56.28-3.22,1.56-6.44.03-9.67-.07-.14-.11-.32-.1-.48.06-2.96.08-5.91.21-8.87.06-1.34.41-2.58,2.03-3.01.35-.09.84-1.13.72-1.28-.91-1.14.14-1.69.64-2.3,6.92-8.4,13.88-16.77,20.81-25.16.26-.31.41-.71.71-1.24,37.96,45.76,75.6,91.14,113.49,136.82-2.26.22-4.15.24-5.95.63-2.8.6-5.7,1.12-8.3,2.27-5.39,2.39-8.59,6.63-8.71,12.68-.06,2.93.41,5.87.66,9.06-1.67-.27-3.5-.54-5.33-.86-5.52-.97-11.04-1.94-16.55-2.96-1.04-.19-2.03-.61-3.04-.91-.39-.12-.79-.23-1.19-.28-7.26-.97-14.52-1.94-21.78-2.91-8.99-1.2-17.96-2.57-27.05-2.74-1.43-.03-2.03-.62-2.51-1.82-2.18-5.46-3.74-11.1-4.84-16.85-1.54-8.01-2.95-16.04-4.21-24.1-.95-6.01-1.6-12.07-2.33-18.11-.14-1.11-.48-2.26.31-3.34.18-.25.11-.84-.05-1.15-1.54-2.94-1.31-6.15-1.69-9.1,1.02-1.29,2.81-1.41,3.31-3.16-1.19.19-2.21.35-3.35.54-.25-.84-.46-1.53-.74-2.46-.19.84-.33,1.48-.52,2.34-.64,0-1.35.19-1.87-.04-.85-.38-1.79-.88-2.33-1.6-1.44-1.93-2.65-4.02-4.01-6.01-1.01-1.48-2.12-2.9-3.16-4.37-1.24-1.73-1.8-3.51-.37-5.45.17-.23.11-.62.2-1.18-1.15.22-2.14.41-3.49.68.74,2.09-.02,4.22,2.02,6.22,2.09,2.05,3.32,5,4.77,7.64.4.72.24,1.74.32,2.45,2.37,1.8,4.67,3.42,7.83,3.93-.44,3.85-.86,7.55-1.34,11.81-.78-.76-1.43-1.13-1.66-1.67-.35-.86.05-1.46,1.27-2.57-.1-1.24-.96-1.58-1.9-1.23-.93.35-.98,1.06-.68,2.17.7,2.61,1.18,5.37-1.39,7.41q1.24,1.74,3.63,2c-.19,1.85-.3,3.73-.57,5.57-1.72,11.71-3.11,23.49-5.96,35.01-1.2,4.87-2.84,9.63-4.3,14.43-.19.61-.57,1.17-.84,1.73-25.9,1.62-51.21,6.61-76.84,10.97.07-.59.15-1.11.2-1.63.25-2.29.73-4.58.69-6.86-.09-6.19-3.12-10.61-8.66-13.32-1.61-.79-3.24-1.55-4.87-2.3-.2-.09-.46-.07-.69-.08-2.76-.09-5.52-.17-8.89-.27,3.2-3.88,6.05-7.34,8.91-10.79,2.84-3.43,5.69-6.85,8.53-10.28,2.9-3.49,5.79-6.98,8.69-10.48,2.84-3.43,5.68-6.86,8.53-10.29,2.9-3.49,5.8-6.98,8.7-10.47,2.9-3.49,5.79-6.98,8.69-10.48,2.84-3.43,5.69-6.86,8.53-10.28,2.9-3.49,5.79-6.99,8.69-10.48,2.84-3.43,5.45-7.09,8.6-10.22,3.18-3.16,5.13-7.31,8.6-10.18.23.02.45.05.68.07Zm17.53,53.81c.24-.04.49-.04.72-.11.84-.27,1.51-.67,1.31-1.75-.2-1.09-.97-1.18-1.86-1.12-1.05.07-2.1.12-3.13.17-.04,2.3.53,2.78,3.17,2.82-.3.3-.9.69-.84.89.24.88.68,1.71,1.11,2.7.93-2.21.89-2.41-.49-3.61Zm22.29-15.6c-.71.09-1.42.35-2.07.23-.75-.14-1.42-.66-2.15-.93-1.36-.5-3.08.21-4.03,1.63.88,0,1.79-.19,2.58.05,1.06.33,2.04.94,3,1.52,1.76,1.05,2.49.71,2.73-1.34.04-.32-.03-.65-.05-1.16Zm-24.6-25.66c.37-1.65.77-3.15,1.04-4.67.15-.87.2-1.79.1-2.67-.03-.29-.62-.62-1-.74-.12-.04-.68.58-.63.82.44,2.06-.27,3.81-1.15,5.62-.47.96.11,1.47,1.64,1.65Zm-7.28,22.36c-.09-.16-.19-.31-.28-.47-.41.21-1.18.41-1.19.64-.07,1.93-1.48,3.2-2.24,4.77-.2.42-.39.84-.61,1.31,1.58.05,2.58-.62,3.08-2.1.46-1.37.83-2.77,1.23-4.15Zm24.56,18.01c-1.27.07-1.74.99-1.18,1.93.2.34.59.61.7.97.28.91.86,1.58,1.75,1.22,1-.4.65-1.35.33-2.13-.18-.45-.27-.98-.57-1.33-.28-.34-.78-.51-1.03-.65Zm-16.74-51.56c2.73-.81,4.18-3.27,3.39-5.6-.7.85-1.36,1.74-2.11,2.54-.77.82-1.82,1.45-1.28,3.06Zm-16.32,31.19l.52.06c.1-.86.25-1.71.28-2.57.07-2.02-.96-4.05-.03-6.08-1.63,2.75-1.09,5.68-.77,8.59Zm-66.65,68.28c-2.34-.5-3.82.85-5.52,1.16-.27.05-.42.74-.66,1.19,1.41.16,4.29-.91,6.18-2.35Zm84.15-42.22c.04,1.45-.85,3.23,1.43,4.11.25-1.72.33-3.19-1.43-4.11Zm-2.29-43.74c-2.16,1.12-2.18,2.33-.36,3.82.13-1.38.24-2.6.36-3.82Zm15.02-11.52c-2.16,2.93-2.16,3.19.28,3.75-.47-1.26.54-2.46-.28-3.75Zm-10.27,64.49c-.24.07-.48.14-.73.21v3.2c.96.3,1.83,0,1.79-.75-.05-.9-.68-1.78-1.06-2.66Zm-38.66,16.44v3.42c2-1.62,2.01-1.77,0-3.42Zm35.39,2.95c-1.43.15-2.14.67-1.83,1.45.16.39.88.9,1.19.81,1.27-.37,1.21-1.28.64-2.26Zm-18.3-28.78c.09.26.17.51.26.77.7,0,1.42.12,2.08-.05.33-.08.81-.87.72-1.01-.26-.4-.87-.95-1.17-.86-.68.2-1.26.74-1.88,1.15Zm37.57-43.51c.62-.61,1.13-.92,1.31-1.36.15-.36,0-.92-.19-1.32-.09-.2-.69-.39-.81-.29-.34.29-.73.71-.78,1.11-.05.49.23,1.01.46,1.86Zm-44.59,92.35c-.65-.82-1.41-1.84-2.31-1.1-1.04.86.04,1.59.71,2.27.57-.42,1.02-.75,1.6-1.18Zm53.63-39.61c1.46.58,2.27.21,2.79-1.02q-1.63-.83-2.79,1.02Zm-40.76-24.51c-.77,2.24-.6,2.47,1.74,2.34-.62-.84-1.11-1.49-1.74-2.34Zm55.24,61.17c0,.73-.17,1.31.04,1.58.28.36.87.47,1.33.68.01-.49.18-1.05,0-1.44-.16-.33-.73-.46-1.37-.82Zm-41.83-31.35c.76-2.34.73-2.4-1.5-2.82.48.91.88,1.65,1.5,2.82Zm-17.03-8.62c.45,1.06.58,1.86,1.8,1.72.22-1.17-.03-1.84-1.8-1.72Zm33.24,2.91c-.33-.4-.64-.95-.77-.91-.39.11-.71.46-1.06.72.3.32.55.72.91.92.12.06.53-.4.93-.73Zm-47.47-.26c-.26.67-.49,1.07-.53,1.48-.01.16.42.36.65.54.21-.39.5-.75.6-1.16.04-.15-.34-.42-.73-.86Zm67.05,4.13c-.64-.41-.82-.6-1.03-.65-.35-.08-.72-.11-1.07-.07-.07,0-.2.56-.13.61.3.21.66.41,1.01.46.26.04.55-.15,1.23-.35Zm-38.7-82.93c.63.94,1.2,1.06,1.8,0h-1.8Zm4.44,87.05c.29.05.57.09.86.14.04-.53.09-1.06.08-1.6,0-.05-.4-.09-.62-.14-.11.53-.21,1.06-.32,1.59Zm21.28,28.32c-.12.13-.24.25-.36.38.31.67.64,1.32,1.82,1.06-.49-.48-.98-.96-1.47-1.44Zm-9.2-42.86c-.19.11-.41.17-.41.24,0,.21.07.43.12.64.12-.07.32-.12.34-.21.03-.21-.02-.43-.04-.67Zm9.77-24.5c.19,0,.38,0,.56-.01-.05-.46-.1-.92-.16-1.37-.14.01-.27.03-.41.04v1.35Zm-63.22,68.95c.12-.09.25-.19.37-.28-.24-.33-.48-.66-.72-.98-.16.14-.31.28-.47.43.27.28.55.56.82.84Zm21.46-68.56c-.23.02-.45.04-.68.06.08.46.17.92.25,1.38.14-.02.29-.04.43-.06v-1.38Zm-46.96,73.49q1.42.35,1.08-.8c-.38.28-.73.54-1.08.8Zm93.07-.64c.02-.13.04-.27.06-.4-.39-.07-.78-.13-1.17-.2-.02.2-.04.4-.07.6h1.17Zm-1.06-115.01q.87.58,1.45-.15c-.58.06-1.02.1-1.45.15Zm-40,13.98c-.29.42-.5.59-.5.76,0,.21.15.43.24.65.18-.11.5-.21.51-.34.03-.26-.11-.53-.25-1.06Zm29.83,51.74c.25-.15.44-.26.63-.38-.11-.18-.25-.51-.34-.5-.25.03-.48.21-.72.33.13.17.26.33.43.55Zm10.97,24.26c-.34-.26-.6-.54-.66-.5-.22.14-.42.37-.53.61-.03.06.32.43.43.4.24-.06.44-.28.76-.52Zm-97.29-4.86c-.21-.13-.37-.24-.53-.34-.09.19-.26.38-.24.56.02.15.26.27.41.4.1-.18.21-.36.36-.62Z"/>
      <path class="cls-2" d="m74.27,116.45c-.08,2.32-1.91,2.88-3.66,3.56-.64.25-1.31.54-1.83.97-1.62,1.36-2.61,1.42-4.54.5-.71-.34-1.65-.21-2.81-.32.46.94.72,1.49.99,2.04-6.92,2.85-20.94,1.63-30.6-7.35-9.79-9.1-13.54-23.44-8.83-35.95,4.58-12.18,13.56-19.22,26.71-21.75-.53.95-.82,1.52-1.15,2.06-9.79,16.07-4.77,36.41,11.39,46.08.57.34,1.13.67,1.7,1.01,2.15,1.27,2.18,1.34,1.45,4.08-.76-.08-1.55-.15-2.58-.26-.66,1.01-1.36,2.08-2.15,3.29.8.37,1.37.63,1.85.86.59.93-.61,2.14.95,3.32.09-1.3.15-2.14.21-3.14,2.4-1.27,3.27-3.51,3.06-6.22,2.13-.12,2.27-.09,4.53,1.07-.09.44-.19.89-.31,1.45.31,0,.62.1.75-.01,1.55-1.31,3.13-1.7,4.89-.36.22.17.77.28.91.14,1.61-1.46,2.54-.41,3.22.81,1.46.23.83-2.3,2.79-1.36-2.38,1.88-3.06,5.53-6.94,5.47Zm-18.41-.29c-.59,1.44-.2,2.27.89,3q.42-1.77-.89-3Z"/>
      <path class="cls-2" d="m21.73,222.4c1.62,9.28,3.19,18.3,4.79,27.46-3.29.95-6.27,1.81-9.58,2.76-3.03-8.03-5.65-16.12-8.61-24.4,4.42-1.92,8.75-3.81,13.39-5.82Z"/>
      <path class="cls-2" d="m269.82,252.62c-3.31-.95-6.36-1.82-9.67-2.76,1.59-9.14,3.16-18.11,4.79-27.44,4.54,1.95,8.86,3.82,13.4,5.77-2.85,8.19-5.65,16.22-8.52,24.43Z"/>
    </g>
    <rect class="cls-1" x="0" width="300" height="300"/>
  </g>
</svg>