<?xml version="1.0" encoding="UTF-8"?>
<svg id="Layer_2" data-name="Layer 2" xmlns="http://www.w3.org/2000/svg" viewBox="0 0 300 299.66">
  <defs>
    <style>
      .cls-1 {
        fill: #000;
        stroke-width: 0px;
      }
    </style>
  </defs>
  <g id="Layer_1-2" data-name="Layer 1">
    <g>
      <path class="cls-1" d="m0,140.22c.44-2.13,1.07-4.24,1.3-6.4,1.02-9.2,2.79-18.25,5.49-27.1.13-.42.36-.8.63-1.37.65-.04,1.35-.08,2.24-.14-.07-.78.04-1.5-.2-2.06-.78-1.77-.45-3.36.21-5.1C23.19,62.44,46.74,35.56,80.17,17.43,99.64,6.88,120.59,1.07,142.69.15c41.93-1.73,78.62,11.49,109.55,39.92,17.53,16.11,30.49,35.47,38.73,57.89,5.13,13.98,8.24,28.38,8.91,43.27.04.78,0,1.55,0,2.51-.85.3-1.73.61-2.43.85-.44,1.06-.37,1.15,2.15,3.14,1.24,13.01-.61,25.75-3.81,38.29-8.99,35.19-28.23,63.57-57.47,85.11-14.57,10.73-30.64,18.5-48.1,23.21-11.08,2.99-22.34,4.76-33.87,5.21-13.22.51-26.22-.62-39.09-3.53-25.97-5.88-48.81-17.82-68.33-35.9-25-23.16-40.54-51.56-46.34-85.2-.6-3.5-.87-7.06-1.42-10.58C.94,162.72.4,161.17,0,159.59c0-6.46,0-12.92,0-19.38Zm31-48.37c-.05.72-.25,1.47-.12,2.16.34,1.77.82,1.89,2.92.95-3.55,8.49-6.85,17.04-8.97,26.05-2.38,10.13-2.57,20.47-3.69,30.72-.16,1.48.49,3.04.66,4.57.54,4.74.77,9.53,1.59,14.22,6.84,38.97,27.05,69.28,60.88,89.54,35.89,21.5,73.99,24.28,113.21,9.5,13.88-5.23,26.32-13.05,37.48-22.74,9.1-7.91,16.88-17.07,23.48-27.22,8.21-12.64,13.96-26.34,17.42-40.95,2.23-9.43,3.17-19.07,3.23-28.79.04-7.9-.66-15.78-1.97-23.52-1.09-6.42-3.18-12.72-5.33-18.9-6.64-19.09-17.25-35.72-31.78-49.8-6.82-6.61-14.24-12.46-22.37-17.38-1.75-1.06-3.19-2.24-3.45-3.83-2.07-.45-3.83-.58-5.39-1.21-5.14-2.1-10.21-4.38-15.3-6.61-.59-.26-1.13-.63-1.63-.92v-2.14c-.14-.03-.29-.06-.43-.09-.3.61-.6,1.21-.95,1.92-1.34-.33-2.53-.58-3.69-.93-22.01-6.65-47.97-7.5-73.02.03-24.19,7.27-44.48,20.57-61.03,39.62-7.63,8.79-13.74,18.58-19.02,28.96-.93-1.06-1.85-2.11-2.78-3.17-.62-.88-1.23-1.75-2.02-2.87-1.92,2.61-3.34,4.54-4.76,6.47.18.18.37.37.55.55.7-.56,1.69-.98,2.05-1.71.91-1.84,2.42-2.36,4.22-2.48Zm-13.05-.77c-.19,1.43-.37,2.85-.56,4.3-4.07-.74-4.32-.56-6.02,4,.74.33,1.49.67,2.06.92.58,1.33-.91,2.78,1.09,4.07.18-1.47.32-2.58.47-3.85,3.64-2.15,4.58-5.37,2.95-9.44Zm3.95,21.91l.61-.73c-1.32-1.4-2.52-2.96-4.02-4.14-.89-.7-2.21-.64-3.29.53,1.99,2.1,3.98,3.82,6.71,4.34ZM170.08,15.61c1.95.72,2.72-.38,3.36-1.95q-2.7-.64-3.36,1.95Zm82.15,43.5c-.24,0-.48,0-.72,0,.07,1.11-.48,2.22.72,3.33v-3.33ZM22.69,117.71c-.8-.85-1.31-1.97-2.6-.95-.23.18-.33.91-.15,1.14.88,1.18,1.75.78,2.75-.19Zm12.13-27.26q-.09-2.54-2.46-1.58c1.13.37.71,2.25,2.46,1.58Zm-8.23,15.99c-.34,0-.69.02-1.03.03-1,1.09-.57,1.95,1.18,2.67-.05-.9-.1-1.8-.15-2.7Zm254.83,37.27c-.25.34-.58.61-.54.78.06.25.39.57.62.6.19.02.59-.37.58-.57-.01-.24-.36-.46-.67-.81ZM18.53,202.68l-.78.07c.08.59.17,1.17.25,1.76.18-.02.35-.04.53-.06v-1.76ZM159.92,13.6c.03.27.06.55.08.82.53-.12,1.06-.25,1.58-.37l-.1-.58c-.52.05-1.04.09-1.56.14Z"/>
      <path class="cls-1" d="m144.33,189.52c.62-.96,1.02-1.58,1.42-2.2q-1.64-1.54-4.04,1.09c-.75-.16-1.63-.25-2.45-.53-4.95-1.67-9.89-3.38-14.83-5.09-2.99-1.04-5.2-2.87-6.34-5.94-.94-2.52-.87-2.89,1.4-4.27,1.45-.88,3.33-1.47,3.06-3.89-2.99-1.31-3.53,3.19-6.36,2.52-.5-1.44-2.18-2.73-.39-4.62.23-.25-.4-1.97-.75-2.01-1.95-.22-2.13-1.77-2.6-3.07-.87-2.4-1.65-4.84-2.42-7.28-.19-.58-.2-1.22-.33-2.11,5.66,5.09,11.55,5.54,14.48,1.21-2.23.14-4.39.35-6.55.39-2.59.05-4.27-1.27-5.55-3.52-1.41-2.47-3.01-4.86-4.82-7.06-2.12-2.58-3.07-5.67-4.04-8.7-.4-1.24.39-2.87.69-4.61-.58.06-1.15.11-1.96.19-.33-.65-.8-1.39-1.08-2.19-2.47-7.03-4.91-14.07-7.33-21.11-1.29-3.75-.86-7.29,1.66-10.38,3.08-3.78,7.22-4.88,11.72-3.38,10.42,3.47,20.75,7.23,31.13,10.82,8.18,2.83,16.39,5.59,24.59,8.4,4.52,1.55,9.03,3.14,13.55,4.68,3.5,1.19,5.85,3.48,7.06,7,4.41,12.83,8.85,25.65,13.29,38.47,3.46,9.98,7,19.94,10.33,29.96.68,2.04,1.01,4.42.68,6.52-.95,6.05-6.87,9.65-12.73,7.73-12.56-4.11-25.04-8.45-37.56-12.67-3.24-1.09-6.51-2.07-9.75-3.12-.94-.31-1.85-.72-3.17-1.23Zm-18.47-38.13l.2.61c.32.03.64.1.95.09,4.01-.24,4.84.34,6.01,4.08.56,1.8,1.35,3.52,1.85,5.33.55,2,1.65,3.05,3.7,3.74,12.73,4.28,25.4,8.74,38.09,13.12.9.31,1.84.5,3.13.85-.26-.91-.38-1.42-.55-1.91-4.45-12.91-8.97-25.8-13.31-38.75-.79-2.37-2.08-3.57-4.39-4.35-9.26-3.12-18.44-6.45-27.67-9.64-4.15-1.44-8.36-2.73-13.14-4.28,3.38,9.87,6.58,19.23,9.79,28.61-1.82.98-3.24,1.74-4.66,2.49Zm-19.3-40.27c.05-.69.08-.91.07-1.13-.03-.95.22-2.27-1.29-2.1-1.21.14-.98,1.33-.78,2.15.46,1.85-.05,3.43-1,4.99-.32.52-.62,1.24-.52,1.79.09.47.71.97,1.21,1.18.19.08.94-.53,1.04-.93.53-2.12.93-4.27,1.27-5.95Zm23.22,62.32c-.55-1.14-.87-2.43-1.67-3.2-.47-.46-1.73-.11-2.63-.12.09.66.07,1.37.3,1.98.3.79.69,1.62,1.27,2.21.37.38,1.18.56,1.72.46.36-.06.61-.78,1-1.33Zm-24.08-69.42c3.75-1.42,5.67-4.82,4.35-7.44-.83,1.11-1.6,2.3-2.53,3.35-.99,1.11-2.52,1.88-1.81,4.09Zm-1.85,22.37c.34-2.22,1.23-3.85-.05-5.54-1.95,2.23-1.95,2.43.05,5.54Zm20.14-19.61c-.24-.04-.47-.07-.71-.11q-2.29,3.59.21,4.41c.17-1.46.34-2.88.5-4.3Zm6.85,14.1c1.3-.69,2.38-1.25,1.66-2.75-.15-.31-1.1-.57-1.42-.39-1.45.83-.87,1.88-.25,3.14Zm-10.21,46.08c.11-.24.21-.48.32-.72-.46-.63-.92-1.25-1.55-2.11-.71.93-1.23,1.6-2.04,2.66,1.45.08,2.36.13,3.26.18Zm7.82,11.9c.34-.2.6-.35.86-.51-.15-.24-.34-.69-.46-.67-.34.04-.65.28-.98.44.18.23.35.45.58.74Zm18.43,3.22c-.11.15-.3.3-.3.45,0,.17.16.35.25.52.16-.2.35-.39.46-.61.02-.05-.26-.24-.4-.36Z"/>
      <path class="cls-1" d="m139.77,243.18c0-2.08,0-3.73,0-5.38,0-5.12-.07-10.24,0-15.36.09-5.99,4.41-10.46,10.19-10.7,5.64-.23,10.6,4.09,10.9,9.95.23,4.43-.12,8.88-.15,13.33-.01,1.54.23,3.08.24,4.62.05,4.56.11,9.13.04,13.69-.11,7.39-4.34,11.65-11.7,11.53-29.99-.48-56.04-10.92-77.98-31.37-15.23-14.21-25.63-31.47-31.5-51.46-.31-1.07-.66-2.13-.88-3.22-1.13-5.54,2.23-11,7.58-12.41,5.54-1.46,11.07,1.72,12.97,7.16,2.12,6.08,3.92,12.37,6.86,18.04,14.68,28.34,37.85,45.34,69.34,50.91,1.19.21,2.39.38,4.07.65Zm-78.84-30.03c.23.12.47.23.7.35.51-.56,1.3-1.03,1.49-1.68.34-1.17-.51-1.73-2.01-2.06-.06,1.22-.12,2.31-.17,3.4Zm81.11,27.24c-.35.23-.59.39-.83.54.17.22.32.59.52.62.23.04.52-.22.78-.35-.14-.24-.28-.49-.47-.82Z"/>
      <path class="cls-1" d="m243.49,160.4c-2.1,0-3.65,0-5.19,0-5.23,0-10.46.1-15.69-.04-6.03-.16-10.24-4.58-10.25-10.48,0-5.93,4.14-10.33,10.18-10.56,4.11-.16,8.23-.04,12.35-.05,6.23,0,12.47.15,18.69-.03,7.71-.22,11.98,5.33,11.85,11.74-.6,29.64-10.9,55.32-30.78,77.23-5.71,6.29-12.15,11.75-19.15,16.54-3.15,2.15-6.41,4.14-9.76,5.97-3.31,1.81-6.69,3.55-10.2,4.92-5.03,1.97-10.13,3.84-15.34,5.28-6.13,1.69-11.52-1.38-13.2-7.02-1.58-5.31.99-10.79,6.17-12.81,2.48-.97,5.1-1.55,7.6-2.48,34.73-12.96,55.33-37.8,62.3-74.1.23-1.17.24-2.39.41-4.1Z"/>
      <path class="cls-1" d="m161.66,56.82c-.77,1.74-1.4,3.17-2.17,4.92,1.49,1.32,1.65,3.42,1.56,5.67-.14,3.56.08,7.13-.17,10.68-.28,4.07-2.33,7.11-6.16,8.82-3.8,1.7-7.39,1.26-10.73-1.12-2.71-1.94-4.16-4.71-4.19-7.99-.09-10.91-.12-21.82,0-32.73.06-5.56,4.36-10,9.92-10.23,4.75-.2,9.5-.16,14.18,1.18,1.96.56,4.18.17,6.23.52,22.29,3.87,41.77,13.53,58.4,28.83,13.85,12.74,23.9,28.05,30.21,45.78,1.08,3.03,2.06,6.11,2.84,9.23,1.4,5.64-1.72,11.18-6.97,12.7-5.98,1.73-11.74-1.2-13.41-7.19-3.48-12.49-9.03-23.9-17.07-34.08-9.56-12.12-21.46-21.16-35.42-27.7-8.14-3.81-16.72-5.8-25.48-7.28-.54-.09-1.1-.01-1.56-.01Zm-8.01,9.56c.93-2.54,1.7-4.62,2.47-6.72-2.96-.39-4.1,2.19-2.47,6.72Zm-11.94,3.9q1.89.82,2.7-1.58c-1.67-.77-1.99.73-2.7,1.58Zm2.12-18.16c-.59,1.39-.36,2.19.64,2.95.82-1.24,1.07-2.15-.64-2.95Zm60.92,4.81h-3.52c1.22,1.26,1.94,1.71,3.52,0Z"/>
      <path class="cls-1" d="m57.24,139.28c1.59,0,2.8,0,4,0,5.23,0,10.47-.12,15.69.06,2.05.07,4.41.33,6.02,1.41,1.95,1.32,3.71,3.39,4.68,5.52.8,1.76.91,4.28.33,6.15-1.47,4.69-4.46,7.97-10.2,7.96-6.79-.02-13.57-.12-20.36-.13-3.67,0-7.34.16-11.01.13-6.83-.07-11.1-4.26-11.05-11.06.05-6.21.48-12.34,1.79-18.51.82-3.86,1.31-7.86,2.35-11.7,1.02-3.74,2.22-7.47,3.73-11.04,1.57-3.7,4.04-7.06,5.32-10.84,1.54-4.53,4.12-8.36,6.75-12.17,15.79-22.96,37.13-38.28,63.91-46.04,2.86-.83,5.65-1.18,8.46.05,4.06,1.77,6.65,5.73,6.54,10.01-.11,4.19-2.94,8.19-7.01,9.66-2.61.95-5.3,1.66-7.93,2.55-10.76,3.66-20.41,9.28-29.12,16.55-10.05,8.39-19.17,19.8-24.58,31.44-3.85,8.29-6.59,16.99-7.98,26.07-.16,1.08-.19,2.18-.33,3.92Zm-14.71-21.05q1.21-1.23,0-2.97v2.97Zm44.18-45.78q-1.15,2.49.58,4.43c-.22-1.7-.37-2.8-.58-4.43Zm-1.04-4.81c-.31.02-.62.03-.93.05.06.89.13,1.78.24,3.32,1.53-1.57,1.61-2.46.69-3.37Zm-40.75,43.19c.98,1.5,1.68,1.53,2.45.77.1-.1.01-.39.01-.77h-2.46Zm38.51,39.56c.29.03.58.06.86.09,0-.55,0-1.11-.03-1.66,0-.02-.55-.06-.56-.03-.12.53-.19,1.07-.28,1.6Zm-4.76-83.39c.01-.27.03-.55.04-.82-.47.05-.94.09-1.41.17-.02,0,0,.5.04.51.44.08.89.1,1.33.14Z"/>
      <path class="cls-1" d="m142.88,150.1c-.04-4.41,3.1-7.78,7.33-7.85,4.16-.07,7.68,3.38,7.7,7.56.02,4.24-3.37,7.68-7.58,7.68-4.08,0-7.41-3.3-7.45-7.38Z"/>
    </g>
  </g>
</svg>