<?xml version="1.0" encoding="UTF-8"?>
<svg xmlns="http://www.w3.org/2000/svg" viewBox="0 0 1368.16 3248.72">
  <defs>
    <style>
      .cls-1 {
        isolation: isolate;
      }

      .cls-2 {
        stroke-dasharray: 0 0 0 0 29.24 7.31 10.23 7.31;
      }

      .cls-2, .cls-3, .cls-4, .cls-5, .cls-6, .cls-7, .cls-8 {
        fill: none;
      }

      .cls-2, .cls-3, .cls-5, .cls-6, .cls-7, .cls-8 {
        stroke: #000;
        stroke-linecap: round;
        stroke-linejoin: round;
      }

      .cls-2, .cls-6, .cls-7, .cls-8 {
        stroke-width: 2.92px;
      }

      .cls-3 {
        stroke-width: 4.39px;
      }

      .cls-9 {
        mix-blend-mode: soft-light;
      }

      .cls-4 {
        stroke-width: 0px;
      }

      .cls-5 {
        stroke-width: 1.46px;
      }

      .cls-6 {
        stroke-dasharray: 0 0 0 0 29.4 7.35 10.29 7.35;
      }

      .cls-7 {
        stroke-dasharray: 0 0 10.29 7.35;
      }
    </style>
  </defs>
  <g class="cls-1">
    <g id="Layer_2" data-name="Layer 2">
      <g id="Layer_1-2" data-name="Layer 1">
        <g class="cls-9">
          <rect class="cls-4" x="-938.47" y="940.63" width="3247.26" height="1366" transform="translate(2308.79 938.47) rotate(90)"/>
          <path class="cls-5" d="m1365.7,938.56c-13.07-7.54-25.35-16.65-36.07-29.51-16.8-20.17-21.25-44.49-14.44-72.76,4.17-17.3,9.16-34.25,13.09-51.64,2.41-10.7,4.5-21.85,4.99-32.93,1.2-27.26-8.51-46.56-26.33-59.19-21.04-14.92-43.17-25.1-66.99-27.78-7.34-.83-14.79-1.52-22.1-.73-11.93,1.29-19.03,13.05-25.85,24.39-7.35,12.23-14.26,25.09-24.75,32.81-25.79,18.97-43.7,47.44-56.92,82.02-3.82,9.99-8.7,19.27-13.19,28.8-9.75,20.67-13.67,43.59-15.23,67.63-1.31,20.05-3.1,40.06-5.04,60.02-1.35,13.87-2.96,27.72-5.14,41.39-1.03,6.45-2.89,13.15-5.7,18.49-5.37,10.18-16.17,12.52-28.17,4.93-14.97-9.47-29.28-20.86-43.66-31.92-8.9-6.84-17.87-13.47-27.86-16.71-15.46-5.02-30.33-1.56-44.87,6.56-9.09,5.07-18.47,9.26-27.78,13.6-13.18,6.15-26.28,3.41-39.15-1.74-13.14-5.26-26.1-11.33-39.2-16.79-23.82-9.93-46.38-4.94-68.26,10.03-16,10.95-32.83,18.72-51.14,16.81-9.53-.99-18.95-3.95-28.45-5.7-14.52-2.69-29.03-5.48-43.6-7.56-21.63-3.1-43.22-5.99-60.65-26.29-8-9.31-15.97-18.66-24.02-27.89-13.08-14.99-28.53-21.28-45.48-22-23.17-.99-45.96,2.84-68.21,11.15-22.65,8.46-45.66,10.81-68.89,8.94-16.31-1.31-26.94,9.02-36.16,25.43-7.48,13.31-10.13,28.67-13.15,44.09-2.88,14.68-5.5,29.47-8.91,43.93-6.48,27.41-1.14,39.21,15.3,50.61,13.21,9.16,27.6,13.74,42.26,17.21,14.84,3.51,29.83,6.9,44.17,12.87,18.67,7.77,37.3,12.58,56.95,12.67,17.27.08,34.54,3.05,51.81,4.73,5.9.58,11.79,1.45,17.69,1.63,17.7.54,35.09,4.18,52.45,8.45,14.91,3.67,29.84,7.41,44.86,10.08,31.72,5.64,62.32,14.68,90.52,36.92,20.8,16.4,43.23,29.09,64.9,43.53,12.4,8.26,25.06,6.72,37.92,2.55,29.89-9.68,59.87-18.85,89.68-28.96,10.75-3.65,21.26-8.84,31.59-14.32,15.57-8.26,31.16-7.83,46.77-1.45,14.65,5.98,29.32,12.09,43.54,19.62,8.87,4.69,17.2,11.56,25.29,18.45,11.71,9.98,24.76,14.85,38,18.26,29.87,7.68,57.29,22.57,80.69,48.64,10.02,11.17,15.86,27.1,17.66,44.58,1.03,9.95,1.04,20.41,0,30.37-2.06,19.84-19.39,32.12-33.92,27.84-19.86-5.84-39.59-12.42-59.42-18.46-10.07-3.07-20.31-5.17-30.29-8.65-8.5-2.97-15.62-9.74-22.16-17.57-6.45-7.73-12.65-15.98-19.66-22.68-10.61-10.12-23.04-13.67-35.92-14.55-7.37-.51-14.75-1.61-22.11-1.52-5.9.07-11.84,1.17-17.68,2.45-17.43,3.82-28,19-36.11,38.75-6.95,16.93-14.1,33.82-22.2,49.79-7.12,14.03-18.06,20.75-30.79,20.29-9.28-.34-18.53-2.21-27.81-3.2-12.23-1.31-23.48,1.01-32.27,14.29-11.73,17.75-20.26,37.04-20.26,61.76,0,19.62,11.59,34.15,25.36,35.33,15.55,1.33,31.17,1.04,46.74,1.99,7.18.44,14.5,1.17,21.45,3.48,11.88,3.95,17.55,15.08,18.78,33.63,1.69,25.39-1.56,49.69-14.32,70.14-8.4,13.46-19.28,22.47-31,29.48-20.93,12.51-42.11,24.28-63.14,36.48-15.43,8.95-26.99,4.55-34.57-15.36-12.27-32.22-23.89-64.94-34.73-98.06-6.24-19.06-7.28-40.13-9.1-60.74-3.14-35.58-12.44-66.05-38.45-82.96-13.33-8.67-27.17-9.53-41.08-5.61-25.59,7.21-51.06,15.25-76.46,23.61-14.7,4.83-28.58,13.22-40.98,24.61-19.63,18.03-41.16,27.46-64.55,31.25-7.91,1.28-15.86,3.94-23.34,7.62-12.04,5.93-19.55,19.14-25.2,33.69-8.29,21.35-16.46,42.9-23.21,65.16-3.75,12.35-5.23,26.21-6.47,39.6-3.3,35.55-7.42,70.7-19.73,103.11-.85,2.25-1.86,4.42-2.5,6.78-6.13,22.63,2.3,31.44,17.05,32.52,10.86.8,21.93-1.94,32.83-3.9,16.44-2.95,32.81-3.69,49.3-.8,21.14,3.71,42.2,5.07,63.2-2.35,14.86-5.25,30.04-9.76,45.46-9.2,20.98.77,40.44,6.83,55.89,29,6.95,9.99,16.5,17.4,25.72,23.77,20.87,14.4,40.81,30.46,58.69,50.94,2.97,3.4,6.55,5.87,9.4,9.41,7.11,8.81,6.38,19.07-2.55,22.43-17.52,6.6-27.83,23.58-36.42,42.72-9.51,21.2-10.96,37.53,2.31,59.1,6.6,10.73,13.25,21.18,22.15,28.72,13.42,11.36,26.89,8.45,40.45.79,5.3-2.99,10.5-6.31,15.81-9.26,13.02-7.21,25.54-4.25,37.92,3.3,7.9,4.81,15.94,9.25,24.03,13.46,2.08,1.08,4.6.91,6.92.93,13.06.08,26.12.36,39.17-.04,18.29-.56,36,3.93,53.73,9.22,15.84,4.72,31.57,10.33,47.99,11.28,18.7,1.08,32.84-7.96,43.83-28.66,6.76-12.73,15.33-23.95,23.89-34.72,11.11-13.98,24.59-16.8,38.37-8.42,17.55,10.68,35.68,18.41,54.37,24.48,20.14,6.55,35.16,23.83,48.01,44.68,11.42,18.52,25.59,31.57,42.38,39.66,6.89,3.32,13.87,6.33,20.85,9.32,14.17,6.08,20.42,19.23,20.97,38.9.7,25.37,14.91,39.98,31.47,38.11,9.48-1.07,15.06-12.02,11.82-22.79-2.69-8.93-6.97-17.01-10.58-25.45-.29-.67-.86-1.1-1.24-1.71-14.49-22.87-13.11-36.91,4.33-55.93,11.06-12.06,24-15.43,37.37-17.52,13.44-2.1,26.95-3.51,40.43-5.12,2.3-.27,4.63-.04,6.95-.04"/>
          <path class="cls-3" d="m968.91,3246.41c3.15-25,7.06-49.78,8.44-75.22.96-17.76,2.13-35.9,8.04-52.4,7.24-20.23,20.52-32.67,33.38-45.79,11.64-11.88,23.88-22.6,33.72-37.74,15.12-23.27,16.24-61.29,1.73-87.27-1.71-3.07-3.48-6.1-5.04-9.31-6.12-12.64-4.65-15.46,3.2-26.11,4.71-6.38,9.95-12.08,15.12-17.81,16.1-17.82,26.19-41.76,36.48-65.24,11.45-26.11,27.45-44.39,48.18-55.64,12.72-6.9,25.37-14.09,35.31-27.17,9.63-12.67,18.06-26.24,19.83-45.54,1.25-13.57-3.59-21.93-10.98-28.66-5.6-5.09-11.6-9.49-17.66-13.57-13.24-8.9-24.22-20.53-26.32-41.53-.77-7.68-.06-15.96,1.2-23.6,4.46-26.94,14.75-50.16,27.08-71.85,5.43-9.56,10.96-19.11,17.09-27.84,13.69-19.48,15.55-41.99,11.38-66.91-3.9-23.31-10.18-45.39-19.17-65.81-13.07-29.71-30.09-33.86-52.95-30.56-7.15,1.03-14.33,1.64-21.48,2.59-7.8,1.03-15.57,2.48-23.38,3.29-9.19.95-16.7,7.04-23.98,13.64-23.75,21.53-43.55,48.45-61.6,78.25-7.96,13.14-18.84,23.26-28.84,34.02-10.01,10.77-17.73,23.96-19.14,40.75-1.2,14.38-.16,29.5,1.74,43.85,3.65,27.52,9.86,54.49,12.73,82.11,3.5,33.63,4,67.45-9.06,98.92-7.05,16.98-16.4,31.35-26.02,45.56-13.01,19.22-26.14,38.29-39.15,57.51-17.45,25.78-39.05,39.34-65.07,36.02-19.76-2.52-33.38-11.55-36.24-47-2.18-26.93-.92-52.63,8.48-76.91,2.95-7.62,6.38-14.97,10.1-21.98,13.84-26.12,15.17-53.66,6.32-82.92-7.72-25.54-16.17-50.51-26.44-74.48-8.24-19.23-20.03-32.31-34.96-40.27-12.86-6.86-26.1-11.9-40.39-11.46-10.2.32-19.87,2.76-29,8.06-11.39,6.61-22.91,13.35-33.4,22.11-11.79,9.84-20.94,23.24-25.56,41.9-8.23,33.22-22.7,61.82-39.03,88.83-7.16,11.84-14.12,23.9-21.55,35.42-4.92,7.63-11.31,13.11-18.9,14.23-4.53.67-9.45.06-13.85-1.63-17.99-6.92-35.78-14.77-53.76-21.74-21.51-8.34-35.81-25.92-42.43-54.98-4.03-17.72-8.57-35.32-14.01-52.33-3.2-10-7.94-19.49-13.2-27.86-9.21-14.68-12.86-31.84-15.02-50.04-2.31-19.45-4.59-38.9-6.96-58.33-1.38-11.29-3.31-22.29-.13-33.89,3.29-12.01,10.11-16.7,18.48-17.51,18.59-1.79,36.63,1.84,53.73,12.41,2.5,1.54,5.41,2.11,8.19,2.57,10.44,1.74,16.22-5.09,16.4-19.39.13-10.42-.1-20.85.05-31.28.3-20.83,4-40.22,13.19-57.54,7.84-14.78,18.05-22.97,31.62-25.56,15.3-2.93,29.35,2.86,42.89,9.91,17.08,8.89,34.33,14.22,52.54,12.15,9.87-1.12,19.88-3.78,27.75-12.61,17.21-19.32,16.61-49.67-.67-69.06-9.56-10.73-19.97-20.17-30.27-29.66-9.92-9.14-15.85-21.93-20.16-36.44-1.99-6.71-4.11-13.4-5.64-20.3-4.1-18.47-12.71-31.72-25.34-40.55-15.36-10.74-30.65-21.68-46.16-32.03-8.85-5.91-17.87-11.56-27.17-16-18.81-8.98-37.96-16.7-56.8-25.61-24.34-11.51-47.84-7.82-70.74,6.16-8.12,4.96-15.72,11.5-23.41,17.64-10.24,8.18-16.13,20.77-16.79,36.33-.36,8.61,1.75,17.64,3.62,26.14,2.7,12.3,6.68,24.1,9.25,36.44,3.68,17.66,2.8,35.3-2.42,52.37-9.23,30.17-17.94,60.67-28.07,90.29-4.21,12.31-11.67,22.58-17.37,34.02-6.09,12.23-11.87,24.73-17.73,37.17-6.36,13.49-11.81,27.93-19.19,40.33-7.91,13.3-19.5,20.55-31.35,26.5-6.19,3.1-12.29,6.53-18.32,10.14-7.42,4.44-9.73,13.62-6.28,26.14,3.74,13.61,11.8,23.03,19.66,31.95,12.85,14.57,25.48,30.04,41.61,38.11,10.97,5.49,22.33,9.55,33.44,14.54,19.83,8.89,39.82,17.24,59.32,27.29,12.86,6.62,18.68,22.2,20.06,39.5,1.46,18.17,1.57,36.61,1.36,54.91-.22,18.61-2.37,37.22-2.16,55.79.21,18.62,1.6,37.35,3.76,55.76,1.99,16.9,2.07,33.56-2.95,48.95-8.28,25.38-17.88,50.02-33.29,69.42-12.39,15.6-27.21,23.05-44.21,23.81-11.6.52-23.3,1.04-34.72,3.52-17.45,3.79-21.7,21.66-22.61,37.8-.52,9.21.71,18.58,1.09,27.88.64,15.6-2.05,30.54-9.67,42.03-11.24,16.97-24.19,31.89-35.7,48.56-10.03,14.53-19.57,29.79-28.4,45.65-8.21,14.75-15.72,30.09-27.96,39.56-10.34,8.01-21.66,11.44-33.44,13.83-11.22,2.28-21.98.4-32.89-1.95-14.74-3.17-26.37-13.1-35.37-28.78-11.63-20.25-23.13-40.62-34.81-60.81-1.99-3.44-4.59-6.25-6.9-9.35"/>
          <g>
            <path class="cls-8" d="m2.82,1537.93c2.81,3.98,5.62,7.96,8.44,11.94"/>
            <path class="cls-7" d="m15.5,1555.86c2.69,3.8,5.37,7.61,8.04,11.42"/>
            <path class="cls-6" d="m25.67,1570.29c11.15,15.49,23.9,28.37,37.2,40.3,15.21,13.65,27.36,31.67,38.97,50.13,8.81,14.02,18.98,25.56,29.93,36.04,8.17,7.81,16.67,15.02,25.26,21.99,7.58,6.16,13.22,14.9,13.48,26.3.21,9.51-2.53,19.34-4.75,28.69-8.92,37.55-26.99,67.66-44.62,98.26-7.7,13.38-13.85,28.41-20.32,43-5.77,13.01-10.8,26.61-16.54,39.64-7.08,16.07-10.06,33.49-7.96,51.57,2.55,21.94,14.1,33.08,29.49,38.08,7.79,2.53,15.59,5.06,23.38,7.62,1.49.49,3.12.73,4.4,1.74,15.81,12.44,18.22,29.38,2.45,43.7-8.06,7.33-17.19,12.56-25.8,18.81-6.81,4.94-13.67,9.76-18.35,18.56-7.34,13.79-5.76,28.68-1.04,42.16,14.45,41.25,34.62,76.84,61.72,104.95,10.09,10.46,20.01,21.24,30.38,31.18,10.78,10.33,16.99,24.8,21.28,40.75,3.78,14.06,11.57,23.29,21.64,22.07,8.98-1.09,17.52-8.49,21.95-23.91,2.54-8.86,4.17-18.41,5.08-27.84,1.88-19.58,8.39-34.71,21.63-43.89,17.53-12.16,28.98-31.96,38.47-54.19,4.11-9.62,7.65-19.67,11.42-29.55,8.02-20.99,5.55-41.71-.55-62.59-3.97-13.6-8.41-27.26-10.55-41.46-3.37-22.4-.75-37.67,15.03-52.07,16.53-15.09,35-25.71,53.54-35.85,11.01-6.02,22.49-9.76,34.16-10.49,7.93-.49,16.31,1.66,23.93,4.93,15.59,6.69,30.59,15.93,46.24,22.32,23.6,9.62,47.37,18.77,71.42,25.99,12.16,3.65,25.44,6.36,37.14-3.91,4.2-3.68,8.68-8.02,11.25-13.55,9.93-21.32,20.02-42.65,28.38-65.1,9.04-24.3,5.13-47.1-10.67-62.08-19.52-18.51-39.98-35.34-60.6-51.62-11.02-8.7-23.61-10.31-36.55-8.03-13.62,2.4-27.35,3.76-41.06,5.16-9.46.96-18.95,1.57-28.43,1.65-6.95.06-13.9-.97-20.85-1.58-15.06-1.32-29.45,3.36-43.57,9.41-14.64,6.27-29.41,12.01-44.87,10.7-15.95-1.35-30.28-7.6-38.62-28.5-8.66-21.71-5.5-45.94,6.98-65.18,5.49-8.47,11.16-16.91,15.71-26.27,10.58-21.76,12.21-45.38,6.47-70.08-1.29-5.54-2.16-11.25-3.19-16.89-3.2-17.54,4.3-29.59,12.03-41.39,6.19-9.45,13.27-17.99,18.76-28.09,7-12.86,13.27-26.55,19.01-40.5,8.67-21.07,21.87-31.95,39.24-36.56,12.2-3.24,24.89-6.48,33.56-20.81,6.76-11.18,8.72-24.74,11.4-38.05,2.01-9.97,4.22-19.93,6.96-29.57,6.03-21.23,14.5-25.54,29.64-16.14,12.14,7.54,24.31,15.04,36.65,21.95,25.31,14.17,51.3,13.63,77.01,3.21,23.46-9.51,45.13-3.16,66.34,9.71,9.59,5.81,18.55,13.47,27.87,20.1,11.32,8.05,19.23,7.51,25.78-6.83,11.65-25.53,25.7-49.48,33.33-77.81,5.64-20.96,9.84-43.04,8.36-65.79-.97-14.95-6.66-27.44-13.73-38.95-10.47-17.04-23.88-29.02-38-39.58-18.63-13.94-37.59-27.27-58.13-35.42-15.79-6.26-31.9-8.63-48.64-5.6-18.41,3.33-36.73,9.02-55.57,7.15-25.73-2.56-51.58-2.42-76.53-14.12-17.29-8.1-33.73-.08-49.18,10.76-14.95,10.48-26.44,25.7-34.92,45.47-5.57,12.98-12.52,24.88-18.81,37.31-11.49,22.71-20.01,47.26-26.01,73.5-2.82,12.34-6.27,24.49-10.09,36.35-8.55,26.53-25.21,34.14-46.73,25.62-15.65-6.2-29.52-16.87-43.5-27.39-7.99-6.02-16.45-10.95-25.34-11.27-8.91-.32-17.31,4.93-24.63,12.25-9.28,9.28-18.34,18.97-27.85,27.81-16.13,14.99-32.93,13.92-49.15.73-9.76-7.93-18.1-19.08-28.02-26.55-13.6-10.23-27.78-19.4-42.29-27.07-16.51-8.73-30.5-22.43-44.78-35.79-1.25-1.17-2.49-2.34-3.74-3.51"/>
            <path class="cls-8" d="m12.83,1323.93c-3.55-3.34-7.09-6.69-10.64-10.03"/>
          </g>
          <path class="cls-3" d="m1365.07,23.03c-6.95,10.5-15.99,8.43-24.62,6.59-8.1-1.73-16.18-4.26-23.99-7.61-8.7-3.72-15.85.72-22.74,6.2-11.8,9.4-21.79,21.63-31.16,35.21-13.52,19.6-27.5,38.81-42.35,56.58-14.12,16.89-29.78,14.22-39.42-7.53-4.81-10.86-7.4-23.48-10.95-35.34-4.48-14.99-13.57-22.58-25.26-19.29-20.13,5.65-40.24,11.6-58.81,24.31-13.03,8.92-23.32,21.38-26.88,40.72-1.73,9.36-2.16,19.22-1.36,29.57,1.3,16.67,1.12,34.13-1.19,50.56-2.76,19.6-13.83,32.17-27.48,38.73-15.72,7.56-31.96,13.16-47.95,19.71-14.53,5.95-27.26,16.46-39.14,28.78-16.35,16.96-32.2,34.8-48.76,51.37-14.97,14.98-32.35,23.82-50.5,28.65-27.54,7.34-55.07,14.41-82.16,24.49-8.29,3.08-17.2,3.5-25.86,4.23-2.66.22-6.9-1.64-7.82-4.22-1.03-2.88.15-8.25,1.65-11.48,5.35-11.55,11.41-22.51,16.89-33.96,7.41-15.48,10.19-33.36,13.91-50.7,3.5-16.29,7.31-32.52,9.97-49.07,2.28-14.19,4-28.62-.37-43.12-5.3-17.57-15.11-26.63-28.51-30.45-14.78-4.21-28.91.53-42.95,5.26-21.2,7.14-41.78,4.68-62.64-3.17-12.26-4.61-25.29-5.4-37.81-8.95-11.08-3.14-21.94-7.67-32.88-11.69-7.39-2.72-14.63-6.6-22.14-8.23-16.69-3.63-34.87,17.78-34.67,40.38.14,16.35,1.13,32.69,1.12,49.03-.01,17.47-.63,34.95-1.2,52.41-.96,29.12,2.5,57.39,8.14,85.42,2.91,14.44,5.48,29.15,6.84,43.96,1.3,14.17-1.92,27.7-6.69,40.58-9.02,24.4-17.54,49.13-26.66,73.46-5.72,15.27-13.02,29.11-21.91,41.63-7.93,11.17-16.49,21.83-21.67,36.15-4.09,11.3-5.72,23.27-6.21,35.55-1.03,26.09,2.35,51.19,10.05,75.24,4.97,15.52,12.64,28.54,22.89,37.78,13.52,12.19,27.99,8.81,41.52-.74,15.57-11,26.79-28.31,36.09-48.02,9.5-20.15,23.83-28.54,41.04-30.58,10.79-1.28,21.48-3.9,32.23-5.77,14.71-2.56,29.45-4.63,44.22-.83,7.96,2.05,14.43,7.87,20.22,15.19,4.22,5.34,8.24,11,12.68,16,9.14,10.29,19,5.77,27.66-.2,21.78-15,43.41-30.53,64.44-47.33,16.97-13.56,29.71-33.61,40.49-55.6,14.1-28.78,35.13-39.67,59.44-43.16,11.63-1.67,23.13-5.45,34.77-6.39,14.06-1.13,28.22-.69,42.32-.13,10.13.4,20.21,2.47,30.33,3.15,13.47.92,26.97.94,40.43,1.89,7.4.52,14.76,3.16,22.12,3.04,11.85-.19,23.62-2.09,34.14-10.73,7.18-5.9,12.31-14.15,15.06-24.59,3.66-13.84,2.59-28.07.73-42.23-1.55-11.82-3.33-23.61-4.36-35.51-1.63-18.95,3.31-36.5,7.56-54.06,2.62-10.85,5.39-21.71,8.87-32.1,9.68-28.89,30.62-31.82,48.56-16.94,4.27,3.54,8.43,7.31,12.64,10.97,13.15,11.45,27.45,14.19,42.3,8.29,14.48-5.75,28.75-12.53,42.98-19.36,14.96-7.18,30.4-10.12,46.14-9.89,7.38.1,14.75,2.04,22.11,3.22,11.78,1.89,20.61-4.04,26.54-17.76"/>
          <path class="cls-3" d="m1365.07,974.91c-1.68-1.97-3.22-4.25-5.08-5.87-17.86-15.58-35.94-30.74-53.62-46.66-10.27-9.24-17.04-22.45-19.57-38.79-2.73-17.58-.04-34.77,3.8-51.51,3.6-15.66,8.99-30.71,11.66-46.61,3.7-22.02-.4-41.76-14.25-56.6-10.01-10.71-20.27-20.6-32.86-25.41-7.11-2.72-14.1-4.16-21.51-2.54-10.34,2.26-16.34,12.26-21.97,22.2-6.64,11.72-12.87,23.68-23.53,29.39-4.32,2.32-8.9,3.76-13.24,6.02-13.86,7.22-25.21,18.28-33.66,35.32-10.07,20.32-21.79,39.18-31.92,59.45-7.9,15.81-11.61,34.04-12.11,53.13-.61,23.1-1.34,46.22-1.11,69.31.11,11.01,1.48,22.31,3.76,32.91,5.17,24.04,14.73,28.42,30.17,29.37,7.95.49,16.02-3.15,23.99-2.83,13.19.53,27.08-4.72,39.21,7.29,12.21,12.09,20.22,27.1,20.18,48.23-.02,10.93-4.06,19.98-8.96,27.75-10.66,16.89-24.4,28.41-39.7,36.42-11.13,5.83-22.56,11.44-34.72,10.05-18-2.05-35.31-7.89-51.22-20.05-7.89-6.03-12.32-16.11-14.86-26.4-7.93-32.15-25.26-53.41-44.59-72.42-10.67-10.48-22.37-19.06-33.36-28.98-10.4-9.38-22.08-14.14-34.19-15.55-6.58-.77-13.55,2.44-20.17,4.74-11.87,4.12-23.48,9.72-35.44,13.22-17.06,4.99-33.91,1.46-50.52-4.84-12.39-4.7-24.66-10.98-37.31-13.1-17.52-2.94-35.19-.54-51.74,8.91-18.62,10.63-37.82,17.58-58.14,15.76-11.22-1-22.45-3.57-33.47-6.7-16.79-4.77-33.48-6.19-50.59-3.39-23.41,3.83-44.68-2.99-62.62-25.05-6.83-8.4-14.51-15.61-22.06-22.89-11.05-10.65-23.21-13.06-36.64-9.59-13.15,3.4-26.56,2.79-39.77-.65-24.03-6.26-46.43-.07-66.89,17.12-13.62,11.44-17.52,33-13.24,56.42,3.28,17.9,12.16,29.81,24.46,38.25,18.99,13.02,38.31,24.96,58.86,32.63,15.01,5.6,30.31,9.36,46.11,5.38,4.51-1.14,9.28-.35,13.88-1.04,18.73-2.8,37.55-5.65,55.55,4.45,9.35,5.25,18.33,11.84,27.19,18.51,17.16,12.93,35.92,19.04,55.02,23.49,23.69,5.53,45.68,16.28,66.45,32.79,18.38,14.61,37.86,27.44,59.32,31.08,11.97,2.03,24.47.34,36.58-1.47,15.88-2.37,31.69-5.95,47.39-10.03,22.28-5.79,44.13-13.39,64.56-27.52,10.57-7.31,21.89-13.71,34.03-14.31,6.27-.31,12.72,2.02,18.93,4.02,17.53,5.65,35.06,11.33,52.43,17.8,11.65,4.34,21.23,14.03,30.35,24.38,11.7,13.27,25,21.24,40.44,22.88,21.01,2.23,41.53,8.27,61.92,15.15,23.51,7.93,44.3-.36,62.44-20.47,10.53-11.67,20.28-24.71,29.73-37.96,15.49-21.71,34.31-33.63,56.3-38.05,16.91-3.39,33.71-7.78,50.56-11.73"/>
          <path class="cls-3" d="m1365.7,1393.37c-6.95-9.58-14.45-18.56-20.72-28.88-9.48-15.61-20.71-20.75-35.55-17.06-16.46,4.09-33.22,6.06-49.88,8.71-14.95,2.38-25.6,11.32-31.17,31.21-3.71,13.25-8.3,26.64-14.57,37.9-12.06,21.64-33.11,32.56-57.25,20.56-13.86-6.89-27.57-14.6-41.76-19.98-11.66-4.42-23.88-6.53-35.96-8.65-18.28-3.2-35.16-9.54-48.79-27.83-6.73-9.03-14.46-17.29-22.73-23.56-12.17-9.23-25.59-11.03-39.71-8.21-13.38,2.68-25.42,8.59-33.92,22.45-12.01,19.58-18.36,42.53-17.13,68.28.51,10.59,5.05,19.09,10,27.07,5.01,8.08,9.52,16.49,11.43,27.02,2.86,15.73,1.03,31.19-1.4,46.48-2.98,18.71-8.27,37.02-9.56,55.88-1.25,18.38-3.66,38.23,6.44,54.94,7.07,11.69,16.67,17.93,26.6,23.57,11.3,6.42,22.75,12.39,34.1,18.66,15.03,8.3,26.39,20.9,29.11,43.94,1.43,12.1.35,23.83-1.93,35.51-3.54,18.13-8.14,35.76-15.85,51.52-11.66,23.86-27.45,26.48-45.39,17.59-16.06-7.96-27.47-24.2-36.63-42.98-10.86-22.26-21.21-44.96-31.64-67.59-5.58-12.1-13.83-19.23-24.05-19.86-6.88-.43-14.03,2.28-20.8,4.83-11.08,4.17-21.3,11.07-29.7,21.86-10.55,13.56-14.38,29.62-10.25,49.03,2.48,11.61,4.98,23.54,5.55,35.49.97,20.13-4.62,37.23-17.48,48.95-5.07,4.61-10.52,8.46-15.76,12.76-10.87,8.92-17.97,21.24-18.27,38.88-.28,16.9-.89,33.91.17,50.69,1.03,16.32,9.34,27.58,19.43,35.36,17.03,13.15,35.3,22.81,54.29,29.64,12.72,4.58,25.54,9.99,38.55,11.47,17.36,1.97,34.94.89,52.41.37,17.64-.52,34.2-7.25,49.22-19.48,11.51-9.38,22.32-20.29,33.59-30.22,6.15-5.42,12.48-10.52,18.95-15.21,12.64-9.16,24.89-6.06,36.59,3.38,5.85,4.72,11.07,10.99,17.16,14.95,10.26,6.66,20.81,12.69,31.56,17.81,18.36,8.76,34.73,21.17,48.75,39.69,9.24,12.2,18.39,24.9,30.17,33.2,17.9,12.59,35.35,11.69,52.45-2.58,15.1-12.6,27.2-28.97,33.31-51.65,2.75-10.2,4.14-21.23,5.11-32.06,1.75-19.64,4.01-39.04,9.63-57.45,5.9-19.35,11.82-38.39,12.18-60.03.53-31.86-2.27-62.81-11.82-92-2.99-9.13-8.75-16.79-13.72-24.58-4.93-7.72-10.85-14.31-15.64-22.15-10.39-16.99-11.12-36.31-6.4-56.55,10.52-45.17,32.68-73.84,67.66-82.45,10.39-2.56,21.43-.39,32.17-.39h8.85"/>
          <path class="cls-5" d="m1365.07,459.24c-2.74-2.54-5.43-5.16-8.22-7.59-13.32-11.63-22.9-27.97-32.33-44.7-5.46-9.68-11.42-19.26-18.36-26.91-10.39-11.45-23.05-13.06-35.83-8.61-17.35,6.05-34.45,13.48-51.87,19.14-13.51,4.39-27.28,7.57-41.05,10.15-10.81,2.02-19.46,8.6-25.76,19.77-8.13,14.4-13.54,30.87-15.18,48.92-1.4,15.41-1.57,31.01-2.69,46.47-1.79,24.76-9.64,44.68-25.8,58.45-15.54,13.24-32.8,18.88-50.6,22.7-10.74,2.3-21.63,3.7-32.17,7.05-7.6,2.41-14.58,1.25-21.5-2.07-8.54-4.09-16.84-9.05-25.31-13.39-11.99-6.15-24.29-10-37.27-10.29-18.23-.41-36.17,1.43-53.72,8.53-13.08,5.29-24.17,14.81-33.42,28.02-6.84,9.76-13.16,20.16-19.64,30.37-11.96,18.86-27.69,31.11-43.73,41.94-21.55,14.55-39.09,34.69-54.41,59.27-5.08,8.15-11.9,15.07-18.88,20.22-13.12,9.68-24.86,2.85-35.21-9.1-5.17-5.97-10.03-12.54-14.54-19.41-19.79-30.19-44.62-28.64-68.18-8.17-15.52,13.48-29.84,29.42-45.02,43.63-11.72,10.97-24.21,20.48-35.84,31.61-5.12,4.9-9.66,11.54-13.24,18.51-7.91,15.36-3.36,29.69,5.03,43.7,3.5,5.84,8.1,10.63,12.56,15.28,16.33,17.07,33.1,33.42,49.16,50.92,14.74,16.05,32.07,23.2,50.01,28.52,19.31,5.73,38.73,10.85,58.12,16.13,18.68,5.09,36.49,2.67,53.09-10.93,8.93-7.31,18.21-13.88,27.11-21.26,8.02-6.65,16.68-8.6,25.93-9.38,23.3-1.97,45.22,3.12,65.76,18.66,15.87,12.01,32.54,13.5,49.9,5.3,14.46-6.83,29.32-12.2,44.83-11.85,16.06.37,31.5,4.76,46.17,14.13,9.87,6.3,20.04,11.88,30.31,16.92,15.79,7.76,24.75-.34,30.11-16.91,5.69-17.59,8.04-36.58,9.75-55.67,1.87-20.75,2.16-42.04,8.26-61.66,3.97-12.77,8.86-25.08,13.85-37.21,6.01-14.6,12.56-28.8,18.88-43.17,8.25-18.74,17.84-36.13,31.65-48.06,19.12-16.52,33.69-38.81,47.44-62.56,7.76-13.4,18.25-21.58,31.47-20.3,12.24,1.19,24.43,3.37,36.66,4.92,6.3.8,12.66,1.93,18.95,1.58,16.26-.9,31.27,6.73,46.77,11.07,9.17,2.57,18.53,4.84,27.77.82,8.93-3.88,16.12-10.97,20.24-22.73"/>
          <path class="cls-5" d="m384.46,3247.26c1.68-28.74,2.57-57.63,5.4-86.17,1.35-13.6,6.06-26.72,9.84-39.75,5.6-19.32,11.63-38.41,17.65-57.51,3.23-10.25,7.97-18.93,14.41-26.37,11.56-13.36,33.31-12.43,47.39.32,11.18,10.12,21.75,21.51,32.27,32.87,13.21,14.27,27.95,24.28,44.91,24.83,9.43.3,18.97-3.87,28.42-6.34,16.66-4.37,33.43-8.18,49.88-13.72,15.76-5.31,27.57-17.22,31.09-40.33,1.57-10.33-.72-19.64-3.38-28.7-3.23-11-7.15-21.7-11.31-32.14-5.97-15-10.93-30.69-12.3-47.43-1.33-16.3,3.97-30.23,14.3-39.61,14.85-13.48,30.92-20.08,49.27-16.41,10.36,2.07,21.13,2.84,31.54,1.59,12.48-1.5,21.98-11.01,25.76-27.6,2.22-9.75,3.11-20.16,3.88-30.37,1.55-20.53,1.95-41.25,4.06-61.67,2.25-21.82,10.36-40.31,21.26-56.72,5.72-8.61,10.44-18.18,12.67-29.54,2.75-13.97,1.59-27.9-1.37-41.38-4.17-19.01-9.36-37.52-18.82-53.33-11.55-19.3-26.84-28.63-44.89-30.36-35.42-3.39-61.74,18.91-81.94,55.09-15.51,27.77-29.82,56.82-43.62,86.17-12.21,25.96-19.6,54.78-22.85,85.25-1.25,11.76-1.56,23.69-2.64,35.49-1.65,18.14-11.63,33.17-25.86,32.17-10.52-.74-21.07-1-31.59-1.77-12.94-.94-24.01,6.26-31.32,18.92-17.16,29.72-37.86,53.84-60.27,75.86-9.06,8.91-17.33,19.33-26.66,27.65-14.44,12.88-30.35,21.32-47.93,23.01-11.58,1.12-23.19,1.9-34.74,3.47-12.91,1.76-25.2,5.92-32.84,21.9-14.21,29.71-34.26,51.61-54.32,73.6-10.87,11.92-21.09,24.7-29.19,40.43-15.67,30.45-11.07,55.63,8.92,76.18,7.02,7.21,13.69,15.05,20.92,21.85,8.21,7.73,14.04,17.75,18.27,29.7"/>
          <path class="cls-5" d="m1365.7,103.34c-10.95-2.82-21.97-5.23-32.84-8.57-10.89-3.35-21.36-8.96-32.88-8.47-7.84.33-14.97,3.29-21.44,8.67-18.26,15.16-31.56,37.14-44.96,59.02-5.28,8.62-10.76,17.3-17.14,24.36-7.23,8-15.81,8.11-24.52,2.84-12.52-7.57-22.44-19.88-32.83-31.36-5.3-5.86-10.58-11.76-15.79-17.76-8.28-9.53-18.19-12.21-28.4-9.84-8.87,2.06-15.04,10.17-19.76,20.74-4.51,10.11-5.77,21.22-6.63,32.26-1.18,15.11-.76,30.43-1.56,45.61-.45,8.51-1.15,17.31-3.23,25.29-4.24,16.3-14.19,24.1-26.38,26.13-14.26,2.38-28.62,3.67-42.95,5.2-23.42,2.5-44.76,11.9-63.23,32.07-13.02,14.22-26.54,27.61-39.74,41.53-11.77,12.41-25.31,20.11-39.18,27.05-13.92,6.96-27.97,13.56-41.66,21.25-15.42,8.66-27.24,22.68-30.82,45.57-1.36,8.7-1.65,18.22-.57,26.94,1.54,12.34,4.74,24.32,7.35,36.4,3.92,18.17,13.31,27.62,27.15,27.73,17.48.14,35.03.13,52.42-1.82,17.99-2.02,35.8-6.71,53.73-9.76,12.59-2.14,25.27-3.38,37.9-5.18,20.41-2.9,36.44-15.22,49.53-36.92,12.13-20.11,25.98-38.44,39.65-56.79,14.78-19.84,23.23-43.9,29.07-70.24,2.61-11.77,5.83-23.37,9.49-34.63,3.95-12.17,11.66-17.47,21.35-19.69,14.44-3.32,28.67-1.84,42.26,3.97,9.75,4.16,19.04,11.13,27.79,18.43,9.89,8.26,20.09,13.8,31.68,11.39,8.13-1.7,16.21-4.75,24-8.38,14.66-6.83,29.13-14.4,43.63-21.86,22.53-11.61,37.49-32.65,45.69-63.28,4.69-17.51,7.79-36.26,17.47-50.85,2.09-3.15,3.82-6.73,5.71-10.11"/>
          <path class="cls-5" d="m480.49,2.74c-2.65,19.89-5.38,39.65-14.46,56.71-5.4,10.13-12.25,15.7-21.55,15.11-15.17-.97-30.32-2.37-45.5-3.27-7.79-.46-14.98,2.7-21.47,8.41-15.88,13.97-29.96,30.8-41.56,50.85-7.12,12.31-10.26,26.98-11.06,42.94-1.71,34.5,7.11,65.02,18.56,94.65,5.48,14.18,7.89,29.13,8.11,44.85.17,12.39-.65,24.88.16,37.18,3.01,46.16,12.12,89.48,36.65,124.13,9.99,14.11,22.45,23.68,37.15,27.27,10.81,2.64,21.18.44,28.91-9.58,18.07-23.42,32.4-50.53,39.25-83.5,3.22-15.53,2.38-31.38.84-47.33-2.48-25.78-4.66-51.59-4.05-77.76.66-28.48-4.11-55.77-12.44-82.03-4.86-15.32-8.14-31.27-7.61-48.15.88-27.98,9.08-43.31,28.41-50.7,16.18-6.19,32.64-8.39,49.27-4.15,13.01,3.31,25.01,10.67,35.95,20.34,18.62,16.46,39.75,23.81,60.72,32.01,13.02,5.09,26.1,10.12,39.8,8.28,11.64-1.57,23.22-4.04,34.75-6.72,10.17-2.36,20.44-4.63,30.29-8.58,13.69-5.49,16.66-11.16,17.73-28.52,1.33-21.69,2.73-43.38,3.74-65.1.74-15.75.9-31.56,1.33-47.34"/>
          <path class="cls-3" d="m439.43,3.58c-7.82,7.13-16.6,9.92-25.87,12.1-16.71,3.94-31.1,15.09-43.59,30.23-17.44,21.16-34.81,42.45-51.77,64.3-10.19,13.13-14.55,30.12-15.97,48.9-2.67,35.37,3.66,68.86,10.79,102.32,4.24,19.92,8.54,39.85,11.86,60.06,1.89,11.53,2.12,23.59,2.67,35.45,1.05,22.58,5.27,44.04,12.76,64.2,9.18,24.71,19.27,48.83,28.18,73.71,3.78,10.57,6.34,21.81,4.87,34.6-1.78,15.59-8.31,26.05-16.7,35.44-14.15,15.83-31.13,25.44-46.69,38.17-11.65,9.53-24.04,18.39-33.9,30.7-17.83,22.27-37.34,42.64-51.37,69.85-11.31,21.96-24.24,42.91-29.59,69.31-1.45,7.16-1.08,15.19-.71,22.75.57,11.68,6.73,17.45,14.45,19.27,12.58,2.96,25.26.91,37.89-.65,14.42-1.79,28.68-2.61,41.72,8.4,10.14,8.56,15.81,21.32,17.46,36.44,2.02,18.54-6.14,30.06-21.28,31.87-23.87,2.85-45.7-8.09-66.91-21.06-7.56-4.62-12.93-13.02-17.15-22.65-1.44-3.29-3.39-6.17-5-9.34-5.17-10.17-12.07-15.26-21.5-14.45-10.72.93-21.5.8-32.21,1.88-15.1,1.52-26.15-7.18-34.77-22.91-2.66-4.86-5.51-9.55-8.19-14.39-8.51-15.33-20.1-18.42-33.51-16.16-20.06,3.39-37.82,16.21-56.86,23.78-2.11.84-4.21,1.69-6.32,2.54"/>
          <path class="cls-5" d="m2.51,1483.82c-.11.85-.53,1.97-.27,2.5,6.47,13.3,13.32,26.28,19.47,39.83,10.45,22.99,23.26,43.03,39.91,58.2,21.69,19.76,39.22,45.48,57.47,70.23,9.85,13.36,21.66,22,35.36,26.28,12.99,4.06,25.17,1.49,35.94-8.68,8.04-7.59,15.38-16.54,22.8-25.24,9.11-10.67,18.89-19.62,31.01-22.67,3.9-.98,8.06-1.45,11.98-.83,25.94,4.1,47.84-8.94,69.69-25.92,22.89-17.79,36.71-44.05,45.82-75.71,6.21-21.61,16.47-36,33.6-41.47,9.1-2.9,17.75-6.78,24.18-17.48,7.18-11.95,8.58-25.86,9.17-39.91.98-23.35.93-46.77,1.45-70.15.24-11,1.05-21.98,1.12-32.97.03-4.78-.68-9.8-1.87-14.33-3.3-12.49-9.82-16.26-19.5-11.87-15.12,6.85-25.49,21.24-33.42,38.94-9.41,21-12.71,44.66-16.02,68.38-1.83,13.11-3.14,26.65-9.27,38.13-6.61,12.39-19.75,18.47-31.04,16.24-22.01-4.35-39.77-21.58-59.36-33.21-5.08-3.02-10.06-6.36-15.18-9.25-14.74-8.31-28.04-4.25-40.45,8.38-7.44,7.57-14.77,15.52-22.79,21.87-21.8,17.25-43.44,13.86-64.34-3.31-8.25-6.78-15.96-14.75-24.07-21.85-12.56-10.99-26.56-17.12-41.01-22.22-17.64-6.23-35-13.91-52.49-20.92-2.49-1-5.05-1.71-7.58-2.56"/>
          <path class="cls-2" d="m2.82,3054.52c15.8,25.08,31.22,50.61,47.53,75.07,9.47,14.21,19.03,28.71,34.58,32.5,19.96,4.86,37.27-1.01,52.48-18.8,14-16.38,23.55-37.46,34.16-57.45,6.7-12.63,14.06-24.64,20.75-37.29,7.65-14.46,9.98-30.17,7.95-48.2-2.07-18.36-1.27-37.03.61-55.79,1.98-19.73.72-40,1.75-59.95.88-16.96,1.07-34.27,9.21-49.16,4.67-8.54,10.14-14.85,17.83-16.66,9.1-2.15,15.78,3.55,20.85,13.38,4.55,8.82,9.06,17.68,13.92,26.19,15.36,26.95,45.59,27.77,64.48,5.21,16.41-19.59,23.64-44.16,22.46-72.79-.71-17.28-3.64-34.38-5.44-51.59-1.18-11.25-2.26-22.52-3.15-33.81-1.18-14.92-1.7-29.95-3.3-44.78-2.27-21.08-12.42-35.65-23.86-49.12-11.76-13.84-25.32-23.09-39.83-30.43-14-7.08-26.54-17.67-38.6-29.46-18.4-17.99-37.3-35.09-55.47-53.49-11.99-12.14-23.52-24.97-38.65-29.34-7.51-2.17-15.12-3.86-22.74-5.08-21.06-3.38-41.05,3.6-60.62,12.73-19.77,9.23-38.77,6.84-57.53-4.35"/>
          <path class="cls-5" d="m1177.41,3246.84c8.42-2.68,17.02-4.65,25.21-8.27,5.87-2.6,9.81-8.59,12.87-16.55,17.04-44.38,14.06-86.24-7.81-126.02-5.31-9.67-11.7-18.29-16.92-28.03-9.91-18.47-12.66-38.94-10.46-61.68,1.83-18.95.07-37.98-9.23-54.04-6.43-11.1-13.39-21.67-19.44-33.11-3.66-6.93-6.86-14.74-8.79-22.78-3.32-13.78-.4-20.4,9.26-27.89,16.59-12.87,33.85-13.64,51.86-6.79,6.82,2.59,13.98,3.57,20.81,6.13,9.53,3.58,17.12-1.55,22.57-10.48,7.35-12.06,13.1-25.85,19.83-38.63,8.68-16.5,17.73-32.65,26.46-49.1,3.79-7.13,7.8-14.23,10.62-22.05,3.44-9.54.68-19.02-5.49-26.18-10.48-12.17-27.43-12.6-37.86-3.12-11.8,10.72-23.27,22.25-34.1,34.65-11.07,12.69-20.66,27.7-31.88,40.11-8.17,9.04-17.69,16.12-27.06,22.94-10.27,7.46-22.07,14.55-26,29.14-7.48,27.83-23.57,46.32-36.59,68.14-9.45,15.82-12.5,34.18-14.43,53.37-2.72,27.08-5.92,53.75-18.16,77.07-7.86,14.96-18.25,25.83-28.59,37.04-11.49,12.46-23.26,24.49-32.24,40.56-8.99,16.09-13.75,34.15-14.5,54.13-.89,23.95-1.7,47.9-2.54,71.86"/>
          <path class="cls-5" d="m1365.07,2640.29c-3.25-17.5-4.61-35.25-3.78-53.26.35-7.61.78-15.22,1.26-22.82,1.17-18.42-5.24-31.74-15.81-42.27-20.13-20.04-43.12-27.48-67.57-24.13-15.83,2.16-24.12,13.56-27.78,36.82-3.18,20.22-5.91,40.57-8.9,60.85-4.23,28.59,3.12,47.57,24.07,57.28,25.04,11.6,50.51,21.54,75.75,32.42,4.56,1.97,8.98,4.7,13.27,7.58,10.66,7.17,11.4,12.4,8.64,26.92-3.77,19.79-12.8,36.47-22.73,51.39-11.06,16.62-23.77,31.28-35.8,46.74-13.01,16.72-22.35,36.32-26.55,60.02-1.36,7.65-2.78,15.28-4.43,22.82-5.1,23.3-16.83,38.76-32.83,49.04-20.24,13.01-32.02,35.01-37.93,63.4-4.1,19.7.4,37.02,8.27,53.23,8.87,18.24,18,36.26,23.96,56.68,4.44,15.21,8.35,30.73,13.4,45.57,6.36,18.71,17.91,30.09,32.08,37.34,13.27,6.79,26.85,9.92,41.08,10.39,9.72.33,19.58,2.62,29.02,5.88,9.64,3.34,13.32,11.74,13.32,25.08"/>
          <path class="cls-5" d="m367.4,3.58c-3.79,7.04-7.68,14-11.35,21.15-12.47,24.29-29.04,42.06-48.68,54.91-14.09,9.22-21.51,24.69-24.72,44.8-2.59,16.24-4.15,32.66-2.88,49.03,1.46,18.72,3.95,37.36,6.86,55.79,4.64,29.42,10.29,58.56,14.91,87.99,1.91,12.16,2.58,24.73,3.23,37.16,1.49,28.29,5.47,55.39,16.34,80.42,7.32,16.86,14.22,34.29,19.52,52.41,10.23,34.99.79,59.49-22.58,74.98-9.79,6.49-19.92,12.46-30.33,16.79-14.24,5.93-25.84,16.33-36.03,30.59-7.61,10.65-15.33,21.46-24.07,30.29-14.4,14.54-27.08,31.38-39.63,48.48-6.86,9.34-14.99,13.67-24.68,13.51-8.84-.15-17.69.1-26.54-.06-19.26-.35-37.88,4.52-56.24,11.82-9.27,3.69-18.51,6.81-28.42,7.11-11.55.35-19.33-6.48-24.52-19-4.01-9.67-7.28-19.99-10.14-30.39-4.37-15.88-8.08-32.08-12.11-48.13-.86-3.42-1.88-6.77-2.83-10.15"/>
          <path class="cls-5" d="m2.82,3025.77c8.64,14.09,16.86,28.68,26,42.15,13.52,19.9,27.22,39.68,41.74,58.26,14.8,18.94,34.92,18.41,50.99,2.62,14.78-14.52,23.36-35.35,30.36-57.4,10.66-33.57,16.18-68.89,20.41-104.78,2.55-21.64,5.07-43.19,4.84-65.13-.08-7.61-.93-15.21-1.18-22.83-.87-26.24,3.28-51.34,9.34-76.13,2.55-10.42,5.12-21.31,5.43-32.1.28-9.49-1.68-19.6-4.23-28.63-6.7-23.66-3.3-45.99,4.11-67.63,5.17-15.1,12.26-29.03,17.35-44.17,3.77-11.22,8.32-23.08,4.56-36.2-1.51-5.27-3.07-10.92-5.73-15.13-15.63-24.73-32.79-47.59-53.71-64.11-17.12-13.52-36.25-15.42-55.45-9.36-10.73,3.39-21.1,8.79-31.63,13.33-11.93,5.15-23.85,10.22-36.65,9.31-9.05-.65-18.11-1.14-27.17-1.71"/>
          <path class="cls-2" d="m1142.03,3.58c-5.69,6.48-11.21,13.24-17.09,19.39-12.34,12.91-27.48,17.84-41.68,25.37-15.37,8.15-30.56,16.59-42.33,33.01-9.67,13.49-15.35,29.03-14.55,48.2.54,12.95.85,25.92,1.29,38.88.87,25.45-7.71,43.38-24.68,54.01-13.32,8.35-27.12,15.34-40.36,23.89-17.18,11.11-32.21,26.68-46.81,42.97-9.65,10.77-19.34,21.48-29.07,32.12-14.01,15.32-29.63,24.76-47.98,27.41-15.8,2.28-29.97-1.54-42.94-13.13-9-8.05-12.46-20.28-13.43-34.54-1.86-27.22,7.08-50.77,13.41-75.23,2.51-9.69,5.42-19.19,8.18-28.76,2.87-9.96,7.39-14.4,15.16-14.34,30.67.21,57.08-14.52,80.95-39.64,19.47-20.49,32.4-47.46,44.9-75.27,7.82-17.39,16.75-33.9,25.15-50.82,2.36-4.75,4.64-9.57,6.96-14.37"/>
          <path class="cls-5" d="m1365.07,1017.18c-13.48-12.4-26.72-25.31-40.54-36.97-6.55-5.53-13.98-9.77-21.44-12.61-7.93-3.02-16.36-3.73-24.58-5.36-19.11-3.79-29.11-11.76-32.28-40.58-1.34-12.18-3.01-24.34-5.07-36.34-3.18-18.57-12.35-27.86-26.45-29.79-12.07-1.66-24.05-4.69-36.02-7.47-27.24-6.32-59.98,16.01-63.9,55.82-2.44,24.81-2.02,49,6.46,71.83,6.03,16.24,16.54,22.55,30.26,18.58,11.63-3.37,23.11-7.77,34.79-10.75,7.23-1.84,14.83-3.39,22.06-2.38,11.89,1.66,17.56,13.66,21.55,27.53,7.05,24.48,16.39,47.27,29.69,66.76,9.76,14.31,22.58,20.36,36.61,20.13,23.17-.37,46.34-2.05,69.5-3.18"/>
          <path class="cls-2" d="m793.89,3247.26c0-8.17-.21-16.36.04-24.51.58-18.72-1.55-36.85-4.95-55-3.6-19.22-5.96-38.86-9.01-58.28-4.99-31.75-20.23-53.24-39.84-70.07-4.73-4.06-10.04-6.91-15.12-10.23-6.97-4.56-12.24-3.72-17.01,3.42-6.08,9.09-11.62,18.82-17.78,27.79-14.83,21.61-31.83,37.33-54.92,39.19-20.23,1.63-40.23,6.19-60.06,12.28-22.84,7.02-44.63,2.36-65.07-13.33-9.15-7.03-18.49-13.64-27.79-20.32-18.51-13.31-34.4-2.86-42.91,18.62-7.09,17.89-9.38,37.58-10.75,57.45-.66,9.55-1.08,19.15-1.26,28.74-.35,17.93,3.84,33.93,11.93,48.22,2.93,5.16,5.51,10.68,8.24,16.03"/>
          <path class="cls-5" d="m2.82,2988.58c9.48,18.32,18.78,36.8,28.48,54.91,11.86,22.15,26.09,41.16,42.9,56.72,21.34,19.76,38.56,9.52,50.51-17.84,7.38-16.9,9.37-36.2,12.77-54.88,3.45-18.99,7.02-37.99,11.42-56.61,5.88-24.9,7.42-50.26,6.87-76.14-.61-29.02-.92-58.05-1.3-87.07-.34-26.75-8.49-49.7-19.71-70.91-4.9-9.27-12.56-8.96-20.11-6.86-17.27,4.79-34.41,10.85-51.85,13.98-14.52,2.61-28.09,7.63-41.04,16.43-6.47,4.39-13.05,8.48-19.58,12.71"/>
          <path class="cls-5" d="m1118.65,3247.26c-2.11-12.12-4.53-24.16-6.22-36.38-1.34-9.74-2.73-19.76-2.41-29.55.49-14.87,9.84-28.4,26.3-16.87,2.68,1.88,4.96,4.75,7.62,6.66,9.07,6.48,18.06,11.62,29.05,11.44,20.15-.33,38.39-27.24,25.71-57.73-3.79-9.11-9.28-17.42-15.1-24.46-11.58-14.02-22.13-28.64-25.07-50.09-1.45-10.61-1.8-21.5-3.34-32.08-1.37-9.44-3.25-18.84-5.69-27.87-2.88-10.67-9.57-17.53-17.57-17.28-7.46.23-13.22,7.51-16.45,17.22-4.79,14.4-9.83,28.66-14.48,43.14-8.2,25.52-21.19,45.61-37.92,61.73-8.55,8.23-17.46,16.01-25.17,25.51-14.04,17.29-22.64,38.63-22.86,64.91-.1,11.55-.18,23.11.04,34.66.17,9.03.79,18.04,1.21,27.05"/>
          <path class="cls-2" d="m2.19,544.62c9.27,2.82,18.66,5.04,27.78,8.57,24.61,9.53,47.93,3.26,70.77-9.47,7.48-4.17,14.67-9.26,22.15-13.42,22.48-12.48,33.41-36.94,39.14-66.85,4.09-21.34,5.92-43.12,4.99-65.08-2.32-55.12-14.67-105.01-44.17-145.38-12.7-17.38-25.47-34.69-38.62-51.46-5.08-6.49-11.46-11.11-16.92-17.12-8.51-9.36-10.41-19.91-1.96-32.08,2.44-3.51,4.93-7.06,6.92-11.01,5.02-9.99,5.88-13.51-.64-24.4-8.51-14.24-20.59-20.1-33.43-23.72-12.1-3.41-24.09-1.88-36.01,1.68"/>
          <path class="cls-5" d="m2.82,1132.15c12.7,9.26,19.94,24.53,26,41.36,2.37,6.57,5.45,12.83,8.83,18.58,6.78,11.53,16.06,12.61,27.1,6.87,12.31-6.4,21.47-18.07,29.66-31.34,8.11-13.13,15.4-27.28,24.21-39.48,8.89-12.31,19.22-22.74,28.88-34.05,10.03-11.74,22.32-17,34.75-22.02,11.37-4.59,22.22-10.39,31.02-21.86,15.84-20.65,13.47-61.33-3.82-76.21-19.5-16.78-34.91-39.36-49.38-63.27-5.21-8.61-12.22-13.01-20.74-14.76-9.8-2.01-20.79,1.33-29.06-9.05-4.66-5.86-9.15-12.05-13.25-18.61-4.91-7.86-8.93-16.75-14.05-24.35-12.29-18.24-25-23.23-44.11-15.97-12.22,4.64-24.05,11.09-36.05,16.72"/>
          <path class="cls-5" d="m1365.7,2133.91c-10.28,4.37-20.03,9.57-28.59,19.2-9.23,10.4-10.96,22.73-9.38,37.45,1.33,12.35,2.37,24.76,3.15,37.19.68,10.79-3.11,18.98-9.41,25.36-10.1,10.23-21.68,14.83-34.13,16.02-7.78.74-15.6,1.88-23.37,1.57-13.91-.57-27.8-2.53-41.71-2.95-3.97-.12-8.32,2.34-11.91,5.01-3.46,2.58-4.42,7.69-4.61,13.3-1.11,33.21,4.43,64.99,11.56,96.34,4.54,19.94,9.97,39.51,15.08,59.21,4.79,18.45,13.7,29.5,29.05,30.59,13.72.97,27.45,2.58,41.06,5.09,15.87,2.93,31.62,7.11,47.4,10.84,5.29,1.25,10.53,2.79,15.8,4.2"/>
          <path class="cls-5" d="m2.82,2939.55c15.78,20.2,25.65,45.28,34.3,71.75,7.4,22.67,17.8,42.58,35.18,54.28,20.54,13.83,32.7,1.28,37.74-23.81,3.38-16.81,4.11-34.56,7.36-51.42,3-15.56,7.94-30.44,11.76-45.74,5.22-20.95,6.55-42.31,3.92-64.25-1.75-14.55-1.88-29.49-4.04-43.9-4.01-26.7-14.2-45.35-32.76-49.4-11.74-2.56-23.97-.61-36.02,3.36-17.19,5.67-31.85,17.97-47.33,28.23-3.55,2.35-7.16,4.52-10.74,6.78"/>
          <path class="cls-5" d="m766.09,3247.26c-2.98-19.12-11.11-34.59-19.55-49.91-6.69-12.14-7.52-25.84-6.56-40.57.8-12.28,1.04-25.1-.73-37.09-2.39-16.2-16.18-25.4-28.05-19.26-8.82,4.56-17.05,11.28-25.31,17.58-6.94,5.29-14.13,8.65-22.15,8.35-14.32-.53-28.66-.72-42.96-1.8-14.15-1.07-27.82,3.32-41.7,5.21-11.38,1.55-22.72,4.07-34.13,4.85-12.39.85-24.85.03-37.27.24-13.78.22-20.73,9.07-19.66,26.17.77,12.36,1.44,24.81,1.2,37.18-.31,16.36-1.55,32.69-2.4,49.04"/>
          <path class="cls-3" d="m2.19,2084.88c6.32-1.97,13.04-2.72,18.87-6.16,13.71-8.11,21.4-23.22,23.35-42.89,1.78-17.94,1.99-36.19,4.08-54.05,2.13-18.21,5.49-36.18,8.75-54.11,1.82-10.02,4.27-19.89,6.92-29.59,5.43-19.94,15.52-34.58,28.95-45.79,15.54-12.97,29.87-28.16,39.12-49.84,7.95-18.63,12.55-38.72,3.68-58.92-4.64-10.57-11.12-19.93-17.57-28.79-11.44-15.68-23.74-30.24-35.21-45.88-10.17-13.87-21.14-26.07-33.49-36.41-14.28-11.96-25.55-28.78-37.38-44.6-3.16-4.23-6.71-7.93-10.08-11.88"/>
          <path class="cls-5" d="m2.19,509.11c12.85,1.97,25.8,3.13,38.52,6.07,36.3,8.4,67.04-6.09,92.04-41.02,10.83-15.14,16.14-35.09,17.95-56.34,5.05-59.37-7.01-110.83-38.51-153.95-15.96-21.85-34.61-36.93-56.96-42.87-17.49-4.65-35.23-6.7-53.05-2.7"/>
          <path class="cls-5" d="m1365.07,2800.91c-5.48,6.48-10.88,13.08-16.44,19.42-8.99,10.24-18.21,20.14-27.12,30.51-8.93,10.39-13.84,24.14-17.81,38.8-4.03,14.85-7.84,30.01-13.4,43.85-8.23,20.47-22.46,34-35.11,49.26-6.41,7.73-12.49,15.99-18.33,24.5-11.91,17.38-11.6,37.25-5.01,57.37,8.47,25.86,17.17,51.63,26.57,76.9,9.57,25.73,25.42,38.83,47.27,39.1,14.29.18,28.32-1.84,42.35-5.08,5.8-1.34,11.78-1.26,17.67-1.82"/>
          <path class="cls-5" d="m352.86,3247.26c.84-26.77,1.06-53.61,2.73-80.29,1.26-20.19,5.91-39.5,11.56-58.48,3.44-11.54,5.94-23.87,4.15-37.1-2.76-20.4-17.23-33.65-31.06-38.15-12.68-4.12-24.06.61-34.02,9.68-20.33,18.5-40.8,37.07-57.51,61.61-4.95,7.27-9.62,15.58-12.51,24.52-5,15.49-1.18,29.97,6.82,42,5.52,8.3,12,15.51,18.23,22.92,12.21,14.5,20.67,32.01,24.62,53.29"/>
          <path class="cls-5" d="m2.19,487.13c15.8.56,31.62,2.19,47.38,1.39,15.88-.81,31.66-3.2,46.83-11.33,22.59-12.1,36.53-34.23,40.06-65.36,6.53-57.68-5.66-107.5-40.84-144.34-22.85-23.92-48.84-27.92-76.36-17.06-5.69,2.24-11.37,4.51-17.06,6.76"/>
          <path class="cls-5" d="m504.5,2.74c1.81,16.69,3.61,33.77,14.65,44.59,5.86,5.74,12.72,9.95,19.5,13.62,30.66,16.62,61.38,33.09,92.25,49.02,13.04,6.72,26.24,13.51,39.83,17.53,20.33,6.02,40.51,5,59.39-9.65,9.33-7.24,13.25-18.27,15.81-31.39,5.51-28.15,4.34-55.96-1.34-83.72"/>
          <path class="cls-5" d="m1365.7,2292.84c-12.64-1.13-25.29-3.32-37.91-3.07-11.6.23-23.18,3-34.75,4.78-10.33,1.59-20.83,2.26-30.92,5.3-16.78,5.05-27.95,16.22-29.75,45.4-2.07,33.5,4.34,63.83,19.69,90.36,6.99,12.08,17.63,17.1,28.37,19.27,16.31,3.3,32.81,4.94,49.26,6.97,7.77.96,15.58,1.48,23.37,1.64,4.2.09,8.42-1.01,12.64-1.58"/>
          <path class="cls-5" d="m945.53,3247.26c1.47-14.93,2.88-29.88,4.44-44.8,3.65-35.05,4.07-69.22-12.59-99.81-11.35-20.83-26.8-30.84-45.55-31.91-11.68-.67-23.19.17-34.84,4.48-15.26,5.66-24.25,18.73-27.42,37.72-4.51,26.99-7.26,54.54-10.31,81.93-1.75,15.68-2.59,31.55-3.92,47.32-.15,1.73-.81,3.39-1.23,5.08"/>
          <path class="cls-5" d="m2.19,465.16c11.79.56,23.61,2.05,35.38,1.47,16.9-.84,33.69-3.27,49.95-10.66,23.91-10.88,35.38-35.88,36.62-68.58.98-25.75-3.67-49.46-13.18-71.93-11.1-26.25-27.69-42.51-49.43-47.75-15.98-3.86-31.46,2.18-46.08,11.46-4.17,2.65-8.42,5.09-12.63,7.63"/>
          <path class="cls-5" d="m1365.7,2871.07c-20.34,2.12-33.81,17.56-42.9,40.63-9.54,24.23-21.7,45.65-36.02,65.13-8.78,11.94-17.41,24.18-25.21,37.24-10.11,16.95-12.77,36.19-7.79,57.39,5.3,22.6,10.47,45.07,21.5,64.28,8.1,14.11,19.06,20.93,31.66,20.69,12.45-.24,24.86-3.57,37.28-5.54,5.47-.86,10.97-1.56,16.42-2.62,1.53-.3,2.96-1.61,4.43-2.45"/>
          <path class="cls-5" d="m1365.07,1424.65c-13.69-11.27-27.07-23.31-41.16-33.6-13.92-10.16-28.71-6.53-42.84-.07-18.86,8.62-29.35,28.38-35.97,52.3-2.19,7.92-3.24,16.39-5.18,24.46-3.99,16.64.78,28.69,10.8,38.02,5.37,5,10.88,9.74,16.42,14.38,9.68,8.1,16.73,18.92,21.62,32.9,3.85,11.01,9.29,21.43,17.65,26.85,6.63,4.3,14.09,6.92,21.4,8.53,12.54,2.77,25.25,4.16,37.88,6.14"/>
          <path class="cls-5" d="m1365.07,2339.33c-9.45-10.43-20.55-16.96-32.27-20-20.9-5.42-41.83-5.35-61.87,6.49-11.79,6.97-18.42,19.01-19.6,36.33-2.74,40.02,13.16,70.52,42.95,77.96,24.58,6.14,48.16,2.32,71.42-8.64"/>
          <path class="cls-5" d="m2.19,436.41c17.38,7.61,35.05,8.31,53.09,5.25,10.59-1.79,20.72-4.56,30.35-11.07,15.99-10.8,22.58-28.85,23.31-51.67.77-24.01-4.17-45.97-15.88-64.12-18.43-28.56-42.18-33.15-67.46-13.58-7.78,6.02-15.19,12.89-22.78,19.37"/>
          <path class="cls-5" d="m952.48,3.58c-2.11,4.51-4.35,8.91-6.3,13.54-11.69,27.87-21.49,57.26-36.12,82.75-12.26,21.36-28.79,34.48-48.61,38.6-6.9,1.43-14.44-.34-21.4-2.39-11.52-3.39-22.36-9.65-32.25-18.41-11.26-9.98-16.32-24.75-16.33-42.24-.02-24.23.73-48.47,1.15-72.7"/>
          <path class="cls-5" d="m1365.07,1187.94c-.84.85-1.6,2.14-2.54,2.47-17.88,6.29-35.83,12.28-53.68,18.71-21.14,7.62-37.06,24.37-45.33,51.61-8.37,27.58,6.41,46.69,22.57,46.63,12.2-.04,22.68-5.49,31.42-15.71,6.56-7.68,11.76-17.55,17.18-26.84,6.76-11.6,12.84-23.91,19.78-35.3,2.77-4.55,7.03-7.47,10.61-11.14"/>
          <path class="cls-5" d="m1365.7,2915.03c-18.2,3.45-28.03,22.67-39.75,38.12-10.61,13.98-20.78,28.56-31,43.06-9.08,12.88-16.46,27.33-19.54,44.8-3.97,22.53.18,43.64,8.24,63.31,8.96,21.86,22.63,28.92,43.52,23.9,10.83-2.6,21.89-3.5,32.83-5.27,1.92-.31,3.79-1.09,5.69-1.65"/>
          <path class="cls-5" d="m654.88,3245.57c-1.68-7.33-3.94-14.52-4.92-22.01-1.38-10.58-2.13-21.36-2.59-32.1-.8-18.58-14.34-33.71-29.14-37.98-16.6-4.78-33.26-3.24-49.91-.08-7.99,1.52-16.06,2.4-24,4.34-17.61,4.3-26.52,20.79-30.83,42.23-3.06,15.23-4.78,30.95-7.09,46.44"/>
          <path class="cls-5" d="m2.82,1084.81c18.76-3.14,23.17-19.65,25.33-39.72,1.83-16.96,3.73-33.95,6.37-50.7,3.15-19.96,13.71-34.55,21.98-50.78,8.24-16.18,12.12-32.97,3.87-51.59-4.44-10.01-13.97-16.83-22.16-14.25-9.74,3.06-19.38,6.73-29.08,10.04-2.28.78-4.63,1.16-6.94,1.72"/>
          <path class="cls-5" d="m933.52,3.58c-3.79,9.58-7.59,19.16-11.37,28.74-7.71,19.51-15.33,39.01-27.13,55.01-16.28,22.08-36.42,23.51-56.92,12.64-13.31-7.06-23.33-19.13-25.56-38.13-2.01-17.14-1.21-34.87-1.56-52.34-.05-2.24.39-4.51.6-6.76"/>
          <path class="cls-5" d="m2.19,17.11c6.74,3.66,14.11,6.04,20.09,11.25,13.89,12.09,27.16,25.45,42.46,34.4,18.57,10.86,37.29,21.3,58.12,20.13,5.3-.3,10.7-1.98,15.76-4.22,7.71-3.41,10.62-9.48,10.76-20.13.09-7.04-.13-14.1.05-21.13.3-11.56.81-23.11,1.23-34.66"/>
          <path class="cls-5" d="m922.78,3247.26c.27-25.51-.2-51-7.1-75.16-2.64-9.22-6.06-18.62-10.78-26.07-10.69-16.87-25.96-19.12-41.48-.18-8.42,10.27-14.32,22.98-18.32,37.17-5.82,20.68-8.36,42.29-9.51,64.23"/>
          <path class="cls-5" d="m1365.07,1450.01c-6.11-3.38-12.17-6.92-18.33-10.11-9.01-4.66-17.95-9.74-27.2-13.36-8.69-3.4-17.75-3.83-25.18,4.94-9.97,11.77-9.51,21.56-3,35.26,4.85,10.19,11.99,18.38,17.38,28.18,5.95,10.81,12.15,21.77,16.3,33.85,7.61,22.15,19.65,35.1,37.51,38.79,1.09.23,2.11,1.08,3.16,1.65"/>
          <path class="cls-5" d="m174.68,3247.26c-6.75-22.1-19.32-34.52-36.66-37.88-10.23-1.98-20.64-2.18-30.94-3.59-16.89-2.31-34.03-2.15-50.55-8.42-13.83-5.25-22.93-17.89-30.44-33.7-7.29-15.36-15.48-29.96-23.27-44.9"/>
          <path class="cls-5" d="m1365.7,1778.86c-10.08-2.31-16.05,4.8-21.64,15.07-7.59,13.95-13.1,28.86-14.86,45.83-1.01,9.71-.57,19.7-.77,29.56-.03,1.41-.03,2.82,0,4.23.42,20.29.73,40.58,1.29,60.87.57,20.54,7.17,32.39,20.21,35.32,5.12,1.15,10.51.19,15.77.19"/>
          <path class="cls-5" d="m1365.7,2957.3c-7.57.35-13.56,5.88-19.56,11.05-14.43,12.45-28.4,25.92-38.47,44.84-11.35,21.34-13.47,42.66-2.63,64.15,5.59,11.08,13.75,16.55,23.38,16.72,12.42.22,24.85-.94,37.28-1.5"/>
          <path class="cls-5" d="m2.82,2029.93c13.37-10.34,17.57-28.01,20.13-46.52,4.02-29.04,4.76-58.49,3.71-87.89-.67-18.89-2.77-37.74-7.45-55.79-2.72-10.48-8.44-16.72-16.4-19.46"/>
          <path class="cls-5" d="m1079.48,3247.26c-.94-27.4-5.82-53.87-10.84-80.28-1.1-5.77-3.8-11.22-8.76-11.69-5.67-.54-10.36,3.08-13.89,9.12-5.52,9.44-8.05,19.96-8.38,32.12-.47,17.43,2.38,34.03,5.22,50.73"/>
          <path class="cls-5" d="m2.82,2300.45c10.96-9.94,16.01-24.43,17.68-41.43,2.91-29.51,4.4-59.23,11.15-88.02,3.86-16.48-3.56-29.62-18.1-36.21-3.72-1.69-7.57-2.86-11.36-4.27"/>
          <path class="cls-5" d="m600.54,3247.26c-.21-12.96.89-26.26-.92-38.81-3.3-22.84-13.99-28.18-28.16-29.49-26.61-2.46-37.81,17.47-44.14,48.04-1.36,6.57-1.76,13.5-2.6,20.26"/>
          <path class="cls-5" d="m1365.07,910.66c-4.42-3.66-9.14-6.82-13.22-11.08-18.63-19.47-22.93-40.45-14.91-71.63,5.34-20.75,13.77-40.05,20.47-60.21,3-9.02,5.13-18.55,7.66-27.85"/>
          <path class="cls-5" d="m132.98,3245.57c-14.16-16.52-31.46-20.42-49.29-20.95-13.04-.39-26.11,1.23-39.17,1.42-11.16.16-21.8-3.04-30.25-13.55-4.24-5.27-7.66-11.72-11.45-17.64"/>
          <path class="cls-5" d="m914.57,3.58c-2.11,4.51-4.55,8.8-6.26,13.56-5.86,16.3-13.36,30.87-23.41,43.12-9.68,11.8-21.04,14.16-32.82,8.99-11.01-4.83-17.02-17.08-18.83-31.9-1.38-11.34-1.03-23.06-1.46-34.62"/>
          <path class="cls-5" d="m527.88,3.58c5.99,12.84,13.01,24.34,23.39,31.26,15.51,10.34,31.73,16.59,49.27,14.35,5.89-.75,10.9-8.34,9.96-17.69-.98-9.71-3.21-19.19-4.9-28.77"/>
          <path class="cls-5" d="m189.22,3.58c.63.85,1.53,1.54,1.86,2.56,8.24,25.96,22.57,40.94,43.62,44.89,16.6,3.11,27.52-7.65,29.69-30.54.56-5.89.86-11.83,1.28-17.75"/>
          <path class="cls-5" d="m1101.59,3.58c-18.4,16.45-39.48,22.89-60.69,28.55-4.86,1.3-10.11.66-15.13.06-4.83-.58-7.69-7.19-8.19-17.62-.19-3.93-.03-7.89-.03-11.83"/>
          <path class="cls-5" d="m117.82,2.74c-2.32,6.76-4.21,13.86-7.04,20.22-6.27,14.08-17.2,15.36-26.99,12.22-13.28-4.26-24.67-14.27-30.42-32.44"/>
          <path class="cls-5" d="m1365.7,3004.64c-11.49,1.22-21.08,7.72-28.37,19.52-6.28,10.18-4.05,22.07,5.65,25.09,5.29,1.65,10.91,1.45,16.4,1.82,2.09.14,4.21-.5,6.32-.78"/>
          <path class="cls-5" d="m2.19,1768.71c10.95-7.54,17.35-19.68,20.24-35.5,3.39-18.55-4.03-32.29-20.24-37.2"/>
          <path class="cls-5" d="m340.86,3.58c-4.42,7.04-8.45,14.63-13.36,21.01-7.78,10.11-16.72,11.82-24.59,7.01-6.23-3.81-7.54-11.75-9.99-18.76-1.08-3.1-1.34-6.72-1.97-10.1"/>
          <path class="cls-5" d="m1365.7,2015.56c-9.17,4.5-15.23,13.42-18.19,25.42-2.87,11.66,2.97,23.81,13.13,29.52,1.66.93,3.37,1.7,5.05,2.55"/>
          <path class="cls-5" d="m1365.7,876c-11.01-10.78-10.9-24.94-8.59-39.66,1.3-8.29,5.22-15.85,7.96-23.74"/>
          <path class="cls-5" d="m1365.07,1482.13c-3.16,3.95-7.08,7.24-9.32,11.97-4.84,10.22.55,18.99,3.73,27.7,1.28,3.5,3.69,6.27,5.59,9.37"/>
          <path class="cls-5" d="m567.69,3247.26c0-.56.11-1.18-.02-1.68-1.28-5.02-1.86-11.31-6.94-11.69-4.73-.35-6.39,4.78-7.6,9.98-.22.93-.81,1.7-1.23,2.55"/>
          <path class="cls-5" d="m1230.49,3246.84h-12.64"/>
          <path class="cls-5" d="m1362.54,1725.6c-2.74-11.27-5.7-22.46-8.17-33.83-5.43-25.08-24.55-26.93-38.45-13.26-8.74,8.59-15.05,20.32-15.33,36.1-.29,16.21,6.85,27.03,15.31,36.16,7.04,7.6,14.9,13.7,23.86,17.26,12.69,5.03,22.22-3.39,22.75-21.3.2-6.75.03-13.52.03-20.29"/>
          <path class="cls-2" d="m1352.43,533.63c-2.47-13.4-7.72-24.9-13.19-36.41-9.95-20.91-19.15-42.46-29.26-63.24-5.37-11.04-11.14-21.69-20-29.07-11.43-9.53-23.45-9.35-35.45-5.48-25.45,8.22-50.53,18.09-72.71,37.81-18.35,16.31-27.06,39.59-29.19,68.48-1.32,17.91-1.46,36.24-6.83,53.27-3.73,11.85-9.52,21.54-17.02,29.65-14.47,15.65-31.02,26.49-48.14,35.12-20.19,10.18-38.32,23.19-53.89,43.91-12.49,16.62-26.28,31.32-36.51,50.97-5.26,10.09-13.39,16.35-22.62,16.74-9.61.4-19.11-2.9-24.52-15.02-4.85-10.86-3.86-22.36,1.21-32.81,3.43-7.08,7.43-13.67,11.32-20.33,12.88-22.07,8.01-40.27-8.35-52.13-10.96-7.94-23.15-8.31-35.93-6.69-24.83,3.15-42.11,21.44-56.01,46.31-12.95,23.18-29.86,37.65-49.46,48.06-22.79,12.1-40.42,31.85-50.63,62.45-3.18,9.54-7.4,18.45-10.62,27.97-6.83,20.26-18.37,32.03-34.83,33.56-11.29,1.04-22.74,1.4-33.51-5.59-6.95-4.51-11.94-11.5-16.41-19.53-3.5-6.28-6.6-13.2-10.83-18.47-12.31-15.36-21.59-17.91-38.39-4.26-7.87,6.4-15.03,14.37-22.85,20.9-6.46,5.39-13.58,9.36-20.11,14.61-4.89,3.93-9.71,8.35-13.87,13.54-7.17,8.95-7.27,23.05-.7,32.83,7.43,11.05,16.33,19.54,25.84,27.18,11.63,9.34,24.16,14.93,37.32,18.51,10.52,2.86,19.56,9.96,28.48,17.65,12.84,11.06,26.4,20.18,41.66,23.74,17.31,4.04,32.21-1.58,43.56-20.31,4.83-7.96,9.81-15.89,13.82-24.57,7.11-15.39,18.13-21.51,30.44-21.54,19.24-.03,37.28-7.01,55.62-12.95,19.84-6.43,37.89-1.37,52.35,18.62,16.91,23.39,37.55,34.77,61.36,38.06,15.64,2.16,31.15,5.93,46.78,8.15,7.5,1.06,15.18.71,22.73.06,11.86-1.02,18.92-10.9,21.98-25.29,3.55-16.68,6.38-33.67,8.88-50.7,2.15-14.64,5.85-28.24,12.12-40.54,13.12-25.73,25.31-52.18,35.36-80.33,5.42-15.18,13.94-26.7,24.03-36.33,6.9-6.58,13.92-12.92,20.83-19.48,10.05-9.53,17.37-22.53,24.62-35.52,7.47-13.39,15.47-25.95,27.21-32.9,9.73-5.77,19.94-6.03,30.32-4.29,12.62,2.12,25.25,5.28,37.91,5.61,14.3.37,28.64-1.87,42.96-3.05,5.48-.45,10.95-1.37,16.43-1.62,15.08-.69,23.09-13.49,29.8-29.56,5.92-14.17,7.43-29.14,6.84-44.88"/>
          <path class="cls-5" d="m1351.17,2383.29c-5.76-36.37-41.82-51.11-65.04-35.41-20.75,14.02-17.06,46.03-3.82,60.76,16.22,18.04,44.02,16.4,59.39.02,5.9-6.29,9.29-14.29,9.47-24.52"/>
          <path class="cls-5" d="m1323.37,161.67c-5.23-21.69-14.94-32.39-29.06-31.19-9.21.78-17.02,6.37-24.03,14.26-13.72,15.44-21.5,36.15-28.35,57.55-5.62,17.55-10.84,35.35-15.8,53.25-4.35,15.73,3.01,30.27,15.72,32.09,22.93,3.28,42.85-5.6,58.64-28.06,9.67-13.75,13.76-31.73,17.16-49.73,2.94-15.54,6.15-31.05,5.71-47.33"/>
          <path class="cls-5" d="m1319.58,2559.13c-2.49-12.63-7.51-22.6-17.08-26.98-10.61-4.86-20.75,1.88-24.6,16-4.04,14.83-3.35,29.62,1.31,43.91,3.32,10.18,9.85,15.8,17.64,18.56,6.04,2.14,13.43-3.4,17.07-11.74,5.29-12.12,6.2-25.31,5.66-38.91"/>
          <path class="cls-5" d="m1311.99,526.87c-5.48-21.98-10.31-44.29-16.62-65.84-5.39-18.4-13.94-34.14-30.16-37.08-5.97-1.08-12.41-.94-18.26.85-25.69,7.84-48.46,22.8-65.11,51.35-6.66,11.42-9.03,24.65-10.31,38.85-1.15,12.71-.01,24.94,1.54,37.21,1.56,12.28,7.38,20.33,16.37,22.68,15.29,3.98,30.8,6.43,46.08,10.43,21.34,5.59,40.57-4.29,59.28-14.91,13.09-7.43,18.74-23.2,17.19-42.69"/>
          <path class="cls-5" d="m1282.93,1876.07c-.63-4.79-1.21-9.6-1.91-14.37-3.59-24.48-13.99-43.4-27.85-59.09-10.71-12.13-18.41-27.11-25.25-43.18-3.18-7.47-6.76-14.64-10.07-22.01-11.98-26.72-31.56-24.17-46.68-5.79-6.6,8.02-12.67,16.95-18.33,26.17-13.87,22.57-30.78,12.78-37.32-8.55-3.34-10.89-6.04-22.15-9.59-32.9-4.07-12.33-8.92-24.18-13.14-36.43-4.65-13.47-1.97-23.4,9.44-26.15,8.83-2.12,17.82-3.25,26.5-6.11,15-4.95,26.16-16.55,33.68-35.23,7.26-18.05,11.13-37.52,15.53-56.8,2.32-10.17,3.71-20.75,5.09-31.25,1.01-7.71-1.2-14.6-5.67-19.32-9.92-10.47-19.9-20.9-30.34-30.4-12.68-11.54-26.11-21.64-41.04-26.99-7.78-2.79-15.95-3.75-23.98-5.23-15.79-2.9-32.58-.6-46.64-12.95-9.22-8.1-17.59-18.04-25.96-27.76-9.17-10.65-19.4-17.68-31.64-16.65-14.95,1.25-28.44,11.95-30.22,34.51-.78,9.84,1.93,19.06,6.26,26.98,7.92,14.49,14.59,29.78,17.54,47.42,1.2,7.16,1.89,14.63,1.89,21.95-.02,21.45,1.22,43-2.36,64.27-1.64,9.75-3.08,19.65-3.74,29.58-1.02,15.34,3.77,27.78,13.22,36.21,11.32,10.1,22.97,19.6,34.73,28.77,10.71,8.35,21.92,16.16,26.97,32.3,4.25,13.6,5.09,28.11,4.07,43.04-2.05,30.11-10.64,58.91-9.65,89.6.41,12.77,2.68,25.25,9.7,33.55,15.46,18.3,23.95,41.4,30.3,66.98,8.1,32.6,25.4,53.64,49.11,66.1,16.56,8.7,30.67,22.72,44.37,37.76,8.64,9.48,17.68,19.5,27.83,25.06,22.94,12.57,41.84-2.5,50.76-29.26,3.72-11.15,5.06-23.96,6.46-36.22,2.35-20.65,5.68-40.91,13.51-59.06,9.1-21.09,15.06-43.06,14.42-67.72"/>
          <path class="cls-5" d="m1272.82,489.67c-1.05-3.95-2.05-7.92-3.17-11.83-5.93-20.79-15.67-23.77-28.37-20.72-16.48,3.95-29.47,16.89-38.57,35.96-9.24,19.36-5.23,43.09,12.64,52.27,15.14,7.77,30.3,9.98,44.86-3.19,8.42-7.62,12.02-18.37,12.55-31.35.28-6.74.05-13.52.05-20.29"/>
          <path class="cls-5" d="m1253.87,1869.31c-2.66-14.66-9.08-26.03-16.99-36.44-9.13-12.01-17.64-24.86-26.65-37.05-5.53-7.49-12.17-12.2-20.12-7.5-4.11,2.43-8.05,6-11.36,10.08-12.81,15.81-28.39,24.62-44.28,32.94-8.78,4.6-18.02,9.35-21.95,22.01-2.64,8.49-4.63,17.86-5,26.97-.71,17.48-1.02,35.13,2.28,52.4,3.25,16.97,9.59,31.22,20.9,40.49,14.17,11.61,28.67,22.47,42.89,33.97,6.09,4.92,11.6,11.19,17.81,15.78,3.51,2.6,7.88,4.02,11.92,4.26,12.51.72,20.48-8.01,22.69-24.34,1.13-8.38,2.4-16.89,2.44-25.35.1-18.93,6.29-34.77,12.7-50.78,4.4-10.99,8.82-22.15,11.8-33.89,1.75-6.91.7-15.09.91-22.7"/>
          <path class="cls-5" d="m1218.48,2545.6c-3.29-12.4-8.38-14.5-15.75-5.84-6.56,7.72-11.38,16.87-10.83,29.52.37,8.43,4.85,12.8,10.78,10.14,8.83-3.96,15.68-18.26,15.8-32.97"/>
          <path class="cls-5" d="m1200.79,2217.6c-1.9-7.33-2.86-15.46-5.93-21.77-3.6-7.39-8.33-14.58-13.79-19.39-16.04-14.16-27.38-34.48-40.22-52.78-7.98-11.38-16.64-20.24-28.5-22.82-9.14-1.98-17.28.97-24.59,7.83-4.19,3.93-5.4,9.79-3.92,16.81,3.15,14.86,6.55,29.7,8.71,44.83,1.62,11.3,1.49,23.05,2.08,34.61.96,18.73,3.8,36.64,12,52.43,7.53,14.49,17.79,21.59,30.98,22.05,12.69.44,24.71-3.64,36.64-8.56,4.45-1.84,8.77-4.42,13.29-5.8,10.75-3.27,12.6-14.27,13.19-26.31.33-6.73.06-13.52.06-20.28"/>
          <path class="cls-5" d="m652.35,1603.87c-1.68-6.48-2.89-13.28-5.14-19.38-7.23-19.59-17.39-22.73-30.75-14.1-14.84,9.58-28.45,29.21-25.93,58.83,1.07,12.57,7.15,21.35,15.76,25.13,12.41,5.44,29.07,4.39,39.18-10.65,4.5-6.7,6.43-14.34,6.83-22.92.25-5.33.05-10.7.05-16.06"/>
          <path class="cls-5" d="m645.4,563.22c-.62-15.08-7.11-26.19-13.88-37.22-13.43-21.89-28.13-42.02-45.55-58.24-14.04-13.07-28.03-9.16-39.81,4.94-15.27,18.27-26.27,40.58-34.62,65.21-11.14,32.84-24.33,64.09-38.48,94.75-7.02,15.21-5.78,31.27,2.45,45.45,7.34,12.64,17.99,15.76,27.66,2.53,4.17-5.7,7.71-12.25,11.43-18.53,10.35-17.47,24.59-25.32,40.47-27.65,11.91-1.75,24.02-.88,35.99-2.09,8.26-.83,16.61-2.32,24.61-5.12,11.15-3.91,17.96-14.7,22.93-28.44,4.03-11.14,6.38-22.52,6.81-34.75"/>
          <path class="cls-5" d="m639.72,3012.25c-7.37-24.23-14.67-48.51-22.15-72.68-2.92-9.43-6.01-18.81-9.5-27.87-4.96-12.85-12.74-20.15-23.94-20.41-7.8-.18-15.68-2.34-23.36-1.35-15.43,2-31.28.77-45.61,12.18-13.47,10.72-25.37,23.47-33.88,40.92-7.52,15.43-8.07,28.48-.09,44.65,11.93,24.18,25.69,46.16,42.16,65.33,16.3,18.98,34.28,23.12,54.47,15.86,13.27-4.77,26.61-9.24,39.79-14.46,13.29-5.27,23.92-14.97,22.14-41.33"/>
          <path class="cls-5" d="m630.87,290.16c-4.53-22.44-17.26-32.32-32.86-32.47-22.09-.22-41.53,21.69-38.96,53.58,1.01,12.49,5.87,22.86,15.55,28.03,12.34,6.58,24.91,6.14,36.56-.46,15.22-8.62,21.35-25.81,19.7-47.83"/>
          <path class="cls-5" d="m755.98,1316.44c-2.11-9.02-3.41-18.57-6.49-26.94-6.02-16.34-16.47-26.88-28.2-35.76-16.08-12.16-33.38-19.9-51.3-23.9-11.3-2.52-23.2-1.48-34.1,6.2-11.66,8.22-23.24,17.1-36.62,19.45-7.33,1.29-14.73,1.88-22.11,2.59-11.97,1.16-24.3,1-35.31,7.84-22.7,14.1-29.03,37-22.75,69.94,6.67,34.99,24.01,56.65,49.23,67.6,14.18,6.16,28.41,4.52,42.3-1.74,11.14-5.02,22.17-11.42,34.13-9.8,9.78,1.33,19.44,4.55,29.07,7.43,13.5,4.03,26.85,4.42,39.79-2.69,14.35-7.88,27.85-17.31,35.47-37.07,5.16-13.39,7.08-27.48,6.89-42.31"/>
          <path class="cls-5" d="m610.65,2991.96c-2.42-13.58-5.75-26.8-12.08-37.96-13.31-23.48-27.54-24.88-48.51-16.71-6.28,2.45-12.57,7.02-17.62,12.61-17.69,19.59-17.99,44.02-3.74,68.93,4.78,8.35,10.63,15.8,18.71,19.86,13.4,6.75,25.9,1.61,38.6-2.83,2.18-.76,4.25-2.12,6.32-3.34,12.9-7.62,20.57-19.58,18.33-39.72"/>
          <path class="cls-5" d="m609.39,1938.63c-2.67-11.93-8.46-20.57-15.76-27.96-16.99-17.2-34.55-33.18-55.68-39.43-11.76-3.47-23.81-4.13-36-1.32-11.87,2.74-24.01,3.32-35.98,5.38-12.67,2.18-25.3,4.87-37.91,7.56-19.74,4.21-39.11,10.95-59.39,11.34-15.22.29-30.18-.67-44.84-5.6-20.69-6.95-34.26-24.55-39.74-52.3-2.46-12.48-4.67-25.23-5.59-38.03-1.26-17.53,3.56-33.11,11.12-47.38,3.54-6.68,6.93-13.7,9.41-21.15,3.63-10.9-4.33-19.64-12.5-17.62-8.14,2.02-14.22,9.16-20.18,16.08-11.64,13.54-24.61,24.33-39.28,30.11-23.2,9.13-40.87,26.42-52.48,55.14-9.47,23.42-20.17,45.95-29.47,69.48-8.07,20.41-11.53,42.71-9.47,65.82,1.2,13.42,5.95,24.65,14.98,32.24,8.21,6.9,16.47,13.88,23.97,22.03,15.16,16.48,23.16,38.66,26.66,64.1,3.44,25.05-.06,48.12-11.59,68.29-3.44,6.01-8.81,10.37-13.79,14.41-6.02,4.88-12.67,8.35-18.86,12.89-15.64,11.48-19.93,24.35-14.93,46.34,5.07,22.32,15.93,39.49,31.97,49.97,13.72,8.97,25.87,4.38,36.57-8.56,5.29-6.39,9.76-13.99,14.61-21.02,9.51-13.77,20.39-25.12,32.83-33.88,7.92-5.58,15.83-11.31,23.35-17.79,13.84-11.93,14.58-25.82,12.7-43.86-1.97-18.87-5.61-37.27-5.95-56.63-.53-30.38,11.01-45.12,28.06-55.77,22.29-13.92,44.48-28.14,67.04-41.22,10.1-5.85,20.78-10.84,31.57-13.33,12.08-2.79,23.22,4.75,34.06,11.41,13.27,8.16,26.3,17.13,39.87,24.31,16.74,8.86,34.32,13.09,52.37,14.88,10.73,1.06,21.03.49,30.95-4.62,21.49-11.07,37.31-42.6,37.31-73.45"/>
          <path class="cls-5" d="m778.72,2623.38c-1.26-6.2-2.33-12.49-3.83-18.58-4.94-20.07-23.2-39.51-45.5-35.09-21.71,4.3-37.85,19.89-51.56,40.4-12.98,19.41-24.44,40.67-36.15,61.53-9.36,16.66-14.77,35.5-15.93,56.56-1.4,25.39-3.69,50.7-4.77,76.11-.35,8.35,1.34,17.1,3.07,25.3,2.51,11.89,7.35,15.83,16.3,16.17,14.56.56,27.98-6.46,41.65-11.32,8.71-3.1,17.21-7.96,25.24-13.48,8.71-5.97,13.34-16.96,15.85-29.38,3.47-17.15,7.04-34.28,10.06-51.58,4.05-23.19,11.2-43.65,23.85-61.14,7.14-9.87,15.88-18.97,18.51-33.53,1.26-6.98,2.14-14.08,3.2-21.12"/>
          <path class="cls-5" d="m596.75,550.54c-1.65-12.59-6.8-22.46-13.94-30.36-11-12.16-22.94-12.78-34.07-.07-10.14,11.59-15.17,26.96-17.63,43.97-1.82,12.63,4.27,23.59,13.84,24.35,11.72.94,23.43.44,34.76-4.87,11.29-5.29,17.86-16.43,17.05-32.18"/>
          <path class="cls-5" d="m589.17,2582.8c-6.95-34.7-26.64-49.22-50.57-56.53-12.32-3.77-24.75-4.56-37.28-.23-14.62,5.05-24.5,23.56-24.73,42.38-.29,22.84,2.77,43.88,13.3,62.65,8.57,15.28,20.5,22.46,33.6,26.85,18.71,6.28,35.52-.13,49.11-17.85,11.59-15.09,18.72-33.6,16.58-56.44"/>
          <path class="cls-5" d="m576.53,1945.39c-2.66-13.51-10.29-21.43-18.34-28.7-12.59-11.37-26.38-17.74-41.66-19.72-15.46-2.01-30.14.72-44.18,8.9-5.05,2.94-9.7,7.68-13.88,12.6-6.45,7.6-5.98,20.9-.74,30.32,8.98,16.13,21.24,26.09,34.77,33.8,13.94,7.95,28.5,12.35,43.59,10.79,16.48-1.69,31.22-8.77,38.42-31.17,1.55-4.83,1.4-10.63,2.03-15.99"/>
          <path class="cls-5" d="m567.69,2592.95c-4.74-29.62-28.82-39.78-44.81-35.98-15.78,3.75-24.69,19.09-19.57,43.56,3.82,18.27,13.77,28.86,27.15,31.81,12.54,2.76,24.54-1.47,31.96-16.76,3-6.18,3.59-14.46,5.27-21.79"/>
          <path class="cls-5" d="m800.21,575.9c-1.94-11.31-7.48-17.6-15.01-23.2-9.28-6.89-17.66-16.14-25.99-25.1-7.9-8.49-14.81-18.68-22.91-26.77-13.32-13.29-33.71-12.09-47.21,2.5-9.32,10.07-16.58,22.6-20.98,37.88-4.17,14.49-1.43,27.45,5.26,38.75,4.67,7.9,10.33,15.09,16.37,21.13,12.96,12.96,26.65,24.59,39.65,37.47,14.36,14.23,28.59,10.3,42.3-.31,14.11-10.92,24.11-26.96,27.82-48.85.69-4.08.49-8.43.7-12.66"/>
          <path class="cls-5" d="m538.62,2165.19c-2.17-15.01-8.92-26.36-16.4-37.23-6.87-9.99-13.34-20.47-20.29-30.34-8.57-12.17-18.82-21.07-30.22-28.13-13.86-8.57-27.9-16.35-43.04-19.12-23.7-4.33-45.43,1.36-61.81,27.01-6.15,9.64-6.31,21.77-4.46,33.69,1.62,10.5,3.42,20.99,5.69,31.27,5.42,24.55,2.96,48.12-5.91,70.08-9.09,22.52-16.01,45.74-18.83,71.12-1.72,15.53-4.36,30.93-5.49,46.52-1.17,16.11-7.66,27.07-16.61,36.3-13.76,14.2-24.67,31.68-33.46,51.61-4.31,9.78-8.34,19.8-12.67,29.56-11.68,26.27-1.82,45.47,14.63,55.59,15.27,9.39,31.5,14.81,48.58,14.65,15.55-.15,23.84-16.95,24.76-32.17,1.39-23.09-2.98-44.85-7.02-66.81-1.38-7.5-2.77-15.15-3.09-22.82-.81-19.68,3.73-26.48,18.87-30.2,11.43-2.81,23.15-3.43,34.72-5.33,22.02-3.62,39.35-16.48,50.01-43.86,11.92-30.61,21.53-62.28,28.45-95.55,4.69-22.58,10.1-24.99,26.42-28.07,5.99-1.13,11.99-3.16,17.66-5.95,6.98-3.43,9.58-11.34,9.52-20.97"/>
          <path class="cls-5" d="m523.46,1029.02c-2.58-14.14-16.94-16.18-28.42-8.41-1.18.8-2.15,2.17-3.17,3.35-2.38,2.75-6.7,4.85-4.81,9.97,1.17,3.15,4.6,5.9,7.37,6.7,7.77,2.25,15.63,3.47,23.39-1.32,3.32-2.05,5.92-3.95,5.64-9.44"/>
          <path class="cls-5" d="m517.14,1644.44c-2.74-12.24-9.51-15.86-18.32-16.16-9.89-.34-19.34,1.64-28.44,6.85-15.59,8.93-23.82,26.21-28.93,46.57-2.04,8.11-3.35,16.79-3.75,25.32-.59,12.46,5.66,20.45,15,21.15,9.9.74,18.51-4.03,26.52-11.05,14.19-12.44,26.37-27.43,34.21-48.1,2.89-7.61,4.24-15.32,3.72-23.72"/>
          <path class="cls-5" d="m475.44,364.56c-2.11-15.5-4.81-30.9-6.16-46.52-1.53-17.65-1.81-35.48-2.7-53.23-.76-15.1-5.04-28.76-10.83-41.34-10.19-22.13-17.56-45.77-24.05-70.18-8.52-32.07-32.33-40.09-52.32-23.77-11.78,9.62-20.24,22.82-23.91,40.64-4.28,20.82.95,39.2,10.12,55.67,6.24,11.21,13.5,21.39,20.1,32.25,10.19,16.77,12.39,36.03,8.81,56.59-2.86,16.44-6.77,32.57-9.29,49.09-3.09,20.29-2.72,41.07,3.89,59.84,10.21,28.96,31.96,39.52,54.68,19.46,15.07-13.31,25.27-32.02,29.65-55.7,1.31-7.1,1.37-14.62,2-21.94"/>
          <path class="cls-5" d="m461.54,824.44c-3.37-15.99-11.74-27.79-18.93-40.6-7.06-12.57-14.06-25.21-20.83-38.06-5.02-9.53-7.31-20.3-7.02-32.08.51-20.85,1.36-41.71,1.11-62.55-.16-13.47-1.76-26.85-5.4-39.79-5.62-19.96-14.97-24.47-29.13-19.97-33.48,10.64-62.71,32.27-86.47,65.85-6.78,9.59-11.82,21.35-17.86,31.92-6.19,10.84-12.62,21.43-18.92,32.16-1.95,3.32-4.26,6.46-5.62,10.19-6.28,17.21-1.8,25.97,10.09,30.96,7.46,3.13,15.58,3.29,23.3,5.41,16.46,4.52,27.71,17.45,34.89,37.89,6.57,18.69,13.85,36.97,21.45,54.96,8.68,20.56,21.27,35.64,38.48,42.22,22.73,8.68,42.27-1.68,59.93-20.29,4.28-4.52,8.05-10.19,11.36-16.02,6.89-12.12,11.16-25.58,9.56-41.34"/>
          <path class="cls-5" d="m453.33,1026.48c-5.11-14.15-13.55-20.79-25.27-20.34-4.35.17-7.76,1.75-9.5,7.64-1.65,5.56.53,9.11,3.17,12.72,5.75,7.86,19.87,11.49,28.41,5.78,1.35-.9,2.15-3.27,3.2-4.96"/>
          <path class="cls-5" d="m445.11,2234.51c-2.87-15.97-8.49-29.39-18.91-38.97-8.79-8.09-17.06-10.1-25.94.11-15.1,17.37-27.5,37.29-33.55,63.36-3.52,15.15-3.66,30.1.74,44.79,4.5,15.01,13.73,21.38,25.22,22.84,23.96,3.04,39.58-17.81,47.48-46.43,4.04-14.62,5.61-29.45,4.96-44.85"/>
          <path class="cls-5" d="m849.49,1612.32c-4.96-19.63-15.05-21.63-29.02-18.99-14.54,2.75-28.7,9.08-43,13.97-2.18.75-4.32,1.96-6.31,3.37-5.96,4.21-7.43,8.8-5.69,17.7,3.47,17.77,10.04,33,24.08,37.58,7.31,2.38,15.86,1.76,23.21-.8,11.88-4.14,22.93-11.54,30.43-25.76,4.17-7.91,6.75-16.39,6.3-26.23"/>
          <path class="cls-5" d="m877.29,712.85c-.79-4.45-2.68-4.48-5.71-3.5-17.23,5.6-34.62,10.3-51.76,16.33-16.61,5.84-31.57,15.73-38.5,38.78-7.03,23.37-3.59,46.44,13.3,56.29,11.06,6.45,22.66,2.62,33.36-3.98,15.78-9.74,27.25-25.7,34.68-46.49,5.13-14.34,9.55-29.15,13.86-43.97,1.1-3.77.55-8.38.76-12.61"/>
          <path class="cls-5" d="m427.42,827.82c-4.95-27.62-18.86-45.29-36.68-58.26-17.13-12.47-35.52,2.3-36.67,28.67-1.23,28.27,7.04,50.52,23.46,67.57,9.74,10.12,20.47,13.89,32.18,5.96,11.86-8.03,17.89-20.94,17.7-38.86-.01-1.41,0-2.82,0-4.23"/>
          <path class="cls-5" d="m383.19,658.74c-4.76-14.77-10.06-18.65-21.46-14.25-9.84,3.8-17.8,10.77-22.38,24.25-2.2,6.48-1.89,11.8.35,16.97,4.32,9.97,14.19,17.58,23.28,15.38,11.79-2.85,20.02-20.66,20.2-31.36.06-3.38,0-6.76,0-10.14"/>
          <path class="cls-5" d="m373.71,1941.17c-3.66-14-13.21-16.96-22.15-20.13-14.41-5.11-28.91-10.17-43.59-13.46-24.29-5.45-38.91-23.9-45.58-55.13-1.75-8.19-4.69-15.99-7.51-23.68-9.45-25.73-34.62-26.89-49.2-12.64-12.98,12.69-18.5,31.48-22.14,51.5-4.43,24.34,1.5,46,10.13,66.75,8.03,19.3,15.83,38.84,24.81,57.34,5.65,11.65,12.85,22.16,20.16,32.11,5.45,7.42,12.25,6.77,18.83,1.07,17.73-15.34,37.88-21.87,58.12-27.89,17.13-5.1,32.36-15.49,46.01-29.81,5.97-6.26,11.56-13.8,12.11-25.19"/>
          <path class="cls-5" d="m900.04,1296.15c-3.22-14.22-11.74-18.73-21.48-21.16-14.56-3.63-28.05.02-41.12,9.2-13.19,9.25-19.29,25.47-13.9,46.64,5.18,20.34,12.85,38.53,24.71,53.21,10.78,13.36,23.45,12.55,33.46-3.36,8.8-13.98,13.09-30.77,15.64-48.22,1.7-11.61,1.85-23.63,2.69-35.46"/>
          <path class="cls-5" d="m369.29,1243.74c-4.03-25.04-18.48-32.92-34.78-36.1-14.62-2.86-29.5-3.13-44.18-5.51-8.82-1.43-17.72-3.67-24.69-12.45-4.44-5.59-6.53-12.31-6.27-20.33.34-10.43.75-20.86,1.26-31.28,1.03-21.12-7.72-34.14-23.39-33.74-24.54.62-45.13,12.4-60.74,38.73-8.46,14.27-20.05,23.63-32.19,31.23-16.52,10.34-31.41,24.06-45.99,38.33-15.77,15.44-33.02,27-50.6,37.97-4.6,2.87-9.59,5.7-13.13,10.3-5.2,6.77-5.43,16.56-3.16,25.05,5.03,18.76,14.04,33.89,27.04,43.93,10.93,8.43,21.88,17.23,33.54,23.44,14.2,7.56,26.46,18.66,38.45,30.75,8.81,8.88,17.95,17.68,29.66,15.81,6.25-1,12.87-3.39,18.2-7.65,8.74-6.99,16.48-16.18,24.81-24.15,9.79-9.38,19.98-16.82,32.84-15.44,10.19,1.09,18.01,8.77,26.49,14.64,10.46,7.24,20.32,16.24,31.09,22.45,12.93,7.46,26.25,9.21,38.48-3.89,6.91-7.4,11.06-17.5,13.67-28.04,8.32-33.58,15.86-67.51,23.47-101.4.81-3.62.11-7.85.11-11.79"/>
          <path class="cls-5" d="m901.3,2452.61c-.84-8.45-1.43-16.97-2.58-25.35-3.14-22.85-12.73-39.22-29.06-47.18-14.46-7.05-29.3-.38-34.23,18.65-2.52,9.73-1.61,22.32.46,32.64,4.94,24.58,10.79,48.94,17.68,72.66,3.3,11.34,8.71,22.47,15.11,31.1,10.27,13.84,21.45,10.38,26.37-8.93,3.09-12.15,4.89-24.4,5.03-37.23.13-11.84.78-23.67,1.2-35.51"/>
          <path class="cls-5" d="m903.83,440.64c-2.66-8.37-8.65-8.87-13.91-9.03-6.58-.2-12.99,2.66-18.27,8.27-3.12,3.32-6.59,7.41-5.6,13.4,1.17,7.08,5.77,10.65,10.63,11.69,8.67,1.86,16.49-1.97,23.34-9.14,3.46-3.63,4.23-8.76,3.81-14.34"/>
          <path class="cls-5" d="m921.52,1089.88c-4.67-12.59-13.76-15.47-22.76-17.63-20.38-4.9-40.82-9.38-61.28-13.58-21.59-4.43-41.95-.93-60.77,15.75-9.21,8.16-19.68,13.75-29.57,20.54-1.93,1.32-3.75,2.94-5.7,4.19-7.8,5.01-7.53,14.16-2.41,21.87,9.6,14.45,22.29,21.07,36.54,22.03,13.47.91,26.96,1,40.43,1.82,14.54.89,29.07,3.25,43.6,3.08,21.08-.25,39.73-9.72,54.33-31.04,5.06-7.39,8.35-15.76,7.59-26.2"/>
          <path class="cls-5" d="m340.23,1284.32c-4.27-26.61-20.76-33.83-36.66-36.17-10.45-1.54-21.04-1.62-31.58-1.76-6.1-.08-12.24.7-18.32,1.63-15.39,2.36-28.14-5.35-39.85-17.75-3.56-3.77-7.44-7.07-11.36-10.16-14.6-11.51-30.27-9.62-45.42-4-26.99,10.02-50.81,28.23-71.49,53.78-14.33,17.69-7.88,33.14,4.53,43.02,7.42,5.91,15.68,9.91,23.27,15.47,9.85,7.21,19.46,15.02,29.09,22.75,18.59,14.92,24.89,12.53,42.93-1.82,6.61-5.26,12.66-11.77,19.01-17.64,21.58-19.99,34.6-15.14,52.4,3.44,10.91,11.38,21.2,23.96,34.17,31.16,14.47,8.04,26.06,7.47,36.61-9.27,5.4-8.56,7.79-19.03,10.18-29.55,3.16-13.91,2.4-28.12,2.47-42.29"/>
          <path class="cls-5" d="m337.7,1521.02c-1.95-9.65-6.33-16.65-12.61-22.04-14.84-12.76-29.18-26.62-44.36-38.59-12.84-10.12-27.03-17.44-42.15-10.9-9.68,4.19-18.56,11.67-27.89,17.4-23.5,14.42-47.51,16.1-71.3,2.31-12.06-6.99-23.4-16.31-34.79-25.2-12.57-9.81-25.62-16.09-40.48-15.24-18.61,1.05-33.8,19.58-33.51,44.92.34,29.76,8.66,55.07,23.4,76.93,11.85,17.57,27.04,29.74,40.38,44.89,8.51,9.67,16.41,20.32,24.72,30.31,9.08,10.92,18.55,20.81,30.92,24.66,12.93,4.02,25.04,1.45,35.94-7.91,9.08-7.8,17.69-16.76,25.93-26.12,15.78-17.92,33.95-26.2,54.39-28.92,21.54-2.87,42.24-10.11,58.83-30.92,7.61-9.55,12.95-20.19,12.59-34.73"/>
          <path class="cls-5" d="m328.85,3103.55c-1.05-4.23-1.47-9.04-3.29-12.56-4.36-8.48-11.13-8.57-17.53-5.89-14.87,6.23-27.21,17.12-34.83,36.18-4.8,12.01-3.03,23.91,2.7,32.85,6.25,9.75,14.14,16.83,23.87,19.66,7.23,2.11,11.17.83,15.14-6.86,7.21-13.98,10.39-30.05,12.63-46.47.72-5.28.89-10.7,1.31-16.05"/>
          <path class="cls-5" d="m318.74,1953.85c-4.38-8-11.01-9.97-17.06-5.07-4.3,3.49-4.3,6.66,0,10.14,5.73,4.64,11.95,3.1,17.06-4.23"/>
          <path class="cls-5" d="m934.16,2256.49c-1.05-6.2-1.69-12.59-3.24-18.56-4.06-15.59-12.63-24.88-24.57-27.83-19.72-4.88-33.91,8.94-39.09,37.96-2.13,11.97-4.37,24.13-4.94,36.34-1.24,26.42-12.33,43.03-27.89,56.83-10.11,8.97-19.44,19.44-25.48,34.38-6.12,15.16-6.51,30.76-2.91,46.51,2.59,11.31,6.65,22.01,9.95,33.04,7.41,24.78,14.88,49.53,22.09,74.4,8.06,27.79,18.58,53.51,34.88,74.24,4.01,5.1,8.82,9.68,13.88,12.58,10.54,6.05,20.19,1.48,24.97-12.59,3.1-9.13,5.24-19.5,5.66-29.47.85-20.51.45-41.13.21-61.69-.35-29.94,3.62-59.05,8.95-87.9,3.14-16.98,5.11-34,5.11-51.59,0-23.39.68-46.78,1.18-70.16.32-15.22.82-30.43,1.24-45.65"/>
          <path class="cls-5" d="m312.43,491.36c-4.76-26.6-15.44-50.01-22.81-75.21-7.5-25.65-13-51.63-14.09-79.48-.82-20.94-3.98-41.72-6.06-62.58-1.31-13.24-2.32-26.53-3.86-39.72-1.87-16.11-4.07-32.16-6.29-48.19-2.42-17.5-5.33-34.88-7.47-52.44-2.14-17.6-9.61-29.3-21.61-35.33-15.8-7.92-32.26-11.61-49.24-10.33-10.03.76-16.13,9.12-16.38,23.7-.46,26.35-8.02,47.34-23.91,63.65-8.04,8.26-15.61,18.87-13.83,34.36.9,7.86,3.13,16,6.28,22.72,8.12,17.34,17.38,33.71,25.66,50.93,11.04,22.95,17.84,48.27,20.81,75.2,2.23,20.18,3.12,40.62,5.27,60.82,1.8,16.85,2.62,33.86,7.88,50.03,5.26,16.14,14.54,24.55,26.15,29.33,15.04,6.18,30.28,11.47,45.47,17.01,6.7,2.44,13.44,4.74,20.22,6.75,17.2,5.1,27.79-6.57,27.79-30.39"/>
          <path class="cls-5" d="m280.2,1521.86c-2.63-21.94-21.25-30.28-32.85-26.16-9.73,3.45-19.33,7.59-29.09,10.88-19.37,6.53-38.56,4.3-57.48-3.35-19.65-7.94-37.32-21.77-55.68-33.6-6.97-4.49-14.51-8.58-22.09-9.97-14.28-2.63-28.84,8.7-29.7,33.46-.81,23.35,7.36,41.78,19.85,55.43,19.81,21.65,41,41.05,61.73,61.17,7.28,7.06,15.88,10.75,24.63,11.5,5.37.46,11.17-2.16,16.36-4.83,13.74-7.07,23.78-21.4,34.73-33.76,11.57-13.06,24.29-22.92,38.57-29.62,7.99-3.75,15.75-8.53,23.37-13.52,4.93-3.23,7.41-9.29,7.63-16.78"/>
          <path class="cls-5" d="m969.54,2330.88c-2.11-15.78-4.69-31.48-6.2-47.36-1.79-18.79-2.33-37.79-4.01-56.6-1.6-18-8.28-32.11-20.13-41.43-19.91-15.66-41.22-25.72-64.45-26.02-18.1-.23-31.8,16.31-33.96,41.25-1.3,15.08-.72,30.43-1.51,45.62-.73,13.97-1.11,28.06-4.93,41.45-5.22,18.25-15.81,30.13-26.45,42.44-10.68,12.37-20.94,25.59-30.25,39.78-6.4,9.77-10.35,22.04-12.28,35.24-2.42,16.58,3.67,28.9,10.87,40.53,7.52,12.14,15.63,23.62,23.29,35.6,10.15,15.87,16.21,34.74,21.48,54.09,11,40.4,27.27,76.81,46.84,110.67,5.11,8.84,10.52,17.48,16.45,25.32,14.96,19.79,32.25,15.55,42.79-8.43,5.76-13.12,8.38-27.68,9.79-43,2.22-24.05,0-47.44-2.6-71.07-1.62-14.78-2.39-29.83-2.55-44.78-.26-24.84,5.37-47.96,14.53-69.22,9.56-22.2,18.57-44.54,21.28-70.28,1.15-10.89,1.35-21.96,1.98-32.95"/>
          <path class="cls-5" d="m265.04,443.18c-3.42-29.7-17.36-48.75-36.07-62.41-9.28-6.78-15.57-1.47-17.71,12.52-2.95,19.31-.46,37.14,7.74,53.21,7.97,15.62,19.94,20.32,33.4,18.54,8.08-1.07,11.29-7.07,12.65-21.01"/>
          <path class="cls-5" d="m235.34,225.92c-2.03-11.32-4.74-22.15-11.35-30.46-4.91-6.17-12.96-8.53-18.93-4.09-9.65,7.19-19.17,14.75-28.42,22.83-6.41,5.6-8.91,15.14-6.28,24.34,5.77,20.18,14.75,37.53,27.73,50.72,5.73,5.83,11.81,5.66,17.65.03,12.51-12.04,19.76-27.88,19.6-49.01-.03-4.51,0-9.02,0-13.53"/>
          <path class="cls-5" d="m977.12,844.73c-3.63-8.14-8.6-12.75-12.61-10.9-4.88,2.25-8.82,7.71-8.9,15.12-.1,9.18,5.05,17,11.41,16.91,5.14-.07,10.07-7.91,10.11-16.06,0-1.41,0-2.82,0-4.23"/>
          <path class="cls-5" d="m998.6,156.6c-1.26-10.43-2.62-20.83-3.77-31.28-1.36-12.38-2.33-24.84-3.88-37.18-1.27-10.09-6.67-14.1-13.11-9.12-6.09,4.71-12.02,10.3-17.03,16.86-12.14,15.87-23.55,32.74-35.53,48.84-24.27,32.62-51.12,60.32-82.63,79.82-11.98,7.41-23.65,17.19-30.35,33.57-7.71,18.84-8.09,30.69-.11,47.3,5.47,11.38,22.92,20.68,35.42,16.97,14.14-4.2,24.97-15.57,35.35-28,18.38-22,36.55-44.41,58.19-60.73,8.76-6.61,18.21-11.59,27.07-17.99,6.15-4.44,12.31-9.27,17.64-15.26,9.82-11.05,12.92-26.27,12.74-42.95"/>
          <path class="cls-5" d="m1001.13,1757.72c-2.91-16.29-11.58-24.38-22.71-29.71-11.53-5.52-23.29-7.64-35.41-6.6-8.22.7-14.46,9.27-15.17,20.25-1.12,17.21,3.91,31.89,10.81,45.59,4.61,9.15,10.65,16.42,18.25,21.22,16.49,10.41,29.85,2.24,38.55-16.09,4.91-10.35,6.41-21.75,5.69-33.81"/>
          <path class="cls-5" d="m172.16,2373.15c-1.9-8.74-3.41-17.66-5.77-26.16-3.92-14.11-11.83-24.66-20.27-33.63-18.95-20.16-38.54-39.25-58.07-58.42-3.27-3.21-7.41-5.02-11.32-6.81-7.17-3.28-14,1.15-16.93,11.81-3.03,11.03-5.44,22.39-7.64,33.78-4.58,23.76-13.44,43.62-27.75,59.34-4.31,4.73-7.71,11.28-10.75,17.66-4.1,8.63-2.21,18.2,4.32,25.25,10.14,10.95,22.06,16.13,34.74,18.6,14.74,2.87,29.44,6.3,44.24,8.28,14.68,1.97,29.48,3.41,44.21,3.19,8.6-.13,17.65-1.47,24.72-10.51,4.52-5.78,5.92-12.72,6.19-20.4.24-7.03.05-14.09.05-21.13"/>
          <path class="cls-5" d="m168.37,2616.62c-2.14-14.75-4.86-29.05-10.6-42.38-6.98-16.19-16.22-28.37-29.87-32.66-13.55-4.26-27.07-.53-39.69,5.99-14.04,7.26-27.46,16.63-41.15,25.1-1.71,1.06-3.55,1.93-5.03,3.42-9.2,9.24-9.99,21.49-1.88,34.56,7.27,11.69,16.8,19.45,27.13,25.37,12.58,7.22,25.57,13.31,37.79,21.46,8.34,5.56,15.82,13.56,23.45,20.91,11.33,10.91,15.74,8.04,23.79-3.75,10.73-15.72,15.32-35.78,16.05-57.17"/>
          <path class="cls-5" d="m1009.98,1940.32c-1.97-18.03-12.73-23.56-23.43-27.66-15.86-6.08-31.98-11.04-48.6-12.12-3.59-.23-7.16-1.46-10.74-1.56-7.59-.21-9.26,1.76-12.03,11.74-4.37,15.76-8.06,31.83-15.63,45.8-4.18,7.7-9.08,13.7-15.34,17.52-9.71,5.92-19.69,1.79-22.9-11.66-2.3-9.62-3.55-18.84-2.38-28.83,1.86-16.01,9.6-25.03,20.31-29.37,9.46-3.83,19.26-6.38,29.04-8.47,6.06-1.29,7.68-6.23,8.16-12.88.94-13.04-.18-26.06-3.92-37.94-6.5-20.62-14.56-40.34-27.76-54.84-4.49-4.93-10.15-9.5-15.73-10.78-11.44-2.62-18.6,3.8-21.88,19.1-2.59,12.05-3.73,24.69-5.19,37.14-1.48,12.63-1.92,25.55-4.01,37.98-2.51,14.93-8.77,27.09-18.09,36.51-5.81,5.88-11.54,12.22-16.39,19.45-14.71,21.95-8.55,47.79,10.06,56.34,9,4.14,18.55,6.1,27.74,9.56,7.88,2.97,16.35,4.98,23.24,10.41,14.23,11.23,29.06,15.04,45,11.37,15.02-3.45,30-7.33,44.86-11.83,22.21-6.73,40.23-21.97,51.73-49,1.94-4.56,2.62-10.07,3.89-15.14"/>
          <path class="cls-5" d="m165.84,1008.73c-4.55-16.61-13.27-27.18-25.91-32.13-6.42-2.51-12.5-.18-17.61,4.39-12.4,11.11-19.91,26.37-19.67,47.17.13,11.68,6.44,20.48,15.17,20.22,16.7-.5,30.86-9.79,43.59-23.61,3.61-3.92,5.01-9.07,4.43-15.21"/>
          <path class="cls-5" d="m1015.03,1101.72c-4.89-24.42-19.22-37.26-34.17-48.92-16.76-13.07-35.22-16.51-54.29-14.39-10.98,1.22-21.88,3.94-32.87,4.85-20.07,1.66-39.45-4.16-58.79-10.68-8.87-2.99-18.03-4.83-27.15-5.91-11.23-1.33-22.12,2.55-32.83,6.65-13.32,5.09-26.38,11.72-39.88,15.65-10.23,2.97-20.78,4.43-31.57,1.43-17.35-4.81-34.84-9.14-52.43-11.75-14-2.07-27.72,1.45-39.13,14.07-9.26,10.25-10.05,24.03-4.25,38.73,7.56,19.19,20.28,31.02,35.86,36.31,12.48,4.23,25.27,6.73,37.87,10.37,16.77,4.85,32.1,14.63,46.72,26.24,17.02,13.52,34.76,22.66,55.01,21.14,14.09-1.06,28.25-.56,42.32-1.95,18.42-1.82,36.85-3.31,55.02-8.93,19.9-6.16,37.37-18.65,54.32-33.13,10.42-8.9,21.67-15.39,34.11-16.78,4.57-.51,9.25,1,13.89,1.5,5.68.62,11.37,1.49,17.06,1.63,10.22.25,15.15-6.53,15.16-20.21,0-1.69,0-3.38,0-5.07"/>
          <path class="cls-5" d="m154.47,613.09c-3.79-16.16-14.26-20.13-24.67-22.63-22.66-5.44-43.07,5.77-63.1,17.73-6.8,4.06-11.82,17.14-10.8,24.34,1.79,12.6,9.59,23.69,18.33,25.31,24.47,4.55,47.35-1.42,68.2-19.46,6.57-5.69,10.46-14.15,12.04-24.45"/>
          <path class="cls-5" d="m152.57,1552.3c-1.52-9.43-6.36-15.83-11.39-21.96-12.8-15.61-27.2-27.47-44.22-32.98-4.42-1.43-12.86,1.4-13.61,5.99-.96,5.85-1.27,13.27.63,18.32,4.46,11.83,12.01,20.51,20.59,27.19,11.5,8.96,23.21,16.95,37.26,15.38,6.98-.78,8.41-1.65,10.73-11.1"/>
          <path class="cls-5" d="m1015.03,807.53c-1.91-15.31-10.95-19.33-20.24-20.87-12.96-2.16-26.09-3.3-39.15-3.38-9.89-.06-19.57,3.95-25.71,15.15-3.6,6.56-6.06,14.74-7.61,22.69-3.4,17.43-3.02,34.85,2.99,51.51,7.66,21.27,21.79,29.23,37.94,31.85,6.59,1.07,13.51-.3,20.18-1.53,18.2-3.34,25.38-20.76,29.06-42.17,2.96-17.27,2.74-34.85,2.55-52.41"/>
          <path class="cls-2" d="m1021.35,2322.43c-3.13-11.92-7.4-22.86-13.15-33.09-11.18-19.93-16.34-43.26-19.83-67.48-1.4-9.76-3.64-19.43-6.29-28.73-6.72-23.51-20.32-36.68-37.8-44.08-17.78-7.53-35.33-15.99-53.11-23.53-32.82-13.93-64.68-.42-87.14,32.95-8.72,12.95-9.29,28.9-6.8,44.71,2.26,14.34,6.48,28.11,9.21,42.35,5.16,26.86-3.65,46.59-19.41,58.55-13.73,10.43-27.35,10.99-41.82,4.87-4.13-1.75-8.37-3.22-12.63-4.21-11.63-2.72-19.84,6.22-27.06,16.13-13.71,18.84-29.89,24.13-48.78,19.49-6.8-1.67-13.87-1.35-20.83-1.86-15.58-1.15-31.16-2.45-46.76-3.31-7.99-.44-16.2-1.59-23.97.24-16.11,3.8-24.21,19.21-27.82,39.43-3.95,22.17-2.23,44.09,1.8,65.95,1.48,8.03,2.67,16.27,3.1,24.5.53,10.07-1.19,13.75-8.13,16.71-6.1,2.6-12.56,3.85-18.92,5.2-11.56,2.47-23.41,3.28-34.68,7.17-12.1,4.18-21.07,14.54-26.13,30.84-3.48,11.19-4,22.76-2.72,33.84,2.12,18.25,5.6,36.29,9.29,54.13,7.68,37.13,26.88,58.23,54.27,66.66,8.68,2.67,17.64,3.85,26.52,5.14,9.72,1.41,18.09-3.07,25.96-10.8,18.11-17.8,31.17-40.65,38.95-68.66,1.96-7.05,2.34-15.11,2.58-22.75.4-12.66.56-25.39,0-38.03-.63-13.95,4.79-22.11,13.44-26.9,7.55-4.17,15.57-6.79,23.32-10.34,15.82-7.23,31.75-14.11,47.36-22.09,17.86-9.12,35.4-8.97,53.12.11,14.59,7.48,29.45,14.18,41.7,27.92,8.07,9.05,13.53,20.76,18.26,33.01,12.38,32.01,24.64,64.11,36.64,96.37,6.81,18.31,11.96,37.45,12.04,58.29.07,17.51-4.82,32.74-12.61,46.49-6.95,12.26-12.71,25.14-15.28,40.54-3.74,22.44,6.03,43.66,22.88,45.31,9.66.94,19.02-4.09,25.81-14.09,8.94-13.16,17.22-27.11,26.03-40.43,4.33-6.55,8.98-12.82,13.89-18.6,18.48-21.77,33.84-46.43,38.97-79.57,2.88-18.6,3.18-37.6.88-56.61-1.72-14.27-2.39-28.77-3.94-43.08-1.62-14.99-3.59-29.92-5.65-44.81-4.73-34.14-.4-64.78,18.32-90.51,17.86-24.55,34.15-50.78,47.52-80.18,6-13.19,10.91-26.38,9.38-42.35"/>
          <path class="cls-5" d="m1021.35,1275.86c-5.45-15.92-16.61-20.71-27.84-24.3-9.58-3.06-19.25-3.26-28.48,3.81-4.16,3.18-7.8,6.53-7.95,12.89-.15,6.21,3.57,9.74,7.4,12.71,14.9,11.55,30.87,13.46,47.39,9.15,7.14-1.86,9.09-5.34,9.49-13.41"/>
          <path class="cls-5" d="m1065.58,351.03c-2.57-19.67-12.38-29.99-25.93-34.51-10.61-3.54-21.42-7.7-32.21-8.1-12.56-.46-24.97,4.31-35.31,14.82-8.93,9.07-18.08,18.09-25.81,28.84-16.04,22.29-36.15,33.52-57.62,42.2-13.14,5.31-26.46,9.99-38.64,19.16-9.62,7.24-17.45,16.36-20.68,30.63-4.84,21.38,2.27,47.15,22.71,56.34,12.55,5.64,25.66,6.4,39.15,4.09,10.99-1.88,21.72-4.18,32.18-8.89,13.71-6.17,26.23-15.45,35.85-29.79,9.68-14.43,21.51-22.9,34.91-28.55,20.06-8.46,38.09-22.18,54.23-39.91,10.44-11.47,16.58-26.84,17.17-45.47"/>
          <path class="cls-5" d="m1119.92,2486.43c-2.95-16.48-12.51-23.11-23.43-25.87-7.11-1.8-15.58,2.44-18.85,15.75-1.77,7.2-3.54,14.52-4.38,21.98-2.92,25.83-9.04,32.56-25.99,39.74-5.52,2.34-10.93,5.17-16.44,7.54-6.53,2.81-8.61,10.06-9.33,17.81-.67,7.22-.37,14.65-.1,21.95.71,18.61,1.49,37.21,2.52,55.79,1.01,18.12,2.24,36.17,9.38,52.46,5.87,13.39,16.66,19.46,25.31,18.32,11.76-1.55,19.17-11.97,20.74-28.53,1.09-11.44.92-23.09,1.4-34.64,1.08-26.07,1.92-52.14,6.19-77.81,2.43-14.6,8.04-26.3,15.24-37.21,4.46-6.76,8.87-13.68,12.57-21.18,3.68-7.47,6.13-15.86,5.17-25.26"/>
          <path class="cls-5" d="m721.86,2166.88c-1.97-10.84-8.76-12.06-15.17-12.5-10.08-.68-20.22-.44-30.32.01-2.35.11-4.64,2.63-6.96,4.03,1.05,2.82,1.6,6.41,3.24,8.32,8.38,9.78,18.36,15.82,29.01,19.44,9.45,3.21,17.01-4.16,20.19-18.46"/>
          <path class="cls-5" d="m1146.45,1541.31c-1.05-6.2-1.15-13.08-3.32-18.48-10.99-27.38-27.61-44.81-51.01-50.1-13.86-3.13-27.41-1.03-41.1,1.64-7.48,1.46-15.14,1.53-22.73,1.79-9.59.32-13.76,5.09-13.13,17.8.62,12.46,2.02,24.9,3.74,37.19,2.14,15.31,4.61,30.58,7.6,45.63,2.5,12.62,8.58,22.1,18.27,25.08,4.96,1.52,10.77,1.12,15.68-.79,13.14-5.1,26.48-4.43,39.86-5,7.82-.34,15.86-1.39,23.32-4.3,13.08-5.1,19.1-19.01,21.51-36.09.63-4.46.87-9.01,1.29-13.52"/>
          <path class="cls-5" d="m1146.45,1350.25c-8.97-31.47-26.98-48.47-50.54-56.65-9.86-3.42-19.85-3.7-29.68-.7-13.52,4.12-16.59,14.64-10.18,31.18,7.94,20.49,21.12,31.36,37.36,35.21,12.67,3,25.64,4.09,38.51,5.18,8.75.74,11.44-2.39,14.52-13.37"/>
          <path class="cls-5" d="m1156.56,2459.38c-2.59-14.69-9.28-24.8-19.61-30.37-13.21-7.12-26.78-13.21-41.06-14.25-20.11-1.47-36.34,8.6-47.4,31.92-4.07,8.57-7.99,17.37-12.71,25.27-6.65,11.13-15.48,18.94-24.48,26.45-5.19,4.33-10.27,9.34-14.49,15.22-8.78,12.25-8.5,27.9-6.23,42.92,2.51,16.58,6.89,32.63,9.81,49.12,2.42,13.64,4.64,27.49,5.62,41.41,1.5,21.33.71,43.03,3,64.17,2.59,23.83-2.94,45.05-7.82,66.87-1.67,7.45-2.82,15.14-3.81,22.81-2.52,19.41,13.88,31.72,24.59,33.01,17.6,2.12,27.19-12.16,33.98-30.58,7.37-19.98,18.18-35.42,31.02-49.08,6.61-7.04,13.04-14.86,18.24-23.71,7.48-12.73,10.28-27.42,6.59-43.82-2.42-10.78-4.06-21.89-5.75-32.94-3.34-21.8-1.06-42.83,4.98-63.41,5.76-19.65,15.25-36.32,23.28-54.19,6.98-15.53,13.45-31.62,18.81-48.24,2.69-8.35,2.39-18.43,3.44-27.73"/>
          <path class="cls-5" d="m1159.72,1092.42c-2.32-1.69-4.51-4.25-6.98-4.87-3.81-.96-7.74.26-9.28,5.8-.47,1.71.6,5.39,1.82,6.49,3.53,3.19,7.65,3.18,11.2.03,1.51-1.34,2.18-4.36,3.24-6.61"/>
          <path class="cls-5" d="m106.45,2876.99c-2.49-11.53-4.5-23.08-11.28-32.25-10.67-14.44-22.94-19.07-37.36-13.36-12.15,4.81-22.18,13.77-30.42,26.91-10.3,16.42-9.21,33.95-2.22,50.65,8.02,19.13,18.7,35.87,32,49.19,8.34,8.36,12.39,8.54,20.1-1.83,7.67-10.31,15.06-21.22,21.43-32.98,7.22-13.34,8.47-29.31,7.75-45.49"/>
          <path class="cls-5" d="m98.86,1756.03c-2.03-11.34-6.68-19.99-14.53-25.36-6.4-4.37-9.62-3.35-13.87,5.1-4.4,8.74-5.58,18.49-3.79,28.7,1.53,8.74,6.37,13.55,13.86,14.38,6.3.7,14.62-6.21,17.02-14.39.7-2.39.89-5.05,1.31-7.59"/>
          <path class="cls-5" d="m88.75,361.17c-2.32-7.61-3.8-15.94-7.1-22.69-10.15-20.73-28.42-24.9-43.42-6.87-11.67,14.03-15.62,32.33-13.71,52.35,1.53,16.07,12.75,26.78,25.07,27.17,10.31.33,19.98-1.15,28.48-10.16,9.62-10.2,11.39-23.88,10.7-38.96"/>
          <path class="cls-5" d="m1175.52,925.88c-2.81-13.26-10.62-17.04-19.59-17.63-8.33-.56-13.26,6.15-13.26,16.79,0,11.68,4.89,18.54,13.27,18.6,11.02.08,16.25-4.43,19.59-16.91"/>
          <path class="cls-5" d="m1179.31,246.2c-4.45-24.74-16.87-41.56-32.37-53.76-12.13-9.55-20.64-6.33-24.28,12.41-1.17,6-.25,12.98.5,19.35,2.86,24.22,17.72,37.08,34.04,36.38,2.1-.09,4.21-.08,6.32,0,7.57.27,13.11-3.64,15.8-13.54"/>
          <path class="cls-5" d="m1188.15,2434.02c-2.91-14.51-6.34-28.42-14.41-39.89-7.76-11.02-16.55-17.37-27.92-16.74-22.43,1.25-44.97,1.54-66.96,8.54-16.84,5.36-31.12,16.82-41.68,35.45-14.54,25.65-31.53,47.49-51.7,65.36-9.39,8.32-13.13,22.4-13.45,37.73-.49,23.11,3.76,45.18,9.04,66.71,7.92,32.3,11.34,65.2,9.88,98.97-1.33,30.69-10.03,57.9-24.04,81.91-7.89,13.52-16.54,26.29-25.23,38.92-10.29,14.95-21.05,29.32-31.53,44.04-16.08,22.59-36.51,33.56-58.77,39.72-10.11,2.8-20.34,5.05-30.3,8.59-14.07,5-22.96,17.94-27.09,36.25-3.26,14.44-6.4,29.1-8.11,43.96-2.08,18.09,9.4,35.7,24.43,29.52,7.83-3.22,15.55-6.9,23.39-10.08,21.04-8.55,42.09-17.08,63.19-25.35,17.2-6.75,30.37-20.05,39.9-40.54,7.22-15.51,14.83-30.87,26.44-41.5,9.71-8.89,20.44-13.23,32.21-14.55,17.02-1.9,34.38-1.54,50.56-10.81,12.01-6.88,20.95-18.34,27.8-32.98,6.33-13.52,12.02-27.67,19.1-40.43,10.65-19.2,24.43-34.37,38.34-49.27,5.21-5.59,10.25-11.74,14.48-18.62,7.82-12.71,7.84-23.65,1.39-37.94-4.93-10.92-9.74-21.94-14.54-32.96-9.25-21.23-8.26-43.73-1.58-64.9,6.5-20.58,15.34-39.9,23.78-59.28,7.52-17.28,15.93-33.88,23.9-50.81,6.93-14.72,10.2-30.75,9.48-48.18"/>
          <path class="cls-5" d="m1188.15,1887.91c-2.84-14.55-15.19-16.82-27.09-9.91-10.64,6.17-17.24,24.45-13.3,40.32,2.99,12.03,13.37,23.29,24.51,11.72,9.89-10.26,16.92-23.17,15.87-41.29"/>
          <path class="cls-5" d="m720.59,2961.53c-4.09-16.95-13.86-26.99-27.17-27.9-8.71-.59-15.41,9.25-13.18,20.26,3.19,15.75,9.52,29.21,18.92,39.69,6.72,7.49,12.13,5.9,15.6-5.08,2.63-8.32,3.94-17.39,5.83-26.12"/>
          <path class="cls-5" d="m716.8,256.35c-3.11-8.92-6.7-11.3-13.26-8.41-3.22,1.42-6.59,2.77-9.44,5.12-12.95,10.64-25.76,7.93-38.58-.12-10.15-6.37-19.91-14.1-30.4-19.18-21.24-10.28-42.34-6.99-61.74,7.64-16.13,12.17-23.49,32.85-24.69,57.21-.76,15.42.11,30.54,5.54,44.85,7.84,20.65,21.13,29.46,37.36,31.97,7.74,1.19,15.57,1.41,23.37,1.77,22.09,1.02,38.93-10.37,50.75-36.15,6-13.07,13.98-24.55,21.33-36.46,4.8-7.78,11.45-12.01,18.21-16.31,10.08-6.41,19.89-13.9,21.55-31.09"/>
          <path class="cls-5" d="m711.75,1778.01c-2.53-6.2-4.13-13.7-7.76-18.34-9.06-11.57-7.94-24.12-5.06-38.36,2.56-12.65,4.87-25.86,4.87-38.82,0-12.96-2.77-25.99-4.73-38.87-4.92-32.44-9.96-64.85-15.16-97.22-2.91-18.12-7.68-35.11-18.92-47.34-6.43-6.99-13.69-10.39-22.1-11.19-17.22-1.63-32.7,6.58-47.96,14.8-28.26,15.22-56.01,32.17-84.14,47.83-14.72,8.19-30.16,12.93-46.07,15.57-11.85,1.97-23.97,3.13-34.81,11.51-10.22,7.9-15.74,20.79-20.68,33.99-6.63,17.69-12.64,35.82-18.37,54.07-5.5,17.52-8.94,35.92-10.14,54.91-.7,10.96-1.16,21.97-1.26,32.96-.19,22.05,7.83,37.09,23.99,40.23,23.46,4.56,46.8,11.78,70.72,10.3,8.04-.5,16.33-1.89,23.95-5.16,15.66-6.71,31.06-14.37,47.45-17.53,11.84-2.28,23.85-4.28,34.09-13.54,9-8.14,17.53-17.25,26.62-25.2,12.71-11.12,27.03-13.44,41.62-10.01,9.01,2.12,17.93,5.78,26.5,10.13,7.56,3.84,11.28,11.85,10.99,23.45-.17,6.72,1.03,13.7,2.47,20.23,1.65,7.52,5.85,11.97,11.88,12.72,5.48.67,8.96-3.79,11.2-9.41,1.18-2.97.59-7.2.8-10.87"/>
          <path class="cls-5" d="m709.85,66.14c-2.95-10.79-4.64-12.78-10.74-12.68-4.89.08-11.2,6.52-13.35,12.63-1.9,5.4,4.54,14.63,9.55,15.33,8.54,1.2,12.58-2.64,14.54-14.44"/>
          <path class="cls-5" d="m690.27,2423.87c-2.49-8.58-6.18-15.52-11.89-21.34-13.99-14.24-28.78-25.35-46.2-30.45-14.39-4.21-28.74-4.69-42.96-1.16-10.01,2.49-18.08,11.05-20.03,25.11-1.91,13.75,1.6,25.92,10.49,34.63,10.59,10.37,22.71,16.56,34.8,22.68,10.92,5.53,22.2,9.81,34.08,8.51,15.27-1.66,28.68-8.95,38.43-25.42,1.84-3.11,2.22-7.77,3.27-11.72"/>
          <path class="cls-5" d="m675.73,1089.88c-6.6-9.48-14.51-12.61-20.9-9.47-3.92,1.93-3.86,4.98-2.42,8.58,3.42,8.56,18.82,9.57,23.32,1.73"/>
          <path class="cls-5" d="m675.1,1615.7c-1.68-12.68-2.87-25.53-5.21-37.99-2-10.67-4.81-21.21-8.16-31.27-8.93-26.78-25.48-29.92-43.4-20.84-14.39,7.29-28.01,17.39-41.77,26.77-22.45,15.3-46.36,24.69-70.8,32.02-13.86,4.16-27.87,7.51-41.67,11.99-14.51,4.71-26.94,13.68-34.85,31.95-10.25,23.65-20.04,47.58-26.34,73.66-2.88,11.95-3.94,24.59-1.96,37.13,2.24,14.17,8.86,24.22,18.94,28.56,19.53,8.42,39.5,14.19,59.94,5.93,6.16-2.49,12.06-6.62,17.69-10.91,14.26-10.85,29.09-19.04,45.52-22.01,12.85-2.32,24.02-10.65,34.06-21.12,14.07-14.67,29.98-21.92,47.43-25.5,12.56-2.58,25.51-3.9,36.75-13.97,9.51-8.51,13.09-20.61,13.74-34.81.44-9.54.08-19.15.08-28.74"/>
          <path class="cls-5" d="m731.97,1309.68c-5.15-26.04-19.99-35.26-37.92-37.87-15.3-2.22-30.35,16.95-28.97,36.17.82,11.48,6.19,20.08,11.98,27.83,9.19,12.3,20.38,17.63,33.43,15.3,13.92-2.49,21.48-16.74,21.48-40.59"/>
          <path class="cls-5" d="m749.66,229.3c-4.73-25.06-21.19-31.22-37.25-26.89-10.45,2.81-20.59,7.63-31,10.72-14.33,4.25-28.35,1.4-42.34-3.98-14.8-5.68-29.95-9.14-45.46-7.71-14.37,1.32-28.82,2.99-42.28,10.29-10.97,5.95-17.64,18.11-21.5,32.8-6.32,24.06-9,49.05-7.45,74.35,1.75,28.55,9.07,54.87,24.01,75.89,8.57,12.06,19.22,20.14,32.69,19.84,12.42-.28,24.86,1.68,37.27,1.32,14.39-.42,28.27-4.52,39.11-18.49,7.08-9.11,14.19-18.42,20.12-28.82,7.52-13.18,17.29-22.25,27.34-31.09,9.95-8.74,20.48-16.48,27.78-29.62,12.81-23.07,20.45-48.44,18.96-77.76"/>
          <path class="cls-5" d="m316.22,1309.68c-5.25-19.81-18.44-28.11-32.22-20.29-7.26,4.12-10.09,11.99-7.55,21.96,3.15,12.32,9.55,21.05,18.33,26.1,10.4,5.99,21.15-4.01,21.44-19.32.05-2.53,0-5.07,0-7.61"/>
        </g>
      </g>
    </g>
  </g>
</svg>