<?xml version="1.0" encoding="UTF-8"?>
<svg id="Layer_2" data-name="Layer 2" xmlns="http://www.w3.org/2000/svg" viewBox="0 0 1320 95">
  <defs>
    <style>
      .cls-1 {
        fill: #FFFFFF;
        stroke-width: 0px;
      }
    </style>
  </defs>
  <g id="Layer_1-2" data-name="Layer 1">
    <g>
      <path class="cls-1" d="m68.13,28.07c2.55,2.5,4.99,4.93,7.49,7.3.85.8,1.41,1.62,1.19,2.83-.05.28-.06.6.01.87.13.48.26.98.52,1.39.38.63,1.04.79,1.74.7.69-.09,1.06-.55,1.27-1.16.06-.17.11-.35.18-.58,3.37-1.37,6.75-2.75,10.13-4.13.03.06.06.12.08.18-.51.36-1.03.72-1.59,1.11,0,1.3-.04,2.6,0,3.9.06,1.69,1.32,2.87,2.98,2.89.26,0,.52,0,.88,0-.17.66-.36,1.24-.47,1.83-.5,2.65-.13,5.19,1.11,7.56.86,1.67,1.81,3.3,2.81,4.89.8,1.27,1.12,2.58,1.01,4.07-.12,1.48-.09,2.96-.11,4.44,0,.31.07.62.11.93,1.39.37,2.67.32,3.93-.22.09-1.28.13-2.5.26-3.7.19-1.76.11-3.49-.38-5.2-.99-3.46-2.52-6.68-4.16-9.86-.09-.17-.17-.34-.3-.62,2.6,1.58,4.7,5.03,5.86,9.61.21-.57.39-1.04.55-1.51,1.1-3.32,1.85-6.7,1.39-10.23-.2-1.55-.53-3.08-.71-4.63-.26-2.18-.37-4.33,1.05-6.26.52-.71.5-1.57.13-2.35-.34-.72-.75-1.4-1.16-2.08-.75-1.25-1.52-2.48-2.27-3.73-.1-.16-.15-.36-.22-.54.28.08.47.22.65.36,1.26,1,2.2,2.27,2.98,3.7,3.7-3.59,7.92-6.38,12.07-9.32-.39-.7-.74-1.32-1.11-1.97-.27.13-.48.23-.68.34-1.39.72-2.77,1.46-4.17,2.15-2.45,1.21-4.86,2.49-7.47,3.33-.55.18-1.13.31-1.71.34-1.39.09-2.52-.43-3.36-1.64.7-1.49,1.43-2.92,2.65-4.04.19-.17.47-.26.78-.42.32.83.59,1.54.89,2.33,1.2-1.21,2.09-2.53,2.42-4.16.19-.93-.32-1.4-1.28-1.28-1.05.13-1.98.57-2.86,1.14-1.98,1.28-3.6,2.96-5.16,4.7-1.01,1.12-2.05,2.22-3.36,3.02-1.88,1.15-3.83,1.3-5.84.37-.2-.09-.41-.18-.62-.27.23.6.48,1.17.87,1.62.39.45.9.79,1.54,1.32-1.07.15-1.96.28-2.93.42.86.77,1.79,1.19,2.89,1.26,1.07.07,2.01-.34,2.96-.81-3.23,3.68-6.91,6.69-11.29,8.67-1.81-2.95-3.49-5.87-5.34-8.67-1.88-2.85-3.92-5.6-5.93-8.36-.47-.65-1.09-1.2-1.64-1.8-.08.03-.15.06-.23.1,1.31,3.24,1.48,6.58.97,9.9Zm29.98-3.55c.74.4,1.46.79,2.17,1.18.05.03.11.04.13.08.57,1,1.02,2.04.87,3.21-.07.56-.55.81-1.14.71-.75-.12-1.44-.42-1.92-1.01-.49-.61-.91-1.28-1.33-1.88.48-.89.86-1.61,1.23-2.3Zm-4.77,8.2c.51.83,1.02,1.67,1.59,2.61,1.24-3.27.76-6.24-1.26-9.18,1.59.73,2.69,1.65,3.17,3.2.87,2.84.54,5.49-1.19,7.93-.59.83-1.24,1.62-2.14,2.19.76-2.28.45-4.49-.34-6.67.05-.03.11-.05.16-.08Z"/>
      <path class="cls-1" d="m56.73,9.94c.53,1.05,1.03,2.03,1.54,3.03,1.14-.59,1.84-1.47,2.51-2.35,1.36-1.79,2.6-3.69,4.66-4.81-1.75-1.63-6.17-2.11-8.4.62-.84-.29-1.69-.33-2.32.43-.54.65-.56,1.43-.21,2.17.46.99,1.34,1.08,2.22.91Z"/>
      <path class="cls-1" d="m39.94,9.1c.81-.61,1.63-1.23,2.22-1.68.33-2.09.22-3.92.1-5.83-1.15.39-.88,1.45-1.28,2.13-.65.05-.97-.42-1.31-.79-.68-.74-1.31-1.52-1.99-2.27-.36-.4-.76-.81-1.36-.62-.58.18-.73.73-.86,1.25-.06.23-.06.47-.06.71,0,.91.2,1.79.6,2.61.89,1.83,2.22,3.26,3.94,4.49Z"/>
      <path class="cls-1" d="m93.12,20.99c.12.45.24.89.4,1.46,2.29-2.49,4.13-5.24,7.13-6.82-2.72-2.13-6.58-.71-7.85,2.83-1.11-.49-1.79-.43-2.29.18-.48.59-.47,1.57.02,2.22.54.7,1.21.73,2.59.13Z"/>
      <path class="cls-1" d="m61.31,12.55c-.93,1.01-2.02,1.81-3.49,1.84-.08,0-.15.07-.21.1.91.45,1.79.87,2.66,1.31.88.44,1.74.91,2.62,1.34.49.24,1.01.26,1.52.11.23-.59-.18-1.29.36-1.72.63,0,1.21,0,1.79,0,.43,0,.77-.2.76-.64-.02-.67-.14-1.34-.22-2.01-.03,0-.06,0-.1,0-.14.44-.27.88-.4,1.28-1.15.25-2.34-.3-2.83-1.24-.32-.61-.37-1.27.05-1.81.86-1.11,1.56-2.48,3.45-2.31-.16-.69-.3-1.29-.48-2.04-.45.26-.84.4-1.1.66-.76.77-1.49,1.58-2.19,2.4-.75.89-1.41,1.85-2.2,2.71Z"/>
      <path class="cls-1" d="m120.18,19.15c1.26-.33,2.24-1.06,2.97-2.11.38-.55.62-1.16.3-1.94-.28.02-.57,0-.82.08-.53.17-1.03.42-1.55.61-.46.17-.92.41-1.46.18-.03-.52-.06-1.01-.08-1.51-.07-.01-.14-.03-.21-.04-.68,1.22-1.36,2.44-2.09,3.73.25.48.56,1.08.84,1.62.75-.22,1.42-.44,2.1-.62Z"/>
      <path class="cls-1" d="m1289.03,87.45c-56.43-9.61-112.82-19.41-182.02-18.91-24.27.17-48.87-2.19-72.96-1.73-36.37.68-73.46,1.18-107.33,6.29-6.75,1.02-16.14.97-24.11.76-29.03-.76-57.9-2.09-86.96-2.66-53.42-1.06-106.24.52-157.75,4.83-21.01,1.76-40.07.87-59.73-1.31-50.95-5.65-102.7-10.71-153.05-16.79-59.22-7.14-116.13-3.41-170.06,3.48-32.78,4.18-63.89,7.4-99.45,6.4-26.84-.75-51.08,1.33-73.99,5.37-.16-.54-.23-1.12-.23-1.74,0-1.16.07-2.31.1-3.52-1.37.17-2.75.34-4.16.52.5,1.79.68,3.58.6,5.37-2.39.37-4.53.6-6.5.71-.04-.32-.15-.62-.35-.92-.11-.16-.09-.41-.09-.62,0-1.11.39-2.06,1.09-2.91h.4c.6-.65,1.1-1.21,1.65-1.81-.02-.08-.06-.25-.12-.49.62-.57,1.24-1.15,1.84-1.71,0-1.88.02-3.63-.01-5.38,0-.42-.19-.83-.3-1.25-.07,0-.14-.01-.21-.01-1.54,2.34-3.08,4.68-4.62,7.02-.19.02-.37.04-.54.06-.48,1.08-1.24,1.85-2.25,2.41-.37.21-.69.52-1.12.86.43.67.81,1.25,1.32,2.05.02.83-.15,1.85.28,2.79-8.87,0-13.9-2.36-22.03-2.82-.01-.6-.29-1.03-.91-1.43-.49-.32-1.07-.55-1.46-.96-1.3-1.36-1.46-2.7-.16-3.57.06-.4.02-.72.15-.94.34-.6.71-1.18,1.13-1.72,1.8-2.3,3.55-4.63,5.45-6.84,1.42-1.65,1.7-3.34.95-5.35-1.15-3.05-2.1-6.17-3.28-9.2-.99-2.53-1.52-5.11-1.47-7.83.07-3.23.07-6.47.13-9.7.04-2.21-.63-4.26-1.29-6.42-.14.2-.22.33-.32.45-.69.91-1.41,1.17-2.51.83-.5-.16-.99-.39-1.44-.66-.64-.37-1.23-.85-1.89-1.18-.84-.43-1.72-.8-2.61-1.12-.27-.1-.61.03-.93.07,0,0-.01-.01-.02-.01-.24-.05-.47-.1-.74-.16.33-.84.87-1.31,1.59-1.56.05-.37.1-.7.15-1.07-.62-.05-1.17-.1-1.72-.14-.93-.06-1.85-.14-2.78-.17-1.04-.03-1.57.33-1.85,1.17,1.57,1.25,3.62,1.58,5.31,2.61-2.1-.29-4.17-.68-5.82-2.08-1.37-1.16-2.68-2.4-3.95-3.68-.96-.98-1.8-2.07-2.67-3.09-1.04.8-2.07,1.58-3.21,2.45,2.28,2.94,4.54,5.87,6.84,8.83-1.56,1.55-1.44,3.58-1.54,5.64.64-.18,1.19-.34,1.8-.51v1.28c-.66.3-1.3.58-1.97.88-.08,1.29-.16,2.54-.25,3.88.81-.3,1.48-.55,2.23-.83v1.38c-.75.38-1.5.76-2.28,1.16-.03.49-.09.97-.1,1.44-.01.74-.06,1.49.03,2.22.23,2.02,1.93,3.5,3.98,3.52,1.25.01,2.49,0,3.74,0,.23,0,.45.03.68.05.02.18.04.28.04.38-.11,4.98-.21,9.96-.34,14.94,0,.39-.17.77-.28,1.15-.38,1.27-.85,2.51-1.16,3.8-.73,3-.72,6.09-.93,9.16-.1,1.41-.15,2.83-.22,4.27-15.09,2.78-32.39,6.83-50.46,11.33v10.55h1320v-2.14c-10.28-1.84-20.59-3.64-30.97-5.41ZM61.88,47.91c1.23,1.79,2.38,3.46,3.56,5.17-2.25,3.01-3.79,6.32-5.02,9.77-.19.07-.36.13-.52.18-.37,1.94-1.93,3.2-2.77,4.95.38.47.72.94,1.11,1.36.15.16.41.32.61.32.64-.02.97.36,1.26.81.26.39.49.8.79,1.29-1.68.08-3.51.25-5.5.53-.59-1.01-.82-2.02-.47-3.14.28-.88.52-1.77.81-2.74-.08-.06-.24-.19-.49-.38,1.17-2.94,2.41-5.89,3.51-8.89,1.1-3,2.05-6.04,3.12-9.24Zm-9.33-19.69c-1.05.58-2.1,1.17-3.15,1.75.02-.75.9-1.22,3.15-1.75Zm-.51,6.62c.16-.21.31-.43.47-.64,2.06-2.68,3.78-5.56,4.9-8.76.63-1.82.91-3.7.54-5.62-.28-1.42-.77-2.72-2.01-3.6,1.02.04,1.83.53,2.5,1.26.96,1.05,1.44,2.32,1.64,3.71.54,3.75-.8,6.92-3.15,9.73-1.35,1.61-2.93,2.98-4.89,3.93Z"/>
    </g>
  </g>
</svg>